<!--<svg width="35" height="24" viewBox="0 0 34 24" fill="none" xmlns="http://www.w3.org/2000/svg">-->
<!--<path fill-rule="evenodd" clip-rule="evenodd" d="M0.00183571 0.3125V7.59485C0.00183571 7.59485 -0.141502 9.88783 2.10473 11.8288L14.5469 23.6837L21.0172 23.6005L19.9794 10.8126L17.5261 7.93369L9.81536 0.3125H0.00183571Z" fill="currentColor"/>-->
<!--<path opacity="0.06" fill-rule="evenodd" clip-rule="evenodd" d="M8.17969 17.7762L13.3027 3.75173L17.589 8.02192L8.17969 17.7762Z" fill="#161616"/>-->
<!--<path opacity="0.06" fill-rule="evenodd" clip-rule="evenodd" d="M8.58203 17.2248L14.8129 5.24231L17.6211 8.05247L8.58203 17.2248Z" fill="#161616"/>-->
<!--<path fill-rule="evenodd" clip-rule="evenodd" d="M8.25781 17.6914L25.1339 0.3125H33.9991V7.62657C33.9991 7.62657 33.8144 10.0645 32.5743 11.3686L21.0179 23.6875H14.5487L8.25781 17.6914Z" fill="currentColor"/>-->
<!--</svg>-->
<svg style="width: 100%;" width="1314" height="147" viewBox="0 0 1314 147" fill="none" xmlns="http://www.w3.org/2000/svg">
    <path d="M57.4 146.2C46.0667 146.2 35.4667 144.8 25.6 142C15.7333 139.2 7.33333 135.333 0.400001 130.4L9.6 106C14.1333 109.067 18.9333 111.667 24 113.8C29.0667 115.933 34.4 117.6 40 118.8C45.6 119.867 51.4667 120.4 57.6 120.4C67.2 120.4 74 118.933 78 116C82.1333 113.067 84.2 109.333 84.2 104.8C84.2 100.667 82.8 97.5333 80 95.4C77.3333 93.1333 72.4 91.2 65.2 89.6L41.6 84.8C28.6667 82.1333 19 77.6 12.6 71.2C6.2 64.8 3 56.2667 3 45.6C3 36.5333 5.4 28.6667 10.2 22C15 15.3333 21.7333 10.1333 30.4 6.4C39.2 2.66666 49.4667 0.799996 61.2 0.799996C71.2 0.799996 80.5333 2.19999 89.2 4.99999C97.8667 7.79999 105 11.8 110.6 17L101.4 39.8C95.9333 35.4 89.8 32.1333 83 30C76.3333 27.7333 68.8667 26.6 60.6 26.6C51.9333 26.6 45.2667 28.1333 40.6 31.2C36.0667 34.2667 33.8 38.4667 33.8 43.8C33.8 47.8 35.2 51.0667 38 53.6C40.8 56 45.7333 57.9333 52.8 59.4L76 64C89.2 66.6667 99 71.1333 105.4 77.4C111.8 83.6667 115 92 115 102.4C115 111.2 112.6 118.867 107.8 125.4C103.133 131.933 96.4667 137.067 87.8 140.8C79.2667 144.4 69.1333 146.2 57.4 146.2ZM206.241 146.2C191.174 146.2 178.241 143.2 167.441 137.2C156.641 131.2 148.307 122.8 142.441 112C136.707 101.067 133.841 88.2 133.841 73.4C133.841 58.6 136.707 45.8 142.441 35C148.307 24.2 156.641 15.8 167.441 9.8C178.241 3.8 191.174 0.799996 206.241 0.799996C215.974 0.799996 224.841 2.19999 232.841 4.99999C240.841 7.66666 247.641 11.6 253.241 16.8L243.441 41.4C237.307 36.6 231.441 33.2 225.841 31.2C220.374 29.2 214.174 28.2 207.241 28.2C194.041 28.2 183.907 32.1333 176.841 40C169.907 47.7333 166.441 58.8667 166.441 73.4C166.441 87.9333 169.907 99.1333 176.841 107C183.907 114.867 194.041 118.8 207.241 118.8C214.174 118.8 220.374 117.8 225.841 115.8C231.441 113.8 237.307 110.4 243.441 105.6L253.241 130.2C247.641 135.267 240.841 139.2 232.841 142C224.841 144.8 215.974 146.2 206.241 146.2ZM255.816 144L320.616 2.99999H346.416L412.016 144H380.416L363.416 104.8L375.616 113.4H291.816L304.216 104.8L287.216 144H255.816ZM333.416 35.8L307.616 97L302.216 89.4H365.216L360.616 97L334.216 35.8H333.416ZM424.173 144V2.99999H447.373L523.973 100.4H518.573V2.99999H547.573V144H524.373L447.973 46.6H453.173V144H424.173ZM678.772 144L615.372 2.99999H648.972L697.172 115.8H687.372L735.572 2.99999H767.972L704.572 144H678.772ZM779.642 144V2.99999H810.842V144H779.642ZM890.408 146.2C879.074 146.2 868.474 144.8 858.608 142C848.741 139.2 840.341 135.333 833.408 130.4L842.608 106C847.141 109.067 851.941 111.667 857.008 113.8C862.074 115.933 867.408 117.6 873.008 118.8C878.608 119.867 884.474 120.4 890.608 120.4C900.208 120.4 907.008 118.933 911.008 116C915.141 113.067 917.208 109.333 917.208 104.8C917.208 100.667 915.808 97.5333 913.008 95.4C910.341 93.1333 905.408 91.2 898.208 89.6L874.608 84.8C861.674 82.1333 852.008 77.6 845.608 71.2C839.208 64.8 836.008 56.2667 836.008 45.6C836.008 36.5333 838.408 28.6667 843.208 22C848.008 15.3333 854.741 10.1333 863.408 6.4C872.208 2.66666 882.474 0.799996 894.208 0.799996C904.208 0.799996 913.541 2.19999 922.208 4.99999C930.874 7.79999 938.008 11.8 943.608 17L934.408 39.8C928.941 35.4 922.808 32.1333 916.008 30C909.341 27.7333 901.874 26.6 893.608 26.6C884.941 26.6 878.274 28.1333 873.608 31.2C869.074 34.2667 866.808 38.4667 866.808 43.8C866.808 47.8 868.208 51.0667 871.008 53.6C873.808 56 878.741 57.9333 885.808 59.4L909.008 64C922.208 66.6667 932.008 71.1333 938.408 77.4C944.808 83.6667 948.008 92 948.008 102.4C948.008 111.2 945.608 118.867 940.808 125.4C936.141 131.933 929.474 137.067 920.808 140.8C912.274 144.4 902.141 146.2 890.408 146.2ZM971.048 144V2.99999H1002.25V144H971.048ZM1026.61 73.4C1026.61 58.7333 1029.35 46 1034.81 35.2C1040.41 24.2667 1048.41 15.8 1058.81 9.8C1069.21 3.8 1081.55 0.799996 1095.81 0.799996C1110.08 0.799996 1122.41 3.8 1132.81 9.8C1143.21 15.8 1151.21 24.2667 1156.81 35.2C1162.55 46 1165.41 58.6667 1165.41 73.2C1165.41 88 1162.55 100.867 1156.81 111.8C1151.21 122.6 1143.21 131.067 1132.81 137.2C1122.41 143.2 1110.08 146.2 1095.81 146.2C1081.55 146.2 1069.21 143.2 1058.81 137.2C1048.55 131.067 1040.61 122.533 1035.01 111.6C1029.41 100.667 1026.61 87.9333 1026.61 73.4ZM1059.21 73.4C1059.21 87.9333 1062.21 99.3333 1068.21 107.6C1074.35 115.733 1083.55 119.8 1095.81 119.8C1107.81 119.8 1116.95 115.733 1123.21 107.6C1129.48 99.3333 1132.61 87.9333 1132.61 73.4C1132.61 58.7333 1129.48 47.4 1123.21 39.4C1117.08 31.2667 1107.95 27.2 1095.81 27.2C1083.55 27.2 1074.35 31.2667 1068.21 39.4C1062.21 47.4 1059.21 58.7333 1059.21 73.4ZM1189.8 144V2.99999H1213L1289.6 100.4H1284.2V2.99999H1313.2V144H1290L1213.6 46.6H1218.8V144H1189.8Z" fill="#0080F6"/>
</svg>
