<?xml version="1.0" encoding="UTF-8"?>
<svg id="_Слой_1" data-name="Слой_1" xmlns="http://www.w3.org/2000/svg" version="1.1" viewBox="230 645 170 130">
  <!-- Generator: Adobe Illustrator 29.0.0, SVG Export Plug-In . SVG Version: 2.1.0 Build 186)  -->
  <defs>
    <style>
      .st0 {
        fill: none;
      }

      .st1 {
        fill: #1d1d1b;
      }
    </style>
  </defs>
  <g>
    <polygon class="st0" points="256.7 652.58 256.7 685.17 277.96 685.17 277.96 730.53 256.7 730.53 256.7 763.13 367.25 763.13 367.25 730.53 345.99 730.53 345.99 685.17 367.25 685.17 367.25 652.58 256.7 652.58"/>
    <polygon class="st0" points="235.44 727.69 253.86 727.69 275.12 727.69 275.12 688.01 253.86 688.01 235.44 688.01 235.44 727.69"/>
    <polygon class="st0" points="348.83 727.69 370.09 727.69 388.51 727.69 388.51 688.01 370.09 688.01 348.83 688.01 348.83 727.69"/>
    <polygon class="st1" points="367.25 763.13 256.7 763.13 256.7 730.53 253.86 730.53 253.86 765.97 370.09 765.97 370.09 730.53 367.25 730.53 367.25 763.13"/>
    <polygon class="st1" points="256.7 652.58 367.25 652.58 367.25 685.17 370.09 685.17 370.09 649.74 253.86 649.74 253.86 685.17 256.7 685.17 256.7 652.58"/>
    <polygon class="st1" points="235.44 727.69 235.44 688.01 253.86 688.01 253.86 685.17 232.6 685.17 232.6 730.53 253.86 730.53 253.86 727.69 235.44 727.69"/>
    <polygon class="st1" points="277.96 730.53 277.96 685.17 256.7 685.17 253.86 685.17 253.86 688.01 275.12 688.01 275.12 727.69 253.86 727.69 253.86 730.53 256.7 730.53 277.96 730.53"/>
    <polygon class="st1" points="391.35 685.17 370.09 685.17 370.09 688.01 388.51 688.01 388.51 727.69 370.09 727.69 370.09 730.53 391.35 730.53 391.35 685.17"/>
    <polygon class="st1" points="348.83 727.69 348.83 688.01 370.09 688.01 370.09 685.17 367.25 685.17 345.99 685.17 345.99 730.53 367.25 730.53 370.09 730.53 370.09 727.69 348.83 727.69"/>
  </g>
</svg>
