<?xml version="1.0" encoding="UTF-8"?>
<svg id="_Слой_1" data-name="Слой_1" xmlns="http://www.w3.org/2000/svg" version="1.1" viewBox="0 0 800 800">
  <!-- Generator: Adobe Illustrator 29.0.0, SVG Export Plug-In . SVG Version: 2.1.0 Build 186)  -->
  <defs>
    <style>
      .st0 {
        fill: none;
      }

      .st1 {
        fill: #1d1d1b;
      }
    </style>
  </defs>
  <path class="st1" d="M168.45,160.82H52.22V44.6h116.23v38.27h-21.26v39.68h21.26v38.27ZM55.06,157.98h110.56v-32.6h-21.26v-45.35h21.26v-32.6H55.06v110.54Z"/>
  <path class="st1" d="M189.71,125.39h-45.35v-45.35h45.35v45.35ZM147.19,122.55h39.69v-39.68h-39.69v39.68Z"/>
  <path class="st1" d="M73.48,327.22v35.43h-21.26v45.35h21.26v35.44h116.23v-116.22h-116.23ZM55.06,405.17v-39.69h39.69v39.69h-39.69ZM186.87,440.61h-110.56v-32.61h21.26v-45.35h-21.26v-32.59h110.56v110.56Z"/>
  <g>
    <polygon class="st0" points="256.7 652.58 256.7 685.17 277.96 685.17 277.96 730.53 256.7 730.53 256.7 763.13 367.25 763.13 367.25 730.53 345.99 730.53 345.99 685.17 367.25 685.17 367.25 652.58 256.7 652.58"/>
    <polygon class="st0" points="235.44 727.69 253.86 727.69 275.12 727.69 275.12 688.01 253.86 688.01 235.44 688.01 235.44 727.69"/>
    <polygon class="st0" points="348.83 727.69 370.09 727.69 388.51 727.69 388.51 688.01 370.09 688.01 348.83 688.01 348.83 727.69"/>
    <polygon class="st1" points="367.25 763.13 256.7 763.13 256.7 730.53 253.86 730.53 253.86 765.97 370.09 765.97 370.09 730.53 367.25 730.53 367.25 763.13"/>
    <polygon class="st1" points="256.7 652.58 367.25 652.58 367.25 685.17 370.09 685.17 370.09 649.74 253.86 649.74 253.86 685.17 256.7 685.17 256.7 652.58"/>
    <polygon class="st1" points="235.44 727.69 235.44 688.01 253.86 688.01 253.86 685.17 232.6 685.17 232.6 730.53 253.86 730.53 253.86 727.69 235.44 727.69"/>
    <polygon class="st1" points="277.96 730.53 277.96 685.17 256.7 685.17 253.86 685.17 253.86 688.01 275.12 688.01 275.12 727.69 253.86 727.69 253.86 730.53 256.7 730.53 277.96 730.53"/>
    <polygon class="st1" points="391.35 685.17 370.09 685.17 370.09 688.01 388.51 688.01 388.51 727.69 370.09 727.69 370.09 730.53 391.35 730.53 391.35 685.17"/>
    <polygon class="st1" points="348.83 727.69 348.83 688.01 370.09 688.01 370.09 685.17 367.25 685.17 345.99 685.17 345.99 730.53 367.25 730.53 370.09 730.53 370.09 727.69 348.83 727.69"/>
  </g>
  <path class="st1" d="M539.31,649.68h-35.43v-21.26h-45.35v21.26h-35.44v116.21h35.44v21.26h45.35v-21.26h35.43v-116.21ZM461.36,631.26h39.69v39.69h-39.69v-39.69ZM501.04,784.32h-39.69v-39.69h39.69v39.69ZM536.47,763.06h-32.6v-21.26h-45.35v21.26h-32.61v-110.55h32.61v21.26h45.35v-21.26h32.6v110.55Z"/>
  <path class="st1" d="M369.51,327.22h-116.22v116.22h35.44v21.26h45.35v-21.26h35.43v-116.22ZM331.24,461.87h-39.69v-39.69h39.69v39.69ZM366.67,440.61h-32.6v-21.26h-45.35v21.26h-32.6v-110.56h110.56v110.56Z"/>
  <path class="st1" d="M499.71,327.22v-21.26h-45.35v21.26h-35.44v116.22h116.22v-116.22h-35.43ZM457.19,308.8h39.69v39.69h-39.69v-39.69ZM532.3,440.61h-110.56v-110.56h32.61v21.26h45.35v-21.26h32.6v110.56Z"/>
  <path class="st1" d="M167.03,221.34c-1.03,0-2.07.1-3.09.24-9.08-21.7-30-35.67-53.61-35.67-32.04,0-58.11,26.07-58.11,58.11s26.07,58.11,58.11,58.11c23.61,0,44.53-13.97,53.61-35.67,1.02.14,2.05.24,3.09.24,12.5,0,22.68-10.17,22.68-22.68s-10.17-22.68-22.68-22.68ZM110.33,299.29c-30.48,0-55.27-24.79-55.27-55.27s24.79-55.27,55.27-55.27c22.27,0,42.02,13.05,50.78,33.38-.05.01-.1.03-.15.05-.26.07-.51.16-.77.24-.36.11-.73.23-1.08.36-.26.1-.51.21-.77.31-.34.14-.68.28-1.01.43-.25.12-.5.25-.75.38-.32.16-.63.33-.94.51-.24.14-.48.29-.72.44-.3.19-.59.38-.88.58-.23.16-.46.33-.68.5-.28.21-.55.42-.82.64-.22.18-.43.37-.64.56-.26.23-.51.46-.75.71-.2.2-.4.4-.59.61-.24.25-.47.5-.69.76-.19.21-.37.43-.54.65-.21.27-.42.54-.62.82-.17.23-.33.46-.49.69-.19.29-.37.58-.55.88-.15.24-.29.48-.43.73-.17.3-.33.62-.48.93-.13.25-.25.5-.37.75-.15.32-.28.65-.41.98-.1.26-.21.51-.3.77-.12.34-.23.69-.33,1.05-.08.26-.16.51-.23.78-.1.37-.17.75-.25,1.13-.05.25-.11.5-.16.75-.07.42-.12.86-.17,1.29-.02.22-.06.43-.08.64-.06.65-.09,1.31-.09,1.97s.03,1.32.09,1.97c.02.22.06.43.08.65.05.43.1.86.17,1.28.04.25.11.5.16.75.08.38.15.76.25,1.13.07.26.16.52.23.78.11.35.21.7.33,1.04.09.26.2.52.31.78.13.33.26.66.41.98.12.26.25.51.37.77.15.31.31.61.48.91.14.25.29.5.44.74.18.29.35.58.54.86.16.24.33.48.5.71.2.27.4.54.61.8.18.23.37.45.56.68.22.25.44.5.66.74.2.22.41.43.62.63.24.23.48.45.72.67.22.2.45.4.68.59.25.21.51.41.78.61.24.18.48.36.73.53.27.19.55.37.83.54.25.16.51.32.77.48.29.17.58.32.88.48.27.14.53.28.8.41.31.15.63.27.94.41.27.11.55.23.83.34.33.12.68.23,1.02.34.28.09.55.18.83.26.05.01.09.03.14.04-8.76,20.34-28.51,33.38-50.78,33.38ZM167.03,263.86c-1.24,0-2.49-.12-3.71-.36-9.35-1.76-16.13-9.95-16.13-19.49,0-.6.03-1.19.08-1.77.06-.69.17-1.37.3-2.04,1.53-7.84,7.68-14.16,15.76-15.68,1.21-.24,2.46-.35,3.7-.35,10.94,0,19.84,8.9,19.84,19.84s-8.9,19.84-19.84,19.84Z"/>
  <path class="st1" d="M131.59,488.48c-23.62,0-44.53,13.97-53.6,35.67-1.02-.14-2.05-.24-3.09-.24-12.5,0-22.68,10.17-22.68,22.68s10.17,22.68,22.68,22.68c1.04,0,2.07-.1,3.09-.24,9.08,21.71,29.99,35.68,53.6,35.68,32.05,0,58.12-26.07,58.12-58.12s-26.07-58.11-58.12-58.11ZM55.06,546.59c0-10.94,8.9-19.84,19.84-19.84,1.25,0,2.5.12,3.71.36,9.35,1.76,16.13,9.95,16.13,19.49,0,1.19-.11,2.36-.31,3.5-1.43,7.98-7.64,14.45-15.83,15.99h0c-1.2.24-2.44.35-3.7.35-10.94,0-19.84-8.9-19.84-19.84ZM131.59,601.87c-22.27,0-42.02-13.05-50.77-33.39.05-.01.1-.03.15-.05.26-.07.51-.16.76-.24.37-.11.73-.23,1.09-.36.26-.1.51-.21.76-.31.34-.14.68-.28,1.01-.43.25-.12.5-.25.75-.38.32-.16.63-.33.94-.51.25-.14.48-.29.72-.45.3-.19.59-.37.87-.57.23-.16.46-.33.69-.51.27-.21.55-.42.81-.64.22-.18.43-.37.65-.56.26-.23.51-.46.75-.7.2-.2.4-.4.6-.61.23-.25.46-.5.69-.76.19-.22.37-.43.55-.66.21-.27.42-.54.62-.82.17-.23.33-.46.49-.69.19-.29.37-.58.55-.87.15-.24.29-.48.43-.73.17-.3.33-.62.48-.93.13-.25.25-.5.37-.76.15-.32.28-.65.41-.98.1-.26.21-.51.3-.77.12-.34.23-.7.33-1.05.08-.26.16-.51.23-.78.1-.37.17-.75.25-1.13.05-.25.11-.5.16-.75.07-.42.12-.86.17-1.29.02-.21.06-.43.08-.64.06-.65.09-1.31.09-1.97s-.03-1.32-.09-1.97c-.02-.22-.06-.43-.08-.65-.05-.43-.1-.86-.17-1.28-.04-.25-.11-.5-.16-.75-.08-.38-.16-.76-.25-1.13-.07-.26-.15-.52-.23-.78-.11-.35-.21-.7-.33-1.04-.09-.26-.2-.52-.3-.78-.13-.33-.26-.66-.41-.98-.12-.26-.25-.51-.37-.76-.15-.31-.31-.62-.48-.92-.14-.25-.29-.5-.44-.74-.18-.29-.35-.58-.54-.86-.16-.24-.33-.48-.5-.71-.2-.27-.4-.54-.6-.8-.18-.23-.37-.46-.57-.68-.22-.25-.44-.49-.66-.73-.2-.22-.41-.43-.63-.64-.23-.23-.47-.45-.71-.67-.22-.2-.45-.4-.68-.59-.25-.21-.51-.41-.77-.6-.24-.18-.48-.37-.73-.54-.27-.19-.54-.36-.82-.54-.26-.16-.51-.33-.78-.48-.28-.16-.58-.32-.87-.47-.27-.14-.54-.28-.82-.41-.31-.14-.62-.27-.93-.4-.28-.12-.55-.24-.83-.34-.34-.12-.68-.23-1.02-.34-.27-.09-.54-.18-.82-.26-.05-.01-.1-.03-.14-.05,8.75-20.33,28.5-33.38,50.77-33.38,30.48,0,55.28,24.79,55.28,55.27s-24.8,55.28-55.28,55.28Z"/>
  <path class="st1" d="M188.29,685.17c-1.04,0-2.07.1-3.09.24-9.08-21.7-30-35.67-53.61-35.67s-44.53,13.97-53.6,35.67c-1.02-.14-2.05-.24-3.09-.24-12.5,0-22.68,10.17-22.68,22.68s10.17,22.68,22.68,22.68c1.04,0,2.07-.1,3.09-.24,9.08,21.71,29.99,35.68,53.6,35.68s44.53-13.97,53.61-35.68c1.02.14,2.05.24,3.09.24,12.5,0,22.68-10.17,22.68-22.68s-10.17-22.68-22.68-22.68ZM55.06,707.85c0-10.94,8.9-19.84,19.84-19.84,1.25,0,2.5.12,3.71.36,9.35,1.76,16.13,9.95,16.13,19.49,0,1.19-.11,2.36-.31,3.5-1.43,7.98-7.64,14.45-15.83,15.99h0c-1.2.23-2.44.35-3.7.35-10.94,0-19.84-8.9-19.84-19.84ZM131.59,763.13c-22.27,0-42.02-13.05-50.77-33.39.05-.01.1-.03.15-.05.26-.07.51-.16.76-.24.37-.11.73-.23,1.09-.36.26-.1.51-.21.77-.31.34-.14.68-.28,1-.43.26-.12.5-.25.75-.38.31-.16.63-.33.93-.5.25-.14.49-.3.73-.45.29-.18.58-.37.87-.57.24-.17.47-.34.7-.51.27-.21.54-.41.8-.63.22-.18.44-.37.65-.57.25-.23.5-.46.74-.69.21-.2.41-.41.61-.62.23-.25.46-.5.68-.75.19-.22.37-.44.55-.66.21-.26.41-.53.61-.81.17-.23.34-.47.5-.71.19-.28.37-.57.55-.86.15-.25.3-.49.44-.74.17-.3.32-.61.48-.92.13-.25.26-.51.37-.77.14-.32.27-.65.4-.97.1-.26.21-.52.31-.78.12-.34.22-.69.33-1.04.08-.26.17-.52.24-.79.1-.37.17-.75.25-1.12.05-.25.12-.5.16-.75.07-.42.12-.85.17-1.28.03-.22.06-.43.08-.65.06-.65.09-1.31.09-1.97s-.03-1.32-.09-1.97c-.02-.22-.06-.43-.08-.65-.05-.43-.1-.86-.17-1.28-.04-.25-.11-.5-.16-.75-.08-.38-.15-.75-.25-1.12-.07-.26-.16-.52-.23-.78-.11-.35-.21-.7-.33-1.04-.09-.26-.2-.52-.31-.78-.13-.33-.26-.65-.4-.97-.12-.26-.25-.51-.38-.77-.15-.31-.31-.61-.47-.91-.14-.25-.29-.5-.44-.75-.17-.29-.35-.57-.54-.85-.16-.24-.34-.48-.51-.72-.2-.27-.39-.53-.6-.79-.19-.23-.38-.46-.57-.68-.21-.25-.43-.49-.66-.73-.21-.22-.42-.43-.63-.64-.23-.23-.47-.45-.71-.66-.23-.2-.45-.4-.69-.6-.25-.21-.5-.4-.76-.6-.24-.18-.49-.37-.74-.54-.27-.19-.54-.36-.81-.53-.26-.16-.52-.33-.78-.48-.28-.16-.58-.32-.87-.47-.27-.14-.54-.28-.81-.41-.31-.14-.62-.27-.94-.4-.28-.11-.55-.23-.83-.34-.34-.13-.69-.23-1.03-.34-.27-.09-.54-.18-.81-.25-.05-.01-.1-.03-.15-.05,8.75-20.33,28.5-33.38,50.77-33.38s42.02,13.05,50.78,33.38c-.05.01-.1.03-.15.05-.25.07-.49.15-.74.23-.37.12-.75.23-1.11.37-.25.09-.5.2-.75.31-.34.14-.69.28-1.02.44-.25.12-.49.25-.74.37-.32.17-.64.33-.95.51-.24.14-.47.29-.71.44-.3.19-.6.38-.89.58-.23.16-.45.33-.68.5-.28.21-.55.42-.82.65-.22.18-.43.36-.64.55-.26.23-.51.47-.76.71-.2.2-.4.4-.59.6-.24.25-.47.51-.69.77-.18.21-.36.43-.54.65-.22.27-.42.55-.63.83-.17.23-.33.45-.49.69-.19.29-.38.58-.56.88-.15.24-.29.48-.43.72-.17.31-.33.62-.49.93-.12.25-.25.5-.37.75-.15.32-.28.66-.41.99-.1.26-.21.51-.3.77-.12.34-.23.7-.33,1.05-.08.26-.16.51-.23.77-.1.37-.17.75-.25,1.13-.05.25-.11.49-.16.75-.07.42-.12.86-.17,1.29-.02.21-.06.43-.08.64-.06.65-.09,1.31-.09,1.97s.03,1.32.09,1.97c.02.22.06.43.08.65.05.43.1.86.17,1.28.04.25.11.5.16.75.08.38.16.76.25,1.13.07.26.16.52.23.78.11.35.21.7.33,1.04.09.27.2.52.31.79.13.33.26.65.4.97.12.26.25.51.38.77.15.31.31.61.47.91.14.25.29.5.44.75.18.29.35.57.54.85.16.24.33.48.51.72.2.27.39.53.6.79.18.23.37.46.57.68.22.25.44.49.66.73.2.22.41.43.62.64.23.23.47.45.72.67.22.2.45.4.68.59.25.21.51.41.77.61.24.18.48.36.73.54.27.19.55.36.82.54.26.16.51.32.77.48.29.17.58.32.88.47.27.14.53.28.81.41.31.15.62.27.94.41.28.11.55.23.83.34.34.12.68.23,1.02.34.27.09.54.18.82.26.05.01.09.03.14.04-8.76,20.34-28.52,33.39-50.78,33.39ZM188.29,727.69c-1.24,0-2.49-.12-3.71-.36-9.35-1.76-16.13-9.95-16.13-19.49,0-1.19.11-2.36.31-3.5,1.43-7.98,7.64-14.45,15.83-15.99,1.21-.24,2.46-.35,3.7-.35,10.94,0,19.84,8.9,19.84,19.84s-8.9,19.84-19.84,19.84Z"/>
  <path class="st1" d="M369.51,546.59c0-32.04-26.07-58.11-58.11-58.11s-58.12,26.07-58.12,58.11c0,23.61,13.97,44.53,35.67,53.62-.14,1.03-.23,2.06-.23,3.08,0,12.5,10.17,22.68,22.68,22.68s22.68-10.17,22.68-22.68c0-1.04-.1-2.07-.24-3.09,21.7-9.08,35.67-30,35.67-53.61ZM311.4,623.13c-10.94,0-19.84-8.9-19.84-19.84,0-1.23.12-2.48.34-3.71,1.77-9.35,9.97-16.14,19.5-16.14,1.19,0,2.36.11,3.5.31,7.98,1.43,14.45,7.65,15.99,15.83.24,1.21.35,2.46.35,3.7,0,10.94-8.9,19.84-19.84,19.84ZM333.29,597.37c-.01-.05-.03-.1-.05-.15-.07-.25-.16-.5-.23-.75-.12-.37-.23-.74-.36-1.1-.1-.26-.2-.51-.31-.76-.14-.34-.28-.68-.44-1.01-.12-.25-.25-.5-.38-.74-.16-.32-.33-.64-.51-.94-.14-.24-.29-.48-.44-.71-.19-.3-.38-.59-.58-.88-.16-.23-.33-.46-.5-.68-.21-.28-.42-.55-.64-.82-.18-.22-.37-.43-.55-.64-.23-.26-.47-.51-.71-.76-.2-.2-.4-.4-.6-.59-.25-.24-.51-.47-.77-.69-.21-.18-.43-.37-.65-.54-.27-.22-.54-.42-.82-.63-.23-.17-.46-.33-.69-.49-.29-.19-.58-.38-.88-.56-.24-.15-.48-.29-.72-.43-.31-.17-.62-.33-.93-.48-.25-.12-.5-.25-.75-.37-.32-.15-.66-.28-.99-.41-.26-.1-.51-.21-.77-.3-.35-.12-.7-.23-1.05-.33-.26-.08-.51-.16-.77-.23-.37-.1-.76-.18-1.14-.25-.25-.05-.49-.11-.74-.16-.42-.07-.86-.12-1.29-.17-.21-.02-.43-.06-.64-.08-.65-.06-1.31-.09-1.97-.09s-1.32.03-1.97.09c-.22.02-.43.06-.64.08-.43.05-.86.1-1.29.17-.25.04-.5.11-.75.16-.38.08-.76.16-1.13.25-.26.07-.51.15-.77.23-.35.11-.71.21-1.05.33-.26.09-.51.2-.77.3-.33.13-.67.26-.99.41-.25.11-.5.24-.75.37-.32.16-.63.32-.94.49-.24.14-.48.28-.72.43-.3.18-.59.37-.88.56-.23.16-.46.32-.68.48-.28.21-.56.41-.83.63-.22.17-.43.35-.64.53-.26.23-.52.46-.78.7-.2.19-.4.38-.59.58-.25.25-.48.51-.72.77-.19.21-.37.41-.55.63-.23.27-.44.55-.65.83-.17.22-.33.44-.49.67-.2.29-.4.59-.59.89-.15.23-.3.46-.43.7-.18.31-.35.63-.52.96-.13.24-.26.48-.37.73-.16.33-.3.68-.44,1.02-.1.25-.21.5-.31.76-.13.35-.24.72-.36,1.08-.08.26-.17.51-.24.77-.01.05-.03.09-.04.14-20.34-8.76-33.39-28.52-33.39-50.78,0-30.48,24.8-55.27,55.28-55.27s55.27,24.79,55.27,55.27c0,22.27-13.05,42.02-33.38,50.78Z"/>
  <path class="st1" d="M499.47,492.99c.14-1.02.24-2.05.24-3.09,0-12.5-10.17-22.68-22.68-22.68s-22.68,10.17-22.68,22.68c0,1.03.09,2.06.23,3.08-21.71,9.09-35.67,30-35.67,53.61,0,32.05,26.07,58.12,58.12,58.12s58.11-26.07,58.11-58.12c0-23.62-13.97-44.53-35.67-53.6ZM477.03,470.06c10.94,0,19.84,8.9,19.84,19.84,0,1.25-.12,2.5-.36,3.71-1.76,9.35-9.95,16.13-19.49,16.13-1.79,0-3.53-.24-5.19-.69-.78-.21-1.54-.49-2.28-.79-4.51-1.84-8.24-5.28-10.39-9.7-.75-1.54-1.31-3.21-1.64-4.96-.23-1.23-.35-2.48-.35-3.71,0-10.94,8.9-19.84,19.84-19.84ZM477.03,601.87c-30.48,0-55.28-24.8-55.28-55.28,0-22.26,13.05-42.01,33.39-50.77.01.05.03.09.05.14.07.27.16.52.25.78.11.36.22.72.35,1.07.1.26.21.52.32.78.14.33.28.67.43.99.12.26.25.5.38.75.16.31.33.63.5.93.14.25.29.48.45.72.19.3.38.59.57.87.16.23.33.46.5.69.21.28.42.55.64.81.18.22.37.43.56.64.23.26.46.51.7.75.2.2.4.4.61.6.25.24.5.47.76.69.21.19.43.37.65.54.27.21.54.42.82.62.23.17.46.33.69.49.29.19.58.37.87.55.24.15.48.29.73.43.3.17.62.33.93.48.25.12.5.25.75.37.32.15.66.28.99.41.26.1.51.21.77.3.35.12.7.23,1.05.33.26.08.51.16.77.23.37.1.76.18,1.14.25.25.05.49.11.74.16.42.07.86.12,1.29.17.21.02.43.06.64.08.65.06,1.31.09,1.97.09s1.32-.03,1.97-.09c.22-.02.43-.06.65-.08.43-.05.86-.1,1.28-.17.25-.04.5-.11.75-.16.38-.08.75-.15,1.13-.25.27-.07.52-.16.79-.24.35-.11.7-.21,1.04-.33.27-.09.53-.2.79-.31.32-.13.65-.26.97-.4.26-.12.52-.25.78-.38.3-.15.61-.3.9-.47.26-.14.5-.29.75-.45.29-.17.57-.35.85-.54.25-.17.49-.34.72-.51.27-.19.53-.39.78-.6.23-.19.46-.38.69-.58.25-.21.49-.43.72-.65.22-.21.44-.42.65-.64.23-.23.44-.47.66-.7.2-.23.41-.46.6-.69.2-.25.4-.5.59-.76.19-.24.37-.49.55-.74.18-.26.36-.54.53-.81.17-.26.33-.52.48-.79.16-.28.31-.57.47-.86.14-.27.29-.54.42-.82.14-.31.27-.62.4-.93.12-.28.24-.55.34-.83.12-.34.23-.68.34-1.03.09-.27.18-.54.25-.81.01-.05.03-.1.05-.15,20.33,8.75,33.38,28.5,33.38,50.77,0,30.48-24.79,55.28-55.27,55.28Z"/>
</svg>
