<?xml version="1.0" encoding="UTF-8"?>
<svg id="_Слой_1" data-name="Слой_1" xmlns="http://www.w3.org/2000/svg" version="1.1" viewBox="50 180 140 130">
  <!-- Generator: Adobe Illustrator 29.0.0, SVG Export Plug-In . SVG Version: 2.1.0 Build 186)  -->
  <defs>
    <style>
      .st1 {
        fill: #1d1d1b;
      }
    </style>
  </defs>
  <path class="st1" d="M167.03,221.34c-1.03,0-2.07.1-3.09.24-9.08-21.7-30-35.67-53.61-35.67-32.04,0-58.11,26.07-58.11,58.11s26.07,58.11,58.11,58.11c23.61,0,44.53-13.97,53.61-35.67,1.02.14,2.05.24,3.09.24,12.5,0,22.68-10.17,22.68-22.68s-10.17-22.68-22.68-22.68ZM110.33,299.29c-30.48,0-55.27-24.79-55.27-55.27s24.79-55.27,55.27-55.27c22.27,0,42.02,13.05,50.78,33.38-.05.01-.1.03-.15.05-.26.07-.51.16-.77.24-.36.11-.73.23-1.08.36-.26.1-.51.21-.77.31-.34.14-.68.28-1.01.43-.25.12-.5.25-.75.38-.32.16-.63.33-.94.51-.24.14-.48.29-.72.44-.3.19-.59.38-.88.58-.23.16-.46.33-.68.5-.28.21-.55.42-.82.64-.22.18-.43.37-.64.56-.26.23-.51.46-.75.71-.2.2-.4.4-.59.61-.24.25-.47.5-.69.76-.19.21-.37.43-.54.65-.21.27-.42.54-.62.82-.17.23-.33.46-.49.69-.19.29-.37.58-.55.88-.15.24-.29.48-.43.73-.17.3-.33.62-.48.93-.13.25-.25.5-.37.75-.15.32-.28.65-.41.98-.1.26-.21.51-.3.77-.12.34-.23.69-.33,1.05-.08.26-.16.51-.23.78-.1.37-.17.75-.25,1.13-.05.25-.11.5-.16.75-.07.42-.12.86-.17,1.29-.02.22-.06.43-.08.64-.06.65-.09,1.31-.09,1.97s.03,1.32.09,1.97c.02.22.06.43.08.65.05.43.1.86.17,1.28.04.25.11.5.16.75.08.38.15.76.25,1.13.07.26.16.52.23.78.11.35.21.7.33,1.04.09.26.2.52.31.78.13.33.26.66.41.98.12.26.25.51.37.77.15.31.31.61.48.91.14.25.29.5.44.74.18.29.35.58.54.86.16.24.33.48.5.71.2.27.4.54.61.8.18.23.37.45.56.68.22.25.44.5.66.74.2.22.41.43.62.63.24.23.48.45.72.67.22.2.45.4.68.59.25.21.51.41.78.61.24.18.48.36.73.53.27.19.55.37.83.54.25.16.51.32.77.48.29.17.58.32.88.48.27.14.53.28.8.41.31.15.63.27.94.41.27.11.55.23.83.34.33.12.68.23,1.02.34.28.09.55.18.83.26.05.01.09.03.14.04-8.76,20.34-28.51,33.38-50.78,33.38ZM167.03,263.86c-1.24,0-2.49-.12-3.71-.36-9.35-1.76-16.13-9.95-16.13-19.49,0-.6.03-1.19.08-1.77.06-.69.17-1.37.3-2.04,1.53-7.84,7.68-14.16,15.76-15.68,1.21-.24,2.46-.35,3.7-.35,10.94,0,19.84,8.9,19.84,19.84s-8.9,19.84-19.84,19.84Z"/>
</svg>
