<?xml version="1.0" encoding="UTF-8"?>
<svg id="_Слой_1" data-name="Слой_1" xmlns="http://www.w3.org/2000/svg" version="1.1" viewBox="50 645 170 130">
  <!-- Generator: Adobe Illustrator 29.0.0, SVG Export Plug-In . SVG Version: 2.1.0 Build 186)  -->
  <defs>
    <style>
      .st1 {
        fill: #1d1d1b;
      }
    </style>
  </defs>
  <path class="st1" d="M188.29,685.17c-1.04,0-2.07.1-3.09.24-9.08-21.7-30-35.67-53.61-35.67s-44.53,13.97-53.6,35.67c-1.02-.14-2.05-.24-3.09-.24-12.5,0-22.68,10.17-22.68,22.68s10.17,22.68,22.68,22.68c1.04,0,2.07-.1,3.09-.24,9.08,21.71,29.99,35.68,53.6,35.68s44.53-13.97,53.61-35.68c1.02.14,2.05.24,3.09.24,12.5,0,22.68-10.17,22.68-22.68s-10.17-22.68-22.68-22.68ZM55.06,707.85c0-10.94,8.9-19.84,19.84-19.84,1.25,0,2.5.12,3.71.36,9.35,1.76,16.13,9.95,16.13,19.49,0,1.19-.11,2.36-.31,3.5-1.43,7.98-7.64,14.45-15.83,15.99h0c-1.2.23-2.44.35-3.7.35-10.94,0-19.84-8.9-19.84-19.84ZM131.59,763.13c-22.27,0-42.02-13.05-50.77-33.39.05-.01.1-.03.15-.05.26-.07.51-.16.76-.24.37-.11.73-.23,1.09-.36.26-.1.51-.21.77-.31.34-.14.68-.28,1-.43.26-.12.5-.25.75-.38.31-.16.63-.33.93-.5.25-.14.49-.3.73-.45.29-.18.58-.37.87-.57.24-.17.47-.34.7-.51.27-.21.54-.41.8-.63.22-.18.44-.37.65-.57.25-.23.5-.46.74-.69.21-.2.41-.41.61-.62.23-.25.46-.5.68-.75.19-.22.37-.44.55-.66.21-.26.41-.53.61-.81.17-.23.34-.47.5-.71.19-.28.37-.57.55-.86.15-.25.3-.49.44-.74.17-.3.32-.61.48-.92.13-.25.26-.51.37-.77.14-.32.27-.65.4-.97.1-.26.21-.52.31-.78.12-.34.22-.69.33-1.04.08-.26.17-.52.24-.79.1-.37.17-.75.25-1.12.05-.25.12-.5.16-.75.07-.42.12-.85.17-1.28.03-.22.06-.43.08-.65.06-.65.09-1.31.09-1.97s-.03-1.32-.09-1.97c-.02-.22-.06-.43-.08-.65-.05-.43-.1-.86-.17-1.28-.04-.25-.11-.5-.16-.75-.08-.38-.15-.75-.25-1.12-.07-.26-.16-.52-.23-.78-.11-.35-.21-.7-.33-1.04-.09-.26-.2-.52-.31-.78-.13-.33-.26-.65-.4-.97-.12-.26-.25-.51-.38-.77-.15-.31-.31-.61-.47-.91-.14-.25-.29-.5-.44-.75-.17-.29-.35-.57-.54-.85-.16-.24-.34-.48-.51-.72-.2-.27-.39-.53-.6-.79-.19-.23-.38-.46-.57-.68-.21-.25-.43-.49-.66-.73-.21-.22-.42-.43-.63-.64-.23-.23-.47-.45-.71-.66-.23-.2-.45-.4-.69-.6-.25-.21-.5-.4-.76-.6-.24-.18-.49-.37-.74-.54-.27-.19-.54-.36-.81-.53-.26-.16-.52-.33-.78-.48-.28-.16-.58-.32-.87-.47-.27-.14-.54-.28-.81-.41-.31-.14-.62-.27-.94-.4-.28-.11-.55-.23-.83-.34-.34-.13-.69-.23-1.03-.34-.27-.09-.54-.18-.81-.25-.05-.01-.1-.03-.15-.05,8.75-20.33,28.5-33.38,50.77-33.38s42.02,13.05,50.78,33.38c-.05.01-.1.03-.15.05-.25.07-.49.15-.74.23-.37.12-.75.23-1.11.37-.25.09-.5.2-.75.31-.34.14-.69.28-1.02.44-.25.12-.49.25-.74.37-.32.17-.64.33-.95.51-.24.14-.47.29-.71.44-.3.19-.6.38-.89.58-.23.16-.45.33-.68.5-.28.21-.55.42-.82.65-.22.18-.43.36-.64.55-.26.23-.51.47-.76.71-.2.2-.4.4-.59.6-.24.25-.47.51-.69.77-.18.21-.36.43-.54.65-.22.27-.42.55-.63.83-.17.23-.33.45-.49.69-.19.29-.38.58-.56.88-.15.24-.29.48-.43.72-.17.31-.33.62-.49.93-.12.25-.25.5-.37.75-.15.32-.28.66-.41.99-.1.26-.21.51-.3.77-.12.34-.23.7-.33,1.05-.08.26-.16.51-.23.77-.1.37-.17.75-.25,1.13-.05.25-.11.49-.16.75-.07.42-.12.86-.17,1.29-.02.21-.06.43-.08.64-.06.65-.09,1.31-.09,1.97s.03,1.32.09,1.97c.02.22.06.43.08.65.05.43.1.86.17,1.28.04.25.11.5.16.75.08.38.16.76.25,1.13.07.26.16.52.23.78.11.35.21.7.33,1.04.09.27.2.52.31.79.13.33.26.65.4.97.12.26.25.51.38.77.15.31.31.61.47.91.14.25.29.5.44.75.18.29.35.57.54.85.16.24.33.48.51.72.2.27.39.53.6.79.18.23.37.46.57.68.22.25.44.49.66.73.2.22.41.43.62.64.23.23.47.45.72.67.22.2.45.4.68.59.25.21.51.41.77.61.24.18.48.36.73.54.27.19.55.36.82.54.26.16.51.32.77.48.29.17.58.32.88.47.27.14.53.28.81.41.31.15.62.27.94.41.28.11.55.23.83.34.34.12.68.23,1.02.34.27.09.54.18.82.26.05.01.09.03.14.04-8.76,20.34-28.52,33.39-50.78,33.39ZM188.29,727.69c-1.24,0-2.49-.12-3.71-.36-9.35-1.76-16.13-9.95-16.13-19.49,0-1.19.11-2.36.31-3.5,1.43-7.98,7.64-14.45,15.83-15.99,1.21-.24,2.46-.35,3.7-.35,10.94,0,19.84,8.9,19.84,19.84s-8.9,19.84-19.84,19.84Z"/>
</svg>
