<?xml version="1.0" encoding="UTF-8"?>
<svg id="b" data-name="Layer 2" xmlns="http://www.w3.org/2000/svg" width="112.882" height="200.381" viewBox="0 0 112.882 200.381">
  <g id="c" data-name="OBJECTS">
    <g id="d" data-name="Alpaca Outline">
      <g id="e" data-name="path385">
        <path d="M88.763,197.345c-1.351,0-2.699-.256-3.727-.635-2.723-.858-3.89-11.66-4.182-14.949-.032-.362.234-.681.596-.713.371-.043.681.233.713.596.562,6.325,1.983,13.408,3.299,13.823,2.543.938,6.089.78,7.155-.929.909-1.452,1.491-10.439,1.645-15.763.011-.363.295-.638.676-.639.363.011.648.313.639.676-.042,1.446-.448,14.19-1.844,16.423-.968,1.549-2.971,2.109-4.97,2.109Z" fill="#000" stroke-width="0"/>
      </g>
      <g id="f" data-name="path386">
        <path d="M87.323,191.627c-1.894,0-3.608-.27-4.56-.881-.306-.196-.394-.603-.197-.908.196-.305.601-.396.908-.197,1.654,1.064,7.474.809,10.379-.452.329-.146.72.007.864.341.145.333-.008.72-.341.864-1.763.767-4.562,1.233-7.054,1.233Z" fill="#000" stroke-width="0"/>
      </g>
      <g id="g" data-name="path387">
        <path d="M87.534,197.148c-.209,0-.412-.101-.537-.288-.384-.575-.35-1.589-.312-2.764.028-.873.064-1.96-.145-2.429-.147-.332.002-.721.333-.868.33-.145.72.002.868.333.331.745.294,1.896.257,3.007-.021.656-.058,1.754.092,1.992.19.305.106.714-.195.909-.112.072-.238.107-.361.107Z" fill="#000" stroke-width="0"/>
      </g>
      <g id="h" data-name="path382">
        <path d="M72.825,197.561c-1.532,0-3.114-.358-4.31-.862-2.59-1.15-3.425-11.604-3.619-14.78-.022-.362.254-.674.616-.696.367-.028.674.254.696.616.375,6.129,1.563,13.092,2.828,13.654,2.217.934,5.977,1.256,7.237-.576,1.012-1.38,1.814-7.943,2.109-12.022.025-.362.347-.627.703-.607.361.026.634.341.607.703-.077,1.077-.805,10.584-2.348,12.688-.945,1.376-2.698,1.884-4.521,1.884Z" fill="#000" stroke-width="0"/>
      </g>
      <g id="i" data-name="path383">
        <path d="M72.168,191.735c-2.273,0-4.423-.355-5.522-1.141-.296-.211-.364-.622-.153-.917.212-.294.624-.362.917-.153,1.66,1.186,7.288,1.215,10.384.054.339-.125.719.044.846.385.128.34-.045.719-.385.846-1.589.596-3.895.927-6.086.927Z" fill="#000" stroke-width="0"/>
      </g>
      <g id="j" data-name="path384">
        <path d="M71.18,197.285c-.24,0-.47-.131-.584-.36-.264-.527-.225-1.343-.139-2.628.062-.939.134-2.005-.037-2.574-.104-.348.094-.714.441-.818.346-.104.714.093.818.441.239.797.163,1.937.089,3.039-.045.681-.114,1.71.003,1.952.157.325.024.721-.3.88-.095.046-.194.068-.292.068Z" fill="#000" stroke-width="0"/>
      </g>
      <g id="k" data-name="path379">
        <path d="M56.769,200.381c-1.835,0-3.724-.415-5.144-.996-3.185-1.303-3.677-12.722-3.743-14.997-.011-.363.275-.666.638-.677.396.016.665.276.677.638.155,5.305,1.166,13.099,2.927,13.819,2.732,1.119,7.383,1.49,9.011-.721,1.445-1.963,2.327-11.003,2.545-14.32.024-.362.337-.638.699-.613s.637.337.613.699c-.083,1.26-.863,12.387-2.799,15.014-1.159,1.574-3.255,2.154-5.424,2.154Z" fill="#000" stroke-width="0"/>
      </g>
      <g id="l" data-name="path380">
        <path d="M55.84,193.412c-2.742,0-5.316-.417-6.625-1.341-.297-.209-.367-.619-.158-.916s.619-.367.916-.158c2.049,1.446,9.062,1.477,12.938.054.343-.124.719.051.844.391.125.341-.05.719-.391.844-1.973.724-4.829,1.127-7.524,1.127Z" fill="#000" stroke-width="0"/>
      </g>
      <g id="m" data-name="path381">
        <path d="M54.826,200.103c-.205,0-.407-.096-.536-.275-.483-.676-.396-1.928-.297-3.378.074-1.082.158-2.31-.061-2.965-.114-.345.072-.717.416-.832.349-.115.717.072.832.416.3.902.21,2.208.124,3.471-.062.889-.153,2.231.056,2.524.211.295.143.705-.153.917-.115.082-.249.122-.381.122Z" fill="#000" stroke-width="0"/>
      </g>
      <g id="n" data-name="path376">
        <path d="M32.905,199.223c-1.994,0-4.087-.514-5.573-1.189-3.189-1.45-2.928-13.731-2.844-16.178.013-.355.305-.635.657-.635h.022c.363.013.646.317.635.68-.198,5.721.314,14.136,2.073,14.936,2.636,1.2,7.357,1.766,8.998-.342,1.444-1.858,2.659-10.793,3.006-14.079.037-.36.363-.639.723-.584.36.038.622.361.584.722-.131,1.248-1.339,12.258-3.275,14.748-1.089,1.4-2.998,1.922-5.006,1.922Z" fill="#000" stroke-width="0"/>
      </g>
      <g id="o" data-name="path375">
        <path d="M107.509,143.913c-.236,0-.465-.128-.583-.352-.169-.321-.045-.719.276-.888,2.449-1.289,4.022-3.332,4.315-5.604.276-2.142-.639-4.297-2.575-6.068-.134-.123-.212-.296-.214-.478s.07-.355.201-.481c1.982-1.906,2.929-4.668,2.302-6.718-.47-1.535-1.796-2.534-3.836-2.89-.218-.038-.402-.183-.49-.386-.089-.203-.068-.437.053-.621.635-.972.74-1.792.321-2.509-1.081-1.85-5.328-2.758-8.613-2.538-.384.034-.676-.251-.7-.612-.023-.362.251-.676.612-.7,3.729-.242,8.433.787,9.836,3.188.396.677.686,1.724.087,3.083,2.046.576,3.447,1.833,3.987,3.602.712,2.327-.178,5.351-2.174,7.561,1.928,1.979,2.814,4.35,2.507,6.736-.348,2.703-2.173,5.108-5.008,6.601-.098.051-.202.075-.305.075Z" fill="#000" stroke-width="0"/>
      </g>
      <g id="p" data-name="path374">
        <path d="M71.89,185.808c-1.798,0-3.774-.95-6.254-2.998-2.688,3.052-6.438,3.488-11.164,1.294-2.115,1.34-3.904,1.735-5.452,1.21-1.452-.493-2.621-1.77-3.55-3.888-.502.642-1.175,1.123-1.992,1.421-2.025.733-4.503.208-6.245-.692-3.689,3.524-5.922,2.972-10.594.646-1.807-.05-3.547-.949-4.916-2.545-1.965-2.29-2.965-5.748-2.604-8.919-.498-.324-.991-.628-1.469-.923-3.911-2.415-7.304-4.509-3.299-11.483-2.625-1.488-4.343-3.433-4.984-5.652-.638-2.208-.236-4.641,1.194-7.238-5.147-5.478-2.855-10.941.51-16.05-.227-.882-.482-1.656-.73-2.407-1.032-3.123-1.784-5.402,1.86-9.519-2.766-5.965-.108-10.49,3.04-14.152-2.288-3.639-.197-7.713.843-9.34.194-.305.6-.396.908-.199.306.195.395.602.199.908-.936,1.464-2.867,5.202-.592,8.291.184.249.168.593-.036.824-4.413,5.001-5.279,8.908-2.99,13.486.122.244.08.538-.104.739-3.462,3.76-2.9,5.461-1.88,8.549.269.813.573,1.735.829,2.786.043.179.01.367-.092.52-3.716,5.575-5.221,10.259-.484,14.996.212.212.254.541.101.799-1.439,2.438-1.881,4.672-1.312,6.642.588,2.032,2.294,3.823,4.937,5.18.162.084.282.231.332.407s.023.364-.071.521c-3.866,6.336-1.465,7.818,2.514,10.274.599.37,1.222.755,1.849,1.173.213.142.324.395.285.646-.449,2.92.433,6.172,2.246,8.286.817.952,2.188,2.088,4.077,2.088.103,0,.203.023.294.069,4.801,2.401,6.261,2.625,9.566-.681.214-.213.546-.254.803-.099,1.747,1.047,4.036,1.39,5.568.832.943-.343,1.59-1.002,1.921-1.959.092-.265.341-.442.621-.442h0c.281,0,.53.18.621.445.849,2.485,1.941,3.971,3.248,4.414,1.213.412,2.724-.002,4.616-1.263.192-.129.441-.147.651-.044,4.571,2.221,7.949,1.801,10.322-1.284.109-.144.274-.235.454-.254.171-.018.359.038.495.156,2.707,2.333,4.745,3.31,6.423,3.077,1.229-.172,2.317-1.002,3.327-2.538.181-.276.538-.375.834-.23,2.726,1.312,3.742.298,5.153-1.104.224-.223.45-.447.686-.666.241-.221.606-.233.86-.026,2.642,2.146,5.67,3.083,7.905,2.438,1.592-.457,2.734-1.674,3.396-3.614.085-.251.312-.426.576-.443,2.365-.165,4.35-1.274,5.586-3.123,1.354-2.023,1.649-4.627.81-7.145-.062-.19-.036-.398.073-.566l.278-.427c3.625-5.562,6.244-9.579,2.792-15.374-.101-.168-.12-.373-.054-.559,3.022-8.401,2.601-14.193-1.328-18.228-.16-.165-.223-.4-.166-.622,1.317-5.147.091-8.085-4.686-11.224-.255-.167-.361-.489-.255-.776,1.317-3.57.451-7.006-2.316-9.19-2.368-1.869-6.329-2.705-9.845-.361-.156.104-.351.138-.533.089-.182-.049-.335-.173-.419-.342-1.99-3.979-4.135-5.055-7.173-3.592-.197.096-.426.085-.616-.023-.188-.11-.31-.306-.324-.523-.065-.952-.082-2.012-.1-3.133-.028-1.77-.057-3.599-.271-5.355-.044-.36.212-.688.572-.732.366-.044.688.212.732.572.224,1.826.254,3.775.281,5.495.012.748.022,1.469.049,2.141,4.023-1.43,6.288,1.33,7.695,3.928,3.425-1.936,7.666-1.64,10.766.806,3.061,2.416,4.148,6.281,2.904,10.186,4.016,2.741,6.341,5.916,4.898,12.009,5.269,5.708,3.429,13.515,1.474,19.033,3.629,6.361.563,11.062-2.977,16.495l-.108.165c.846,2.812.465,5.705-1.062,7.985-1.392,2.081-3.567,3.371-6.158,3.664-.825,2.112-2.246,3.509-4.129,4.05-2.508.719-5.774-.168-8.64-2.323-.083.082-.166.164-.248.246-1.377,1.369-2.923,2.914-6.136,1.586-1.141,1.559-2.459,2.452-3.923,2.657-.229.031-.461.048-.696.048Z" fill="#000" stroke-width="0"/>
      </g>
      <g id="q" data-name="path350">
        <path d="M88.339,32.085c-.201,0-.399-.092-.528-.266-.217-.291-.156-.703.136-.919,6.632-4.927,7.977-13.487,7.023-19.855-.725-4.837-2.821-8.781-5.1-9.592-3.975-1.502-10.478,10.111-13.647,17.78-.139.335-.526.494-.858.356-.336-.139-.495-.523-.356-.858.889-2.151,8.858-20.941,15.315-18.513,2.79.992,5.129,5.167,5.946,10.632,1.01,6.745-.44,15.831-7.54,21.104-.117.088-.255.13-.391.13Z" fill="#000" stroke-width="0"/>
      </g>
      <g id="r" data-name="path351">
        <path d="M85.165,28.433c-.148,0-.298-.05-.421-.152-.278-.232-.316-.646-.084-.926.091-.109,9.09-11.027,5.192-15.778-.613-.746-1.158-.767-1.519-.715-3.214.45-7.785,9.484-9.275,12.927-.146.333-.534.483-.864.343-.333-.145-.486-.531-.343-.864.578-1.337,5.779-13.073,10.3-13.707.715-.102,1.767.023,2.717,1.183,4.583,5.587-4.797,16.972-5.198,17.454-.13.156-.316.236-.505.236Z" fill="#000" stroke-width="0"/>
      </g>
      <g id="s" data-name="path348">
        <path d="M9.696,31.532c-.161,0-.322-.059-.448-.177C3.321,25.819,2.191,15.737,3.65,8.712,4.596,4.157,6.502,1.059,8.877.215c6.41-2.434,14.945,16.579,15.896,18.754.146.333-.007.721-.339.866-.333.145-.72-.007-.866-.339C20.169,11.723,13.3-.072,9.33,1.449c-1.917.682-3.554,3.495-4.393,7.53-1.386,6.677-.349,16.226,5.207,21.415.266.248.28.664.032.929-.13.139-.305.209-.48.209Z" fill="#000" stroke-width="0"/>
      </g>
      <g id="t" data-name="path349">
        <path d="M13.947,26.976c-.191,0-.382-.084-.512-.245-.368-.457-8.983-11.255-5.114-15.987.626-.766,1.447-1.13,2.36-1.045,4.186.375,9.804,10.291,10.431,11.42.177.317.062.718-.255.894-.319.18-.717.062-.894-.255-1.61-2.9-6.438-10.484-9.399-10.749-.475-.036-.872.137-1.226.567-2.654,3.247,2.796,11.445,5.12,14.331.228.282.184.696-.1.924-.121.098-.267.146-.412.146Z" fill="#000" stroke-width="0"/>
      </g>
      <g id="u" data-name="path347">
        <path d="M48.985,102.47c-2.665,0-5.74-1.172-9.019-3.449-2.229,1.699-5.382,2.412-8.368,1.867-3.376-.619-6.292-2.775-8.272-6.1-2.675,1.324-6.496,1.673-8.882-.248-1.252-1.008-2.478-2.963-1.51-6.628-2.988-.38-6.511-1.874-7.906-4.512-.607-1.149-1.034-2.981.129-5.402-2.078-.656-3.91-2.663-4.725-5.269-1.104-3.53-.064-7.255,2.78-10.112-1.714-1.252-2.676-3.016-2.797-5.147-.195-3.439,1.917-7.504,5.328-10.383-1.23-.816-1.982-2.167-2.022-3.725-.037-1.423.537-4.934,6.428-7.751-1.458-1.873-1.657-4.44-.444-6.661,1.254-2.296,4.206-4.33,8.817-3.45.152-2.449,1.006-4.311,2.543-5.54,2.207-1.764,5.21-1.723,6.755-1.551-.524-3.141.787-6.241,3.387-7.779,2.328-1.381,5.065-1.094,7.341.708.686-1.604,2.285-3.527,4.585-4.039,1.93-.428,4.883.023,8.242,4.412,1.762-1.955,3.544-2.792,5.299-2.495,2.88.491,4.753,3.951,5.506,5.64,1.439-1.172,4.897-3.135,10.079-.808,2.096.961,3.392,2.312,3.856,4.016.484,1.779-.066,3.511-.565,4.585h.14c2.967,0,9.835.795,11.205,7.98,2.856.105,5.041,1.025,6.502,2.739,1.955,2.295,2.578,5.997,1.854,11.01,1.28.501,2.061,1.297,2.322,2.371.64,2.624-2.192,5.972-3.43,7.281,1.949,1.729,8.103,7.967,5.527,15.775,1.042,1.63,1.325,3.275.842,4.896-1.055,3.54-5.486,5.821-6.918,6.477.062,1.839-.286,8.195-7.718,10.928-.23,1.669-1.149,3.175-2.622,4.276-2.762,2.065-7.167,2.587-12.443,1.478-1.352,1.901-6.156,7.066-15.651,1.492-1.12,1.562-2.672,2.579-4.521,2.956-.53.107-1.082.161-1.652.161ZM39.94,97.539c.134,0,.269.041.384.124,3.831,2.755,7.307,3.915,10.052,3.357,1.688-.344,3.079-1.346,4.021-2.897.091-.15.237-.258.408-.298.173-.043.352-.013.499.08,7.414,4.59,12.43,2.427,14.651-1.131.148-.236.429-.355.702-.293,5.091,1.147,9.282.737,11.809-1.151,1.306-.978,2.047-2.273,2.142-3.747.018-.266.193-.495.445-.581,8.077-2.733,7.242-9.852,7.203-10.153-.039-.297.127-.583.404-.696.056-.022,5.538-2.286,6.592-5.828.396-1.33.117-2.655-.851-4.05-.121-.175-.15-.396-.079-.597,3.021-8.435-5.459-15.014-5.545-15.079-.152-.116-.246-.294-.258-.484-.011-.191.062-.379.199-.512,1.164-1.125,4.076-4.494,3.575-6.543-.181-.742-.823-1.269-1.965-1.608-.316-.094-.514-.408-.462-.734.788-4.894.292-8.425-1.473-10.496-1.293-1.518-3.331-2.287-6.059-2.287-.326,0-.604-.24-.65-.562-1.23-8.496-10.791-7.401-11.201-7.354-.263.029-.51-.092-.644-.312-.134-.222-.126-.502.021-.715.017-.023,1.597-2.345.981-4.587-.359-1.308-1.412-2.37-3.129-3.157-5.999-2.692-9.146,1-9.275,1.16-.151.182-.385.27-.622.229-.233-.041-.428-.203-.507-.427-.018-.052-1.87-5.188-4.86-5.695-1.441-.247-2.983.654-4.601,2.67-.13.161-.332.23-.532.245-.206-.006-.397-.108-.517-.276-2.491-3.51-5.048-5.083-7.383-4.568-2.156.479-3.653,2.653-3.905,4.037-.044.241-.217.438-.45.51-.234.074-.488.011-.661-.162-1.994-1.994-4.433-2.447-6.526-1.206-1.925,1.14-3.55,3.898-2.569,7.263.065.223.007.464-.151.633-.159.169-.396.243-.623.192-.041-.01-4.118-.888-6.65,1.142-1.373,1.102-2.069,2.893-2.069,5.324,0,.203-.094.395-.254.519-.159.125-.368.168-.565.118-4.337-1.101-7.046.636-8.135,2.629-1.081,1.98-.746,4.301.833,5.775.162.151.237.374.199.593s-.184.403-.388.491c-4.116,1.773-6.534,4.349-6.468,6.889.036,1.388.858,2.546,2.146,3.022.226.084.388.284.422.522.034.239-.064.478-.258.621-3.546,2.639-5.803,6.618-5.616,9.901.112,1.982,1.079,3.517,2.872,4.56.183.106.304.294.324.504s-.062.418-.22.558c-4.196,3.703-3.509,7.752-3.019,9.32.769,2.457,2.635,4.329,4.538,4.554.221.025.414.162.513.361.098.2.089.436-.025.627-1.095,1.84-1.271,3.49-.521,4.906,1.23,2.326,4.775,3.719,7.641,3.892.203.013.389.118.504.287.114.168.145.38.081.574-.898,2.738-.604,4.806.853,5.978,1.816,1.464,5.32,1.385,7.979-.178.152-.092.337-.115.509-.066.172.047.317.163.402.319,2.287,4.219,5.438,5.593,7.678,6.004,2.782.509,5.726-.215,7.676-1.896.122-.105.275-.159.429-.159Z" fill="#000" stroke-width="0"/>
      </g>
      <g id="v" data-name="ellipse346">
        <ellipse cx="36.72" cy="62.658" rx="3.352" ry="4.56" fill="#000" stroke-width="0"/>
      </g>
      <g id="w" data-name="ellipse347">
        <ellipse cx="61.388" cy="62.389" rx="3.352" ry="4.56" fill="#000" stroke-width="0"/>
      </g>
      <g id="x" data-name="path371">
        <ellipse cx="49.192" cy="67.217" rx="4.291" ry="1.743" fill="#000" stroke-width="0"/>
      </g>
      <g id="y" data-name="path372">
        <path d="M53.195,75.835c-.237,0-.484-.018-.743-.055-1.846-.264-2.809-1.628-3.305-3.126-.662,1.587-1.85,2.998-3.978,2.998-1.545,0-2.694-.442-3.414-1.313-1.031-1.249-.731-2.885-.718-2.954.069-.355.412-.587.77-.521.355.068.589.411.521.767-.006.035-.186,1.123.446,1.879.46.55,1.266.829,2.395.829,2.814,0,3.366-3.984,3.474-5.485.007-.346.024-.571.028-.618.03-.351.314-.636.684-.601.352.015.629.304.629.656,0,.049,0,.278-.024.628-.02,1.454.176,5.203,2.678,5.562,3.1.429,3.793-2.951,3.821-3.096.068-.357.419-.585.771-.521.356.069.589.414.521.771-.296,1.526-1.618,4.201-4.555,4.201Z" fill="#000" stroke-width="0"/>
      </g>
      <g id="z" data-name="path373">
        <path d="M47.449,90.94c-.305,0-.57-.209-.64-.507-.489-2.079-1.624-3.36-3.375-3.81-2.643-.678-6.499.769-8.772,3.295-.165.184-.417.259-.656.196-.238-.063-.422-.255-.475-.495-.451-2.067-1.516-3.532-2.919-4.02-1.279-.446-2.73-.041-4.201,1.168-.197.162-.468.195-.698.087-.229-.109-.376-.341-.376-.595,0-4.754-4.306-6.042-8.959-6.726-.246-.036-.45-.208-.528-.443-.078-.236-.017-.496.159-.672,3.05-3.051,1.196-7.973-1.095-10.492-.219-.241-.229-.606-.022-.858,2.252-2.752,2.335-5.769.241-8.726-.11-.155-.147-.351-.103-.536.045-.185.168-.341.338-.428,1.43-.737,2.238-2.003,2.401-3.764.211-2.272-.731-4.319-1.163-4.655-.266-.206-.332-.58-.155-.865.178-.286.543-.39.845-.245,3.663,1.774,5.625,1.266,8.742-2.258.144-.163.36-.248.577-.216.217.028.405.162.503.357.785,1.57,1.749,2.445,2.947,2.675,1.819.351,4.233-.797,7.157-3.407.201-.18.493-.218.731-.098,5.535,2.768,9.01,3.443,13.79-.203.229-.178.551-.182.786-.008,4.961,3.629,8.289,2.545,13.449-1.081.156-.11.354-.147.542-.099.186.048.342.175.427.348,2.61,5.337,6.834,3.417,11.722,1.197l.962-.435c.323-.147.706-.007.86.314.674,1.399.693,3.225.714,5.157.035,3.312.071,6.738,3.491,8.06.253.098.42.342.42.613,0,1.882-.355,3.69-.698,5.44-.715,3.639-1.39,7.075,1.359,10.511.157.197.188.467.079.695-.109.228-.34.372-.593.372-2.102,0-4.283.963-5.695,2.513-.817.897-1.752,2.392-1.562,4.412.021.225-.074.443-.252.581-.178.139-.414.175-.625.099-1.662-.6-3.35-.486-4.511.304-1.072.729-1.666,1.994-1.716,3.657-.007.227-.129.433-.324.547-.195.115-.435.121-.635.018-2.99-1.547-6.915-2.57-8.949-1.36-.97.576-1.457,1.625-1.49,3.204-.008.358-.3.644-.657.644h-.007c-.36-.004-.65-.297-.65-.657,0-1.874-2.239-2.291-3.201-2.384-2.873-.267-6.498.997-6.895,3.045-.06.304-.322.526-.633.532h-.013ZM42.025,85.143c.605,0,1.188.067,1.736.207,1.274.327,2.857,1.161,3.805,3.231,1.497-1.832,4.767-2.804,7.548-2.526,1.543.147,2.736.646,3.487,1.418.352-.89.927-1.574,1.722-2.047,2.395-1.422,6.348-.479,9.354.898.31-2.018,1.335-3.126,2.202-3.717,1.289-.877,3.031-1.13,4.798-.719.077-1.619.741-3.18,1.921-4.475,1.403-1.542,3.378-2.563,5.448-2.856-2.295-3.581-1.596-7.146-.917-10.603.304-1.55.617-3.146.667-4.755-3.826-1.755-3.869-5.811-3.904-9.092-.016-1.489-.031-2.91-.354-4l-.323.146c-4.641,2.107-9.876,4.487-13.091-1.143-4.262,2.922-8.352,4.814-13.972.924-4.99,3.632-8.844,2.957-14.388.239-3.103,2.688-5.771,3.836-7.946,3.424-1.362-.261-2.508-1.12-3.415-2.558-2.366,2.5-4.538,3.658-7.855,2.626.414,1.135.66,2.59.531,3.969-.18,1.939-1.032,3.46-2.479,4.439,1.927,3.109,1.806,6.368-.349,9.286,2.592,3.139,3.675,7.745,1.465,10.955,4.222.743,8.235,2.248,8.854,6.626,1.517-.926,3.075-1.17,4.474-.686,1.561.542,2.785,1.924,3.46,3.864,2.125-1.916,5.007-3.079,7.522-3.079Z" fill="#000" stroke-width="0"/>
      </g>
      <g id="aa" data-name="path377">
        <path d="M32.861,192.239c-3.108,0-6.152-.533-7.55-1.67-.282-.229-.325-.643-.096-.924.23-.282.646-.324.924-.096,1.927,1.565,8.858,1.865,12.788.557.348-.119.716.071.831.415.115.345-.07.717-.415.831-1.742.581-4.131.887-6.482.887Z" fill="#000" stroke-width="0"/>
      </g>
      <g id="ab" data-name="path378">
        <path d="M30.42,198.896c-.229,0-.45-.119-.571-.331-.361-.632-.282-1.677-.124-3.33.105-1.094.225-2.334.057-3.005-.088-.352.126-.709.479-.797.342-.087.708.125.797.479.223.89.098,2.191-.023,3.449-.086.896-.216,2.25-.044,2.552.181.315.071.717-.244.896-.103.06-.215.087-.325.087Z" fill="#000" stroke-width="0"/>
      </g>
      <g id="ac" data-name="path388">
        <path d="M65.956,182.536c-.224,0-.441-.113-.564-.319-.187-.311-.086-.715.226-.901,1.315-.79,2.856-2.713,3.054-4.316.084-.677-.08-1.21-.499-1.629-.134-.134-.203-.319-.191-.509.013-.188.106-.363.257-.479,2.223-1.699,2.279-4.497,1.653-6.377-.097-.29.019-.607.278-.768,2.661-1.638,3.259-4.018,1.999-7.958-.09-.282.02-.589.267-.751,2.662-1.735,2.658-4.218,2.652-7.361v-.402c0-.146.049-.288.139-.403,1.029-1.324,1.889-3.828,1.54-6.051-.188-1.202-.702-2.096-1.526-2.658-.3-.204-.377-.613-.173-.913.204-.299.613-.377.913-.173,1.12.764,1.841,1.988,2.085,3.541.353,2.247-.328,5.037-1.663,6.876v.182c.006,3.117.01,6.069-2.838,8.18.795,2.695,1.226,6.292-2.279,8.733.702,2.619.041,5.229-1.74,6.916.383.615.532,1.352.432,2.165-.255,2.076-2.072,4.316-3.683,5.282-.105.063-.222.094-.337.094Z" fill="#000" stroke-width="0"/>
      </g>
      <g id="ad" data-name="path389">
        <path d="M45.59,180.298c-.449,0-1.018-.324-1.739-.985-1.882-1.723-4.064-5.086-2.842-7.664-1.647-1.906-1.984-4.458-.962-7.284-2.776-1.577-2.776-4.828-2.776-6.625,0-.363.294-.657.657-.657s.657.294.657.657c0,2.229.197,4.69,2.552,5.699.332.143.487.526.347.859-.81,1.924-1.329,4.663.798,6.79.222.222.256.568.082.829-.506.76-.525,1.757-.057,2.963.805,2.07,2.673,3.825,3.251,4.078.237-.054.496.025.66.229.228.283.182.697-.102.924-.154.124-.329.187-.526.187Z" fill="#000" stroke-width="0"/>
      </g>
      <g id="ae" data-name="path390">
        <path d="M36.286,158.818c-2.875,0-6.384-1.884-7.335-3.562-.499-.882-.215-1.503,0-1.795.215-.292.626-.356.919-.142s.356.626.142.919c-.063.087.038.287.084.369.71,1.252,4.097,3.112,6.633,2.876,1.21-.113,1.97-.669,2.322-1.701.075-.22.262-.384.489-.431.232-.051.464.03.62.202,2.024,2.238,2.881,1.626,4.954.152l.349-.248c.187-.133.43-.157.641-.066,1.505.653,3.308.413,4.938-.657,1.9-1.247,3.128-3.332,3.128-5.311,0-.363.294-.657.657-.657s.657.294.657.657c0,2.409-1.46,4.926-3.721,6.409-1.887,1.238-3.99,1.561-5.83.904l-.057.039c-1.911,1.36-3.585,2.553-6.017.34-.632.976-1.655,1.55-3.009,1.676-.185.018-.372.025-.563.025Z" fill="#000" stroke-width="0"/>
      </g>
      <g id="af" data-name="path391">
        <path d="M82.315,180.658c-.2,0-.397-.091-.526-.263-1.925-2.565-2.385-5.51-1.402-8.99-1.719-2.5-1.458-4.635-.791-7.494-.892-1.392-.893-3.4-.742-4.155.071-.356.413-.591.773-.516.355.071.587.417.516.773-.116.581-.085,2.374.679,3.357.123.157.167.361.121.556-.672,2.823-.998,4.671.694,6.968.123.167.16.383.1.581-.97,3.188-.608,5.848,1.104,8.131.218.29.159.702-.131.92-.118.089-.257.132-.394.132Z" fill="#000" stroke-width="0"/>
      </g>
      <g id="ag" data-name="path392">
        <path d="M77.242,160.513c-1.812,0-3.477-.396-4.008-.751-.3-.2-.378-.601-.181-.902.196-.302.605-.385.909-.191.349.222,3.001.877,5.343.305,1.276-.312,2.188-.928,2.708-1.829.141-.242.415-.367.694-.317,1.143.22,2.15-.013,2.981-.699,1.468-1.211,2.136-3.558,2.136-5.227,0-.271.167-.515.42-.613,1.651-.639,2.89-2.039,3.398-3.842.505-1.788.224-3.68-.733-4.937-.221-.289-.165-.701.124-.921.29-.22.703-.164.921.124,1.203,1.579,1.568,3.913.954,6.091-.58,2.055-1.946,3.686-3.781,4.537-.107,1.971-.924,4.416-2.602,5.801-1.021.843-2.262,1.202-3.622,1.045-.736,1.033-1.867,1.733-3.367,2.084-.742.173-1.532.243-2.295.243Z" fill="#000" stroke-width="0"/>
      </g>
    </g>
  </g>
</svg>