<?xml version="1.0" encoding="UTF-8"?>
<svg id="OBJECTS" xmlns="http://www.w3.org/2000/svg" width="500" height="500" version="1.1" viewBox="0 0 500 500">
  <path d="M473.9,334.1c-9.2-3.6-19.3-2.9-29.7-1.9-3.3.4-4.2.4-5.1.5-.7,0-1.4.1-3.3.3,1.4-9.4,1.7-19.1.6-29,1.4,1.3,2.7,2.8,3.7,4.2.4.5,1.1.8,1.7.5.6-.2,1-.8,1-1.5-1.3-15.8-6.7-31-15.6-44.1-1.2-1.7-2.4-3.4-3.7-5-.4-.5-.7-.9-1.1-1.4,2.2-1,4.4-2,6.6-3.1,9-4.3,17.6-8.3,27.1-8.3s1,0,1.6,0c2.8,0,5.7.1,8.4-1.6,3.2-2,4.2-5.3,5.1-8.6.7-2.3,1.3-4.5,2.8-6.2.7-.8,1.5-1.5,2.4-2.2,1.4-1.1,3-2.3,3.9-4.3,1.5-3.3.6-7.7-2.4-10.6-2.3-2.3-5.3-3.7-8.2-5l-.7-.3c-12.3-5.3-24.7-11.6-31.6-22.7-1.7-2.7-3-5.6-4.3-8.6-1.5-3.3-3-6.7-5.1-9.9-3.3-5.2-8.2-9.5-13.9-12.6.4-1.7.6-3.4.4-5.3-1-13.6-9.5-28.6-25.1-44.6-4.9-5-10.1-9.7-15.1-14.3-9-8.3-18.3-16.8-25.9-26.6-1.1-1.5-2.2-3-3.4-4.6-3.8-5.2-7.7-10.6-12.4-14.8-3.6-3.2-8.6-3.8-12.9-1.6-4.4,2.2-6.8,6.6-6.4,11.5.6,6.2,3.2,12.8,7.3,18,4.7,6,10.9,10.8,17,15.4,3.2,2.5,6.6,5,9.7,7.8.7.6,3.1,2.8,2.2,4.5-.7,1.3-3.5.9-5.3,0-13-4.8-25.6-9.8-36.8-17.2-12.3-8.4-20.7-19.5-23.9-31.2-2.2-8.4-7.3-14.1-12.5-13.7-2.1.1-7,1.6-8.3,12.1-1.1,9.3,11.2,30.9,16.7,37.2,7.7,9.2,17.8,15.7,27.5,22l1.1.7c7.9,5.1,17.2,7.5,26.1,9.8,13,3.4,25.3,6.6,33.5,17.4,2.1,2.9,3.9,6.2,5.6,9.4.8,1.4,1.6,2.9,2.4,4.3-1,.2-1.9.5-2.9.8-7.2-10.4-21.9-18.2-33.1-21.6-4.1-1.3-8.4-2.3-12.6-3.3-5.3-1.2-10.8-2.5-15.8-4.5-13.7-5.7-24.4-16.8-34.8-27.4-1-1-2-2.1-3-3.1-8.2-8.5-16.6-17.4-23.1-27.4-3.6-5.7-8.2-11.4-14.5-10.3-4.5.6-7.5,5.3-8.1,9.3-.5,3.5.2,7.4,2.1,11.9,4.7,11.4,12.3,21.3,22.2,28.9l1.2.9c5,3.8,10.7,8.2,10.3,13.9-.2,4.8-4.8,8.2-9.2,9,0,0,0,0,0,0-3.8.8-7.9.1-11.8-.7,0-5.5-5.3-11.7-10-17.2-2-2.3-3.8-4.5-4.9-6.2-6-10.9-10-20.3-12.7-29.5-.6-1.9-3.1-8.3-7.7-9.6-1.4-.4-3.7-.4-6.2,1.8-3.6,3.2-3.3,9.2-3,13.3.5,9.1,2.8,18.8,6.3,27.5v.4c1.4,3,2.7,6.2,4.2,9.2-4.9-2.1-8.8-4.5-11.9-7.5-8.6-8.4-10-21.5-11.2-34.1-.2-2.3-.5-4.5-.7-6.7-1.2-8.6-5-13.7-10.4-13.4-4.4.4-7.2,4.3-8.2,6-4.6,7.4-5.8,17.3-3.2,27.1,2.1,7.7,6.3,15.6,12.9,24,15.4,20,34.7,33.3,54.3,37.4,14.6,3.1,29.7,1.5,44.3,0,3.6-.4,7.3-.7,10.9-1,15.9-1.3,36.2-1.5,52,8.9,3,1.9,5.8,4.3,8.6,6.7-1.2.8-2.4,1.6-3.7,2.4-5.5-5-10.7-8-16.5-9.4-16.3-4-33.6-2.3-48.8,4.7-.6.3-.9.9-.8,1.5,1.2,12.6,4.8,24.2,10.7,34.5,6.8,11.6,16.8,20,28,23.5,3.8,1.2,7.8,1.8,11.7,1.8,5.6,0,11.2-1.2,16.1-3.5,1.4,6.1,1.7,12.8,2,18.6h0c.3,8.7.5,16.8-1.2,24.9-3.7,17.8-17.3,37.8-35.3,39.7-21.1,2.1-41.8,1.4-61.4-2-2.1-.4-4.2-.7-6.3-1.1-12.6-2.3-25.6-4.6-37.9-2.4-1.3-2-3.7-5.9-5.1-9.9-2.3-6.9-3.7-13.8-4.2-20.5v-6.5c0-.6-.3-1.1-.8-1.3-.5-.3-1.1-.2-1.5.1-2.9,2.1-5.1,4.7-6.6,7.9-4.5-7.4-5.3-16.6-2.1-24.5.2-.6,0-1.3-.4-1.7-.5-.4-1.2-.4-1.8,0-2.3,1.6-4.6,3.4-6.3,5.7-1.1-5.5-.5-11.4,1.7-16.3.3-.6.1-1.3-.4-1.7-.5-.4-1.2-.5-1.7-.1-4.2,2.5-7.1,5.2-9.1,8.3-.9-6.2.7-12.9,4.5-18,.3-.5.4-1.1.1-1.6-.3-.5-.8-.8-1.4-.8-6.6.3-12.2,3-16.9,8.3-12.5,14.3-16.8,34.9-11.1,53.1-1.4-.4-2.7-1-4.3-2.2-.5-.4-1.2-.4-1.7,0-.5.4-.7,1-.6,1.6,3.8,14.2,15.4,23.4,24.4,28.6,7.5,4.4,13.6,6.6,16.8,7.5-.9.8-1.7,1.6-2.6,2.4l-1.7,1.6c-4.9,4.7-10.1,9.6-14,15.4-1.5,2.1-2.9,4.4-4.2,6.7-4.5,7.6-8.8,14.7-16.5,16.2-3.2.6-6.5,0-10.1-.8-3.8-.8-7.8-1.5-11.6-.7-7.2,1.3-11.9,7.6-14.1,11.3-1.8,2.8-3.1,5.9-4.4,8.9-1,2.3-2,4.7-3.2,6.8-10.7,20-37.2,30.4-59,23.3-.6-.2-1.2,0-1.6.4-7.4,8.4-13,19-16.2,30.6-.1.4,0,.9.2,1.2s.7.6,1.1.6c2.4.2,4.8.2,7.2.2,9.9,0,19.8-1.3,29.5-3.8-1.2,4.7-1.7,9.6-1.5,14.5,0,.7.6,1.3,1.4,1.4,1.7.1,3.4.2,5.1.2,18.2,0,36.5-6.3,50.9-17.6,1.2-1,2.5-2,3.7-3.1,3.9-3.3,8-6.7,12.5-9.1,2.9-1.5,6.2-2.7,9.7-3.4,0,0,.2,0,.3,0,.4.3.7.6,1.1.8,17.7,13,39.8,15.2,56.4,5.6,2.3.2,4.9.3,7.7.3,10.5,0,23.6-1.7,33.8-6.8,8.5-4.4,15.3-11.1,20.5-16.8,7.9,1.1,15.7,3.8,23.4,6.4,2.3.8,4.6,1.6,6.9,2.4,21.1,6.6,52.6,12.2,82.4,1.2,7.6-2.8,15.2-6.5,23.2-11.2,5.7-3.3,11.8-7,17.3-11.5.2-.1.3-.3.4-.5,1.3-.2,2.6-.2,3.8,0-.2,1.5-.4,3-.6,4.5-.5,3.4-.9,6.7-1.9,10.2l-.2.5c-.4,1.6-.9,3.2-1.7,4.3,0,0,0,0,0,.1-.5.9-1.1,1.7-1.9,2.5-1,1.3-2.1,2.5-2.8,4.2,0,0,0,0,0,.1-.3.9-.3,1.8-.4,2.6,0,1-.2,1.9-.5,2.7,0,0,0,0,0,.1-1,3.1-4.6,4.5-8.9,5.8-1.2.4-2.4.7-3.6,1-1.2.3-2.4.6-3.7,1-.5.1-.8.5-1,.9-4,11.9-5.1,25.1-3.1,37,0,.5.4.9.8,1.1.2,0,.4.1.6.1s.5,0,.7-.2c6-3.5,12.4-6.9,18.5-10.2,5.8-3.1,11.8-6.3,17.5-9.6.8,1.7,2.2,3.9,4.6,3.9s.3,0,.4,0c1,0,1.8-.7,2.5-1.1.2-.1.3-.3.5-.4,0,0,0,0,.1,0,3.4-2.8,6.9-5.7,10.2-8.5s6.8-5.7,10.2-8.5l.9-.8c3.9-3.4,7.8-6.8,10.3-11.5,1.5-3,2.3-6.4,3.1-9.7.2-.7.4-1.5.5-2.2,3.2-14.3,8.5-28.4,16-41.8l.5-1c3-5.8,6.4-12.3,4.1-18.6-1.5-4.2-5.1-7.6-10.2-9.5ZM376.1,143.3c-1.7-3.3-3.6-6.7-5.8-9.8-8.8-11.6-22.2-15.1-35.2-18.4-8.7-2.3-17.7-4.6-25.2-9.4l-1.1-.7c-9.6-6.2-19.4-12.6-26.9-21.5-5.7-6.5-17-27.2-16-34.9.7-5.8,2.8-9.4,5.6-9.5,3.1-.2,7.4,3.8,9.5,11.5,3.3,12.4,12.2,24,25.1,32.9,11.4,7.6,24.2,12.6,37.3,17.5,3.2,1.4,7.3,1.6,8.9-1.4,1.4-2.5.3-5.4-2.8-8.1-3.2-2.8-6.6-5.4-9.8-7.9-6.2-4.7-12-9.1-16.5-14.9-3.7-4.8-6.2-10.8-6.7-16.5-.4-4.4,2.2-7.3,4.8-8.7,2.5-1.3,6.4-1.6,9.7,1.2,4.5,3.9,8.3,9.2,12,14.3,1.1,1.6,2.3,3.1,3.4,4.7,7.7,10,17.1,18.7,26.2,27,5,4.6,10.2,9.3,15,14.2,15.1,15.5,23.3,29.9,24.3,42.7,0,1.3,0,2.6-.2,3.8-7.7-3.5-16.8-5.1-26.2-4.1-2.1.2-4.3.6-6.5,1-1-1.6-1.9-3.4-2.8-5ZM207.4,104.5c-3.4-8.4-5.6-17.8-6.1-26.6-.2-3.2-.5-8.6,2-10.8,1.3-1.1,2.4-1.5,3.5-1.2,2.3.6,4.5,4.3,5.6,7.6,2.8,9.4,6.9,19,13,30.1,1.2,1.9,3.1,4.2,5.2,6.6,4.4,5.2,9.8,11.6,9.3,16,0,0,0,0,0,0,0,0,0,0,0,0-.4,2.6-1.5,4.3-3.3,5-3.7,1.6-10.2-.6-14.2-3.6-3.4-2.5-6.3-6-9-10.6,0,0,0,0,0,0-2.3-3.9-4.1-8.2-5.8-12.4v-.4ZM299.5,143.4c-4.9,0-9.7.3-14.1.6-3.6.3-7.3.7-10.9,1-14.4,1.5-29.3,3-43.4,0-19-4-37.7-16.9-52.6-36.3-6.3-8.1-10.4-15.6-12.3-22.9-2.4-9-1.3-18.2,2.9-24.8.6-1,2.8-4.3,5.9-4.6,0,0,.2,0,.2,0,5.3,0,6.8,9,7.1,10.8.3,2.2.5,4.4.7,6.6,1.3,13.1,2.7,26.7,12.1,35.9,4,3.8,9.3,6.9,16.1,9.4,2.8,4.7,5.9,8.3,9.5,11,3.9,2.9,11.6,6.3,17.1,4,1.7-.7,3.9-2.3,4.8-5.8,4.2.9,8.6,1.5,12.8.7,5.5-1,11.2-5.4,11.5-11.7.5-7.3-6.1-12.4-11.5-16.5l-1.2-.9c-9.4-7.2-16.8-16.8-21.2-27.7-1.7-4-2.3-7.3-1.9-10.3.4-3,2.6-6.4,5.6-6.8,4.7-.8,8.5,4,11.6,8.9,6.6,10.3,15.2,19.2,23.4,27.8,1,1,2,2.1,3,3.1,10.6,10.9,21.5,22.1,35.8,28.1,5.2,2,10.8,3.3,16.2,4.6,4.1,1,8.3,2,12.4,3.3,14.5,4.4,36.9,17.3,35.3,33.2-.4,3.3-2.7,7.2-6.1,7.8-2.2.5-4.8-.6-6.6-1.6-4.5-2.4-8.5-5.9-12.3-9.2-3.2-2.7-6.5-5.6-10-7.9-12.1-7.9-26.5-10-39.8-10ZM159.1,301.7c-7.7-4.5-17.4-12.1-21.8-23.3,1.4.6,2.8.9,4.6,1.1.5,0,1-.2,1.3-.6.3-.4.4-.9.2-1.4-6.3-17.5-2.4-38.6,9.8-52.5,3.5-4,7.4-6.2,11.9-7-3.7,6.6-4.6,14.9-2.3,21.9.2.6.8,1,1.4,1,.6,0,1.2-.4,1.4-1,1-3,3-5.6,6.1-8.1-1.4,5.7-1.2,12.2.7,17.7.2.6.8,1,1.4,1,.6,0,1.2-.4,1.4-1,.6-1.9,1.8-3.5,3.4-5-1.9,8.6,0,17.8,5.4,25.1.3.4.9.7,1.4.6.5,0,1-.5,1.2-1,.9-2.8,2.3-5.2,4.2-7.1v3.4s0,0,0,.1c.5,6.9,2,14.1,4.4,21.3,1.3,3.7,3.4,7.3,4.8,9.6-2.3.6-4.5,1.3-6.8,2.2-6.1,2.6-11.2,6.6-16.1,10.9-1.7-.4-8.8-2.5-17.9-7.8ZM18.5,432.8c3-10.1,8-19.4,14.4-27,3,.9,6,1.5,9,1.8-2.2,8.3-3.6,16.4-4.1,24.3-6.5.8-12.9,1.1-19.4.8ZM54.6,445.1c-.1-4.7.5-9.4,1.9-13.9,3.2-.9,6.3-1.9,9.5-3.1.3,5.9,1.3,11.4,2.8,16.4-4.7.6-9.4.9-14.1.6ZM123.8,415.7c-4.8,2.6-8.9,6.1-13,9.5-1.2,1-2.4,2-3.6,3-10.3,8.1-22.7,13.5-35.6,15.8-1.6-5.1-2.6-10.9-2.8-17,5.7-2.3,11.3-5,16.7-8.2,1.4-.9,2.8-1.8,4.2-2.7,4.6-3,8.9-5.7,13.8-7.8,4-1.8,11.9-4.3,19.4-1.5,3.5,1.2,6.4,3.4,9.4,5.8-3,.8-5.8,1.8-8.4,3.2ZM232.9,412.1c-9.2,4.6-22.7,7-35.7,6.5,2.1-1.3,4.1-2.6,6.2-3.8,13.1-8.2,26.7-16.7,41.8-17.3,2-.1,3.9,0,5.9,0-4.8,5.1-10.9,10.7-18.2,14.5ZM387.5,427.3c1-.3,1.9-.5,2.9-.8,1.2-.3,2.4-.6,3.7-1,0,0,0,0,.1,0,0,9.3,1.5,18.2,4.7,26.7-4.8,2.6-9.7,5.2-14.5,8-1.4-10.7-.4-22.2,3-32.8ZM401.6,450.7c-3.1-8.3-4.6-17.1-4.4-26.2,3.2-1.2,6.6-3,7.7-6.7.5-1.2.6-2.4.7-3.5,0-.7.1-1.4.3-2,.5-1.2,1.4-2.2,2.3-3.3.8-.9,1.5-1.8,2.1-2.9,1-1.5,1.6-3.4,2-5.1l.2-.5c1-3.7,1.5-7,1.9-10.6.2-1.8.5-3.7.9-5.7.1-.7-.3-1.4-1-1.7-6.3-1.9-12.5,1.3-17.9,4.2l-.3.2c-10.7,5.6-20.8,9.9-31,13.3l-1.5.4c-5.6,1.6-10.9,3.2-16.3,2.5-6.5-.8-11.6-4.1-13.7-8.9-1.2-3-1.2-6.6-1.2-10,.3-11.2.8-20.7,1.8-29.9,0-.8-.5-1.5-1.3-1.6-.8,0-1.5.5-1.6,1.3-.9,9.3-1.5,18.8-1.8,30.2,0,3.6,0,7.6,1.4,11.2,2.5,5.8,8.5,9.8,16.1,10.7,6.1.7,11.9-1,17.5-2.6l1.5-.4c10.4-3.4,20.7-7.8,31.5-13.5h0c-2.8,1.8-5.5,3.4-8.3,5-7.9,4.6-15.3,8.2-22.7,11-29.1,10.7-59.8,5.2-80.5-1.3-2.3-.7-4.6-1.5-6.9-2.3-7.4-2.6-15-5.2-22.8-6.4,0-.3-.2-.5-.4-.7-.6-.5-1.5-.5-2.1.1,0,0-.1.2-.2.2-2.8-.3-5.6-.4-8.5-.3-15.9.6-29.8,9.3-43.3,17.7-3.3,2.1-6.8,4.2-10.1,6.2-15.7,9.2-36.7,7.2-53.6-5.2-1.2-.8-2.3-1.8-3.4-2.6-3.3-2.6-6.7-5.3-10.8-6.6-8.4-3.2-17.1-.4-21.5,1.5-5.2,2.2-9.8,5.2-14.2,8.1-1.4.9-2.7,1.8-4.1,2.6-13.3,7.9-28,13.1-43.1,15.4.6-7.7,1.9-15.7,4.1-23.7,19.8.9,40.3-9.6,49.6-27,1.3-2.3,2.3-4.7,3.3-7.1,1.3-3,2.6-5.9,4.2-8.5,1.9-3.2,6.1-8.8,12.2-9.9,3.3-.7,6.8,0,10.5.7,3.6.7,7.4,1.5,11.2.8,9-1.7,13.8-9.7,18.5-17.5,1.3-2.2,2.7-4.5,4.1-6.5,3.8-5.6,8.6-10.1,13.6-14.9l1.6-1.5c6.2-5.7,12.6-11.6,20.4-15,2.4-1,4.9-1.8,7.4-2.3.5.4,1.2.5,1.8,0,.2-.1.3-.3.4-.5,11.7-2,24.2.3,36.4,2.5,2.1.4,4.2.8,6.3,1.1,19.9,3.4,40.8,4.1,62.2,2,9.1-1,17.8-6.1,24.9-14.8,6.2-7.5,10.9-17.5,12.9-27.2,1.8-8.5,1.6-16.7,1.3-25.5h0c-.3-6.3-.7-13.4-2.2-20,1.8-1,3.5-2.3,5-3.6.6-.5.7-1.5.1-2.1-.5-.6-1.5-.7-2.1-.1-8.1,7.3-21.2,9.7-32.7,6.1-10.6-3.3-19.9-11.2-26.4-22.2-5.5-9.6-9-20.4-10.2-32.2,14.4-6.4,30.6-7.8,45.9-4,5.6,1.3,10.7,4.4,16,9.5.5.5,1.3.5,1.8.1,1.8-1.2,3.6-2.4,5.3-3.5,3.6,3.1,7.3,6.2,11.6,8.5,2.5,1.4,4.8,2.1,6.9,2.1s1.1,0,1.7-.2c4.8-.9,7.9-5.9,8.5-10.4.4-4.3-.6-8.4-2.7-12.2,3.7-1.1,7.4-1.8,11-2.2,9.4-1,18.5.7,26,4.5,0,0,.2.1.3.1,5.7,2.9,10.5,7,13.7,12.1,2,3,3.5,6.3,4.9,9.5,1.3,3,2.7,6.1,4.5,9,7.3,11.8,20.1,18.5,32.9,23.9l.7.3c.1,0,.3.1.4.2-1.3,0-2.8-.2-4.1-.2s-2.7-.2-3.9.5c-1.5.7-2,2.4-2.1,4-6.1,0-12.3-1.8-17.2-5.4-4.6-3.4-7.9-7.9-11.4-12.7-2.2-3.1-4.5-6.2-7.2-9-9-9.8-21.7-14.2-32.2-11.2-2.1.6-4.1,1.6-6.1,2.5-4.5,2.1-8.8,4-12.9,2.6-.8-.3-1.6.1-1.9.9-.3.8.1,1.6.9,1.9,5.2,1.8,10.2-.5,15.1-2.7,1.9-.9,3.9-1.8,5.7-2.3,9.4-2.7,20.9,1.3,29.2,10.3,2.5,2.7,4.8,5.8,6.9,8.8,3.5,4.8,7.1,9.8,12,13.4,5.3,3.9,12,6,18.7,6s.3,0,.5,0c1.1,5.6,6,10.4,11.6,11.6-1.1,1.8-1.7,3.8-2.3,5.8,0,.2-.1.4-.2.5,0,0-.1,0-.2,0h-23.8c-5.8,0-11.9,0-17.3-2-.8-.3-1.6.1-1.9.9-.3.8.1,1.6.9,1.9,6,2.1,12.3,2.1,18.3,2.1h22.9c-.6,1.4-1.4,2.7-2.7,3.5-1.9,1.3-4.1,1.2-6.7,1.2-.5,0-1.1,0-1.6,0-10.2,0-19.4,4.4-28.4,8.6-6.1,2.9-12.4,5.9-18.9,7.4-17.8,4.4-38.2-3.9-48.5-19.5-.4-.7-1.4-.9-2-.4-.7.4-.9,1.4-.4,2,9,13.7,25.2,22,41.2,22s7-.4,10.4-1.2c3.5-.8,6.8-2,10.1-3.4.5.7,1,1.3,1.5,2,1.2,1.6,2.5,3.3,3.6,4.9,7.8,11.3,12.8,24.3,14.6,37.9-1.3-1.3-2.6-2.4-4-3.4-.5-.3-1.1-.4-1.6,0-.5.3-.8.9-.7,1.5,1.6,11.3,1.4,22.7-.4,33.4,0,.1,0,.2,0,.3-.7,4.3-1.8,8.4-3,12.5-15.5-.2-31.4,1.9-46,6.2,1.1-5.8.4-10.2-2.1-13.4-.5-.7-1.4-.8-2.1-.3-.7.5-.8,1.4-.3,2.1,2.2,3,2.6,7.2,1,13.4-.1.5,0,1.1.4,1.4.4.4.9.5,1.4.3,15.2-4.6,31.8-7,48-6.7,0,0,0,0,.1,0,.2,0,.3,0,.5,0s.4,0,.5-.1c7.3.1,12,2,14.3,5.6,2.9,4.8.7,11-1.1,15.4-1.4,3.6-3,7.2-4.5,10.8-2.6,6-5.2,12.1-7.2,18.4,0,0,0,0,0,0-.2.3-.4.6-.7.9-.4.5-.4,1.2,0,1.6-1.3,4.5-2.2,9.1-2.5,13.8,0,1.3-.1,2.7-.2,4.1-.2,6.1-.5,12.5-4.4,16.4-1.4,1.4-3,2.6-5,3.6-5.9,3.4-12.1,6.8-18.1,10ZM449.2,365.5c0,0,.2,0,.2,0,.3,0,.6-.1.8-.2,1-.2,2-.5,2.9-.3h.2c.2,0,.4.1.6.1,0,0,0,0,0,.1-.2,9-3.1,17.7-8.3,25.1-1,1.3-2.5,2.9-3.9,3.6-.6.2-1.2.4-1.8.6-.7.2-1.3.4-2,.7-.2,0-.5.2-.7.3,1.6-4.2,3.4-8.4,5.2-12.5,1.5-3.5,3.1-7.2,4.5-10.8.8-1.9,1.7-4.2,2.2-6.7ZM436.5,435.4c-3.3,2.8-6.8,5.6-10.2,8.4-.2.1-.4.3-.6.4-.3.2-.7.5-.8.6,0,0-.1,0-.2,0-.6,0-1.4-.8-2.1-2.4,1.5-.9,2.9-2,4.1-3.2,3.8-3.8,4.8-9.1,5.1-14.4,1.2,1.6,2.2,3,3.3,4.4,1,1.3,2.1,2.8,3.4,4.5-.7.6-1.4,1.1-2.1,1.7ZM477.4,360.8l-.5,1c-7.6,13.6-13.1,27.9-16.3,42.5-.2.7-.4,1.5-.5,2.2-.8,3.3-1.5,6.3-2.9,9-2.2,4.2-6,7.5-9.6,10.7l-.8.7c-2,1.6-3.9,3.2-5.9,4.9-1.3-1.7-2.3-3.1-3.3-4.4-1.7-2.2-3.2-4.2-5.4-7.3,0,0,0,0,0,0,0-1.1,0-2.2.2-3.2.3-5.2,1.5-10.3,3-15.2,1.1-1.5,2.3-3,3.9-3.7.6-.2,1.2-.4,1.8-.6.7-.2,1.3-.4,2-.7,2-.9,3.5-2.6,5.1-4.4,0,0,0,0,0,0,5.5-7.9,8.6-17.2,8.8-26.8,0-2.7-1.7-3-3-3.2h-.2c-1.5-.3-2.9,0-4,.3.2-2.8-.2-5.6-1.8-8.2-2.7-4.3-7.7-6.6-15.3-6.9,1.1-3.6,2-7.3,2.7-11.1,2.4-.3,3.3-.3,4-.4.9,0,1.8-.1,5.1-.5,10-1,19.7-1.7,28.3,1.7,2.5.9,6.9,3.2,8.5,7.7,1.9,5.1-1.1,10.7-3.9,16.2Z" fill="#000" stroke-width="0"/>
  <ellipse cx="403.5" cy="204.3" rx="5.7" ry="8.4" fill="#000" stroke-width="0"/>
  <path d="M344.2,201.9c-3.4-1.4-6.3-4.6-8.7-9.7-.7-1.3-1.4-2.8-2.1-4.1-1.4-2.9-2.8-5.8-4.9-8.4-4.1-4.9-10.3-8.5-19-10.8-7.5-2.1-14.9-3.5-22.5-4.2-.5,0-.9.1-1.2.5-.3.3-.4.8-.4,1.2,2.6,15.4,10,28.7,20.2,36.4,6.4,4.8,13.8,7.2,21,7.2s12.5-1.9,17.8-5.6c.4-.3.7-.8.6-1.4,0-.5-.4-1-.9-1.2ZM307.4,200.5c-9.2-6.9-16-18.7-18.8-32.6,6.7.7,13.3,2,20,3.9,8.1,2.2,13.8,5.4,17.5,9.8,1.9,2.3,3.2,5,4.5,7.8.7,1.4,1.4,2.9,2.1,4.2,2.1,4.5,4.8,7.8,7.8,9.8-10,5.8-23,4.8-33.3-2.9Z" fill="#000" stroke-width="0"/>
</svg>