<?xml version="1.0" encoding="UTF-8"?>
<svg id="b" data-name="Layer 2" xmlns="http://www.w3.org/2000/svg" width="141.476" height="141.733" viewBox="0 0 141.476 141.733">
  <g id="c" data-name="OBJECTS">
    <g id="d" data-name="Horse Outline">
      <g id="e" data-name="path480">
        <path d="M47.62,132.844c-1.231,0-2.515-.16-3.897-.485-4.24-.922-7.225-5.041-6.935-9.581.36-5.624-.601-10.483-1.616-15.629-.992-5.021-2.019-10.213-1.885-16.501.006-.272.229-.489.5-.489h.011c.276.006.495.234.489.511-.131,6.18.884,11.317,1.865,16.286,1.029,5.211,2.002,10.132,1.634,15.887-.259,4.05,2.388,7.722,6.157,8.542,1.604.378,3.057.518,4.44.438,3.118-.153,5.521-1.01,7.148-2.545.199-.19.519-.181.706.021.189.2.181.517-.021.706-1.805,1.704-4.423,2.652-7.78,2.816-.271.017-.543.024-.817.024Z" fill="#000" stroke-width="0"/>
      </g>
      <g id="f" data-name="path481">
        <path d="M88.155,127.471c-2.085,0-4.237-.436-6.545-1.323-2.856-1.144-4.57-4.239-4.083-7.363.333-1.996.562-4.035.68-6.065.017-.275.261-.513.528-.47.275.016.486.252.47.528-.12,2.065-.353,4.141-.69,6.166-.416,2.664,1.039,5.304,3.461,6.273,2.54.977,4.878,1.382,7.138,1.221,1.437-.08,4.414-.245,5.66-1.16.738-.517,1.071-1.438,1.395-2.329l.047-.13c.725-2.174,1.494-4.765,1.676-7.4.438-3.166-.186-7.379-.191-7.421-.041-.273.146-.527.42-.568.269-.038.527.146.568.42.027.178.65,4.399.197,7.672-.187,2.714-.978,5.381-1.726,7.627l-.052.142c-.357.989-.764,2.11-1.751,2.802-1.478,1.083-4.537,1.254-6.182,1.345-.338.023-.678.035-1.02.035Z" fill="#000" stroke-width="0"/>
      </g>
      <g id="g" data-name="path482">
        <path d="M127.505,121.645c-1.604,0-3.253-.26-4.864-.782-2.366-.71-4.505-1.901-6.176-3.442-.203-.187-.216-.503-.028-.706.188-.204.505-.216.706-.028,1.56,1.438,3.564,2.553,5.796,3.223,3.433,1.114,7.026.96,9.866-.42,2.643-1.359,4.415-3.788,4.775-6.42-.401.266-.882.442-1.416.515-1.408.187-2.938-.373-3.794-1.399-1.671-2.005-1.345-4.95-1.002-6.528.63-2.771,1.959-5.345,3.245-7.834.586-1.134,1.191-2.306,1.724-3.481,1.52-3.346,2.587-7.126,3.461-12.26.483-2.554,1.044-6.354.36-9.962-1.228-6.84-6.788-12.652-13.523-14.14-5.072-1.119-10.84.279-15.06,3.652-.217.172-.53.138-.703-.078s-.138-.531.078-.703c4.521-3.61,10.468-5.048,15.899-3.848,7.119,1.571,12.996,7.713,14.292,14.936.715,3.771.137,7.695-.359,10.319-.887,5.213-1.978,9.07-3.535,12.496-.542,1.198-1.153,2.382-1.745,3.527-1.315,2.546-2.558,4.95-3.158,7.592-.303,1.396-.604,3.993.794,5.671.635.763,1.827,1.192,2.894,1.049.455-.062,1.275-.288,1.651-1.115.095-.209.32-.327.549-.284.226.043.394.235.405.466.182,3.524-1.933,6.949-5.385,8.725-1.727.839-3.7,1.262-5.747,1.262Z" fill="#000" stroke-width="0"/>
      </g>
      <g id="h" data-name="path483">
        <path d="M54.675,111.863c-.045,0-.09-.006-.136-.019-4.096-1.154-7.726-2.727-10.791-4.674-4.032-2.566-8.264-8.367-9.635-13.207-1.648-5.534-2.054-10.983-1.201-16.188.045-.273.306-.462.574-.412.272.044.457.302.412.574-.827,5.055-.432,10.353,1.176,15.748,1.313,4.641,5.359,10.19,9.211,12.642,2.982,1.895,6.523,3.428,10.525,4.555.266.075.42.352.346.617-.062.221-.263.364-.481.364Z" fill="#000" stroke-width="0"/>
      </g>
      <g id="i" data-name="path483">
        <path d="M71.293,113.889c-.269,0-.49-.213-.5-.482-.01-.276.206-.508.482-.518,9.026-.316,18.932-2.521,27.178-6.046.252-.108.548.009.656.264.108.254-.01.548-.264.656-8.354,3.571-18.391,5.805-27.535,6.126h-.018Z" fill="#000" stroke-width="0"/>
      </g>
      <g id="j" data-name="path483">
        <path d="M115.617,92.315c-.067,0-.136-.014-.201-.042-.253-.111-.368-.406-.257-.659,1.123-2.553,1.895-5.362,2.295-8.351,2.598-20.132-11.769-25.615-16.233-26.816-4.712-1.223-9.795-1.075-15.534.449-2.354.648-4.093,1.271-5.49,1.77-.697.25-1.307.468-1.859.642-.262.083-.545-.063-.627-.326-.083-.264.063-.545.326-.627.543-.171,1.14-.385,1.823-.63,1.413-.505,3.172-1.134,5.566-1.794,5.913-1.571,11.161-1.716,16.051-.45,18.922,5.091,17.455,24.146,16.969,27.914-.413,3.083-1.21,5.983-2.37,8.622-.083.188-.266.299-.458.299Z" fill="#000" stroke-width="0"/>
      </g>
      <g id="k" data-name="path484">
        <path d="M15.182,17.657c-.184,0-.36-.102-.447-.276-3.304-6.622-3.548-11.854-.706-15.131C15.324.759,16.944,0,18.846,0h.004c3.159,0,6.984,2.231,10.234,5.97.182.208.159.524-.049.705-.209.183-.524.159-.705-.049-3.063-3.522-6.607-5.626-9.48-5.626h-.003c-1.6,0-2.966.643-4.062,1.906-3.229,3.722-1.323,9.683.845,14.027.123.247.023.548-.224.671-.072.036-.148.053-.224.053Z" fill="#000" stroke-width="0"/>
      </g>
      <g id="l" data-name="path485">
        <path d="M20.124,83.942c-8.449,0-17.991-4.434-19.396-11.461-1.129-5.646,1.923-9.498,4.875-13.224.916-1.157,1.863-2.353,2.642-3.563,1.112-1.73.942-4.297.727-7.548-.201-3.041-.452-6.825.361-11.014.053-.271.318-.446.587-.396.271.053.448.315.396.587-.79,4.061-.554,7.618-.346,10.757.228,3.434.407,6.146-.883,8.154-.806,1.252-1.769,2.468-2.7,3.644-2.939,3.71-5.716,7.215-4.678,12.407,1.343,6.711,11.337,11.021,19.406,10.634,4.374-.191,6.497-1.739,8.745-3.378,1.835-1.337,3.732-2.72,6.882-3.342l.774-.152c6.255-1.221,16.725-3.264,24.507-11.406.189-.198.508-.207.707-.016.199.19.207.507.016.707-8.001,8.371-18.666,10.453-25.038,11.696l-.772.151c-2.932.579-4.658,1.838-6.485,3.17-2.27,1.653-4.616,3.363-9.291,3.569-.342.015-.688.022-1.034.022Z" fill="#000" stroke-width="0"/>
      </g>
      <g>
        <path d="M37.605,43.847c-2.23,0-4.04,2.66-4.04,5.93s1.81,5.92,4.04,5.92,4.03-2.65,4.03-5.92-1.8-5.93-4.03-5.93ZM37.045,51.737c-.32,0-.57-.44-.57-.98s.25-.98.57-.98.57.44.57.98-.25.98-.57.98ZM38.845,49.007c-.56,0-1.02-.78-1.02-1.75,0-.96.46-1.74,1.02-1.74.57,0,1.02.78,1.02,1.74,0,.97-.45,1.75-1.02,1.75Z" fill="#000" stroke-width="0"/>
        <path d="M41.169,47.177c-.256,0-.475-.196-.497-.457-.023-.275.18-.518.455-.541.938-.081,1.841-.527,2.475-1.225.187-.204.501-.218.707-.033.204.187.219.502.033.707-.802.881-1.941,1.444-3.129,1.547-.015,0-.029.002-.044.002Z" fill="#000" stroke-width="0"/>
        <path d="M42.862,50.084c-.734,0-1.467-.205-2.094-.607-.232-.149-.3-.459-.15-.691s.458-.299.691-.15c.791.509,1.858.589,2.719.202.249-.114.546-.002.661.251.113.252,0,.548-.251.661-.498.225-1.037.335-1.576.335Z" fill="#000" stroke-width="0"/>
      </g>
      <g>
        <path d="M14.485,41.447c-1.75-.15-3.39,2.37-3.67,5.63-.28,3.26.91,6.02,2.65,6.17,1.74.15,3.38-2.37,3.66-5.63.28-3.26-.9-6.02-2.64-6.17ZM13.065,46.497c-.44-.03-.73-.84-.65-1.81.08-.96.51-1.71.95-1.67.44.04.73.85.65,1.81-.09.96-.51,1.71-.95,1.67ZM14.235,49.347c-.24-.03-.41-.48-.36-1.02.05-.54.29-.96.53-.94.25.02.41.47.37,1.02-.05.54-.29.96-.54.94Z" fill="#000" stroke-width="0"/>
        <path d="M11.45,44.521c-.032,0-.065-.003-.098-.01-.962-.189-1.838-.848-2.403-1.805-.141-.237-.062-.544.177-.685.233-.14.542-.062.685.177.42.712,1.053,1.197,1.735,1.332.271.053.447.316.394.587-.047.238-.256.403-.489.403Z" fill="#000" stroke-width="0"/>
        <path d="M10.059,47.308c-.53,0-1.057-.157-1.513-.474-.227-.158-.283-.47-.126-.696.158-.228.469-.282.696-.126.584.407,1.331.396,1.948-.022.227-.156.539-.099.694.13.156.228.099.539-.13.694-.48.33-1.027.494-1.57.494Z" fill="#000" stroke-width="0"/>
      </g>
      <path d="M22.496,76.697c-.678,0-1.353-.111-1.986-.34-.26-.095-.395-.381-.301-.641.095-.259.385-.391.641-.301,1.677.607,3.705.22,5.041-.965.207-.185.522-.165.706.042s.164.523-.042.706c-1.098.973-2.584,1.498-4.059,1.498Z" fill="#000" stroke-width="0"/>
      <g id="m" data-name="ellipse485">
        <ellipse cx="23.745" cy="69.169" rx="2.885" ry="1.763" transform="translate(-27.207 16.709) rotate(-25.217)" fill="#000" stroke-width="0"/>
      </g>
      <g id="n" data-name="ellipse485">
        <path d="M10.558,69.237c-.802.275-1.683-.731-1.966-2.248-.283-1.517.138-2.969.94-3.244s1.683.731,1.966,2.248-.138,2.969-.94,3.244Z" fill="#000" stroke-width="0"/>
      </g>
      <g id="o" data-name="path488">
        <path d="M34.057,77.819c-.128,0-.256-.049-.354-.146-1.62-1.62-1.829-3.894-2.032-6.091-.154-1.671-.313-3.397-1.1-4.783-.946-1.577-2.767-2.724-4.744-2.98-1.813-.24-3.787.025-5.865.781-.188.055-.341.104-.495.153-.498.16-1.013.325-1.561.325-1.582,0-2.774-1.027-3.927-2.021-.577-.497-1.174-1.011-1.794-1.366-2.673-1.551-6.127-.19-8.207,1.729-.201.188-.519.176-.706-.028-.188-.203-.175-.519.028-.706,2.339-2.16,6.274-3.663,9.384-1.86.701.401,1.335.947,1.947,1.475,1.062.914,2.064,1.778,3.274,1.778.391,0,.811-.135,1.256-.277.164-.053.328-.105.492-.152,2.194-.8,4.326-1.078,6.302-.822,2.308.301,4.356,1.597,5.479,3.469.899,1.583,1.068,3.419,1.232,5.195.194,2.114.379,4.11,1.743,5.476.195.195.195.512,0,.707-.098.098-.226.146-.354.146Z" fill="#000" stroke-width="0"/>
      </g>
      <g id="p" data-name="path489">
        <path d="M16.13,16.364c-.201,0-.391-.122-.467-.32-1.044-2.718-1.495-6.019-1.307-9.544,0-.619.083-1.548.807-2.152.856-.667,2.031-.475,3.32.528,1.593,1.143,3.094,2.517,4.445,4.071.181.209.158.524-.05.706-.208.181-.523.158-.706-.05-1.3-1.496-2.742-2.817-4.288-3.927-.533-.414-1.492-1.016-2.095-.551-.296.248-.435.684-.435,1.4-.182,3.413.248,6.571,1.241,9.158.099.258-.029.548-.287.646-.06.022-.12.033-.18.033Z" fill="#000" stroke-width="0"/>
      </g>
      <g id="q" data-name="path490">
        <path d="M14.739,38.339c-.692,0-1.386-.028-2.082-.091-5.354-.478-10.18-3.498-12.595-7.883-.083-.15-.083-.332,0-.482.083-.149.236-.247.407-.258,4.083-.256,8.038-2.396,10.58-5.727,1.028-1.389,1.808-2.885,2.633-4.47.566-1.087,1.152-2.211,1.826-3.297,3.31-5.278,8.846-9.281,15.189-10.985,6.251-1.656,12.138-1.365,17.997.889.258.1.386.389.287.646-.099.257-.384.385-.646.287-5.655-2.178-11.341-2.456-17.38-.856-6.101,1.64-11.423,5.484-14.599,10.549-.653,1.053-1.229,2.159-1.787,3.229-.808,1.549-1.642,3.151-2.722,4.609-2.553,3.345-6.436,5.564-10.515,6.05,2.363,3.734,6.665,6.278,11.414,6.702,4.894.44,9.751-.845,14.708-2.313,6.43-1.969,14.541-4.942,20.194-10.497.198-.192.515-.19.707.006.193.197.191.514-.006.707-5.809,5.707-14.064,8.738-20.607,10.742-4.364,1.293-8.652,2.442-13.004,2.442Z" fill="#000" stroke-width="0"/>
      </g>
      <g id="r" data-name="path491">
        <path d="M76.233,74.435c-5.39,0-10.854-3.273-13.808-8.35-2.494-4.208-3.656-9.479-3.656-16.581,0-1.926.041-3.738.082-5.516.079-3.46.154-6.729-.081-10.438-.018-.275.191-.513.468-.53.276-.022.514.191.53.468.238,3.753.162,7.042.083,10.524-.041,1.77-.082,3.574-.082,5.492,0,6.916,1.118,12.024,3.519,16.075,2.633,4.525,7.37,7.527,12.147,7.83-1.866-1.83-2.277-5.09-1.481-7.72.592-1.953,1.679-3.687,2.729-5.362.586-.934,1.19-1.898,1.701-2.888,3.258-6.137,3.367-14.036.328-23.483-1.827-5.691-5.424-13.192-12.182-16.614-.247-.125-.346-.426-.221-.672.124-.246.427-.343.672-.221,7.066,3.578,10.797,11.329,12.682,17.2,3.126,9.714,2.994,17.874-.394,24.254-.526,1.021-1.143,2.004-1.739,2.955-1.063,1.695-2.067,3.296-2.62,5.121-.841,2.776-.199,6.332,2.33,7.474.209.095.327.319.286.546-.041.226-.231.395-.461.409-.276.018-.555.026-.833.026Z" fill="#000" stroke-width="0"/>
      </g>
      <g id="s" data-name="path492">
        <path d="M57.564,34.841c-.191,0-.375-.111-.457-.298-.112-.253.003-.548.255-.659,4.677-2.062,7.574-4.73,8.858-8.156,1.453-3.875.793-8.678-2.021-14.683-2.824-6.025-6.727-9.836-9.908-9.67-2.281.107-4.213,2.195-5.588,6.037-3.823,10.687.645,19.432.689,19.519.128.245.034.547-.21.675-.245.129-.547.034-.675-.21-.195-.37-4.723-9.205-.746-20.319,1.923-5.376,4.587-6.61,6.482-6.7,3.618-.166,7.819,3.752,10.861,10.245,2.933,6.261,3.604,11.317,2.051,15.458-1.364,3.64-4.524,6.573-9.391,8.719-.066.029-.135.043-.202.043Z" fill="#000" stroke-width="0"/>
      </g>
      <g id="t" data-name="path493">
        <path d="M57.564,34.841c-.15,0-.3-.068-.398-.198-.167-.22-.124-.533.097-.7,2.97-2.25,4.36-6.771,4.199-10.075-.155-3.19-1.367-6.611-3.603-10.166-1.219-2.132-2.462-3.654-3.924-4.809-.232-.227-.5-.371-.799-.445-.295-.057-.785.127-1.183.443-.958.812-1.755,2.041-2.355,3.644-1.845,5.073-1.86,10.327-.041,14.791.104.256-.019.547-.274.651-.253.104-.547-.018-.651-.274-1.913-4.693-1.902-10.203.029-15.515.663-1.769,1.557-3.137,2.658-4.069.646-.514,1.4-.75,2.021-.649.511.126.943.363,1.258.677,1.523,1.199,2.846,2.812,4.119,5.041,2.316,3.685,3.58,7.268,3.743,10.632.175,3.565-1.348,8.462-4.594,10.921-.09.068-.196.102-.302.102Z" fill="#000" stroke-width="0"/>
      </g>
      <g id="u" data-name="path494">
        <path d="M65.33,141.733c-2.336,0-4.769-.535-7.245-1.596-2.518-1.008-4.005-3.692-3.524-6.38,2.077-12.101.371-24.708-4.805-35.497-.119-.249-.014-.547.235-.667.246-.116.548-.016.667.235,5.264,10.974,6.999,23.794,4.888,36.102-.398,2.226.831,4.446,2.922,5.283,2.688,1.15,5.298,1.653,7.768,1.49.302-.019.616-.034.941-.049,2.768-.131,5.904-.279,6.687-2.915.335-1.252.25-2.52.16-3.861-.354-4.258-.985-8.584-1.874-12.853-.193-.964-.405-1.898-.615-2.821-.684-3.007-1.33-5.848-1.19-9.056.19-4.085.77-7.955,1.723-11.503.071-.266.345-.422.612-.353.267.071.425.346.353.612-.933,3.479-1.501,7.276-1.688,11.288-.134,3.073.498,5.85,1.166,8.789.212.931.427,1.874.62,2.844.896,4.304,1.533,8.671,1.892,12.978.092,1.371.187,2.781-.194,4.207-.989,3.329-4.812,3.51-7.603,3.643-.319.015-.629.029-.925.048-.321.021-.645.031-.969.031Z" fill="#000" stroke-width="0"/>
      </g>
      <g id="v" data-name="path495">
        <path d="M108.824,135.795c-2.037,0-4.041-.338-6.106-1.026-3.329-1.141-5.4-4.62-4.821-8.094,1.786-11.702.017-23.898-4.982-34.335-.119-.249-.014-.548.235-.667.246-.117.547-.016.667.235,5.085,10.615,6.885,23.019,5.067,34.924-.5,3.005,1.286,6.006,4.154,6.989,2.188.729,4.314,1.047,6.458.96,4.047-.202,7.221-.634,8.149-4.115.339-1.444.25-3.048.164-4.6-.419-4.667-1.597-8.869-2.844-13.318-.335-1.196-.673-2.401-.999-3.628-.421-1.768-.567-3.637-.464-5.894.188-4.078.768-7.948,1.72-11.502.073-.266.347-.417.613-.354.267.072.425.346.354.613-.935,3.484-1.503,7.282-1.688,11.288-.098,2.161.04,3.942.436,5.604.321,1.208.658,2.409.992,3.602,1.26,4.494,2.449,8.74,2.878,13.516.092,1.639.185,3.316-.191,4.915-1.193,4.477-5.563,4.695-9.074,4.871-.24.01-.479.015-.717.015Z" fill="#000" stroke-width="0"/>
      </g>
      <g id="w" data-name="path496">
        <path d="M113.18,127.407c-.571,0-1.19-.037-1.894-.08-.389-.024-.805-.05-1.256-.071-4.026-.187-7.868-1.435-11.257-2.535-.263-.085-.406-.367-.321-.63s.37-.406.63-.321c3.329,1.082,7.103,2.308,10.995,2.488.456.021.877.047,1.27.071,2.809.17,3.977.243,6.268-1.827.204-.186.521-.169.706.036s.169.521-.036.706c-1.977,1.786-3.3,2.163-5.104,2.163Z" fill="#000" stroke-width="0"/>
      </g>
      <g id="x" data-name="path497">
        <path d="M88.243,117.55c-3.257,0-6.521-.388-9.711-1.164-.269-.064-.433-.335-.367-.604.064-.268.331-.432.604-.367,6.573,1.599,13.467,1.507,19.938-.266.27-.071.542.085.614.351.073.266-.084.541-.351.614-3.492.956-7.105,1.436-10.727,1.436Z" fill="#000" stroke-width="0"/>
      </g>
      <g id="y" data-name="path498">
        <path d="M65.15,132.804c-2.863,0-5.958-.882-9.427-2.64-.247-.125-.346-.426-.221-.672.126-.247.428-.344.672-.221,7.102,3.602,12.308,3.403,17.408-.662.216-.173.53-.137.702.079.173.216.137.53-.079.702-2.858,2.278-5.809,3.413-9.056,3.413Z" fill="#000" stroke-width="0"/>
      </g>
      <g id="z" data-name="path499">
        <path d="M48.736,122.808c-4.089,0-8.28-.929-11.617-2.697-.244-.129-.337-.432-.207-.676.128-.243.431-.337.676-.207,5.053,2.676,12.157,3.346,17.678,1.668.269-.08.544.069.624.333.08.265-.068.544-.333.624-2.113.643-4.449.955-6.82.955Z" fill="#000" stroke-width="0"/>
      </g>
    </g>
  </g>
</svg>