<?xml version="1.0" encoding="UTF-8"?>
<svg id="b" data-name="Layer 2" xmlns="http://www.w3.org/2000/svg" width="151.821" height="148.335" viewBox="0 0 151.821 148.335">
  <g id="c" data-name="OBJECTS">
    <g id="d" data-name="Monkey Outline">
      <g id="e" data-name="path342">
        <path d="M142.138,92.297c-.339,0-.723-.083-1.151-.25-.269-.105-.403-.408-.298-.678.105-.27.409-.404.678-.298.312.122.872.292,1.112.07.397-.369.228-1.704-.012-2.491-.072-.236.032-.49.248-.61.216-.119.487-.072.648.115.011.013,1.134,1.287,1.907.652.68-.602-.187-1.605-.224-1.647-.171-.195-.173-.485-.006-.683s.453-.244.675-.107c.008.005.979.583,1.514.093.292-.236-.055-1.246-.53-1.972-.097-.148-.112-.335-.041-.498.071-.162.22-.278.395-.307.32-.053.82-.244.927-.463.04-.083.016-.207-.072-.367-.152-.292-.292-.625-.443-.99-.59-1.419-1.326-3.185-3.478-4.021-.369-.132-.738-.271-1.094-.404-2.307-.865-3.973-1.49-5.541-.499-2.083,1.318-10.789,4.161-11.158,4.281l-1.857.543c-.28.081-.568-.078-.649-.355-.081-.278.078-.568.355-.649l1.842-.538c.074-.024,8.934-2.917,10.908-4.166,2.007-1.269,4.074-.494,6.468.403.352.132.716.269,1.093.404,2.581,1.003,3.446,3.082,4.078,4.6.139.334.266.641.399.897.321.582.227,1.041.09,1.321-.207.424-.629.683-1.002.836.385.77.837,2.058-.006,2.737-.418.384-.929.492-1.413.447.165.623.1,1.328-.549,1.901-.728.598-1.535.491-2.204.155.067.766-.007,1.642-.555,2.15-.279.258-.631.387-1.053.387Z" fill="#000" stroke-width="0"/>
      </g>
      <g id="f" data-name="path343">
        <path d="M143.075,89.283c-.23,0-.441-.153-.505-.386-.34-1.253-.83-2.047-1.498-2.429-1.138-.649-2.86-.176-5.041.423l-.904.246c-.276.07-.566-.091-.641-.371-.074-.279.092-.566.371-.641l.896-.244c2.319-.638,4.322-1.187,5.837-.323.922.526,1.572,1.528,1.989,3.063.076.279-.089.566-.368.643-.046.012-.092.018-.138.018Z" fill="#000" stroke-width="0"/>
      </g>
      <g id="g" data-name="path344">
        <path d="M145.625,87.416c-.176,0-.348-.089-.447-.25-.322-.525-.587-.989-.821-1.399-1.317-2.307-1.486-2.605-5.552-2.258-.232.016-.451.023-.667.03-.769.025-1.433.047-1.985.431-.237.165-.563.106-.729-.131-.165-.237-.106-.563.131-.729.806-.561,1.691-.59,2.548-.618.204-.007.411-.014.621-.028,4.562-.386,5.042.155,6.541,2.783.229.401.489.857.804,1.371.151.246.074.568-.173.72-.085.052-.18.077-.273.077Z" fill="#000" stroke-width="0"/>
      </g>
      <g id="h" data-name="path345">
        <path d="M147.244,84.987c-.191,0-.375-.104-.467-.286-2.67-5.245-4.035-4.847-8.082-3.667-.606.176-1.264.368-1.983.556-.28.074-.565-.094-.639-.374s.094-.565.374-.639c.709-.186,1.357-.374,1.955-.548,4.157-1.211,6.245-1.818,9.308,4.198.131.257.029.573-.229.704-.076.039-.157.057-.237.057Z" fill="#000" stroke-width="0"/>
      </g>
      <g id="i" data-name="path303-1">
        <path d="M62.913,148.335c-2.987,0-6.209-.312-9.654-.994-13.354-2.644-19.491-12.976-21.51-17.295-2.652-5.675-3.26-11.36-1.549-14.486,2.251-4.112,4.555-4.254,5.73-3.97,1.953.47,3.369,2.668,3.445,5.346.174,6.125,1.888,11.458,5.095,15.854,5.31,7.385,15.549,8.597,23.362,7.273,5.734-1.018,9.754-3.154,11.945-6.348,2.048-2.985,2.593-7.027,1.621-12.015-.055-.284.13-.559.414-.614.284-.057.558.129.614.414,1.028,5.273.427,9.582-1.785,12.807-2.356,3.434-6.605,5.717-12.63,6.787-8.128,1.38-18.8.082-24.389-7.69-3.333-4.567-5.114-10.099-5.294-16.439-.062-2.171-1.173-4.004-2.644-4.358-1.499-.36-3.167.897-4.567,3.455-1.532,2.799-.898,8.24,1.579,13.54,1.951,4.175,7.881,14.162,20.765,16.711,18.2,3.604,29.924-3.333,33.467-11.804,2.729-6.524,1.896-11.404.718-14.35-.107-.269.023-.573.292-.68.267-.108.573.023.68.292,1.251,3.126,2.141,8.292-.724,15.143-3.027,7.238-11.682,13.421-24.982,13.421Z" fill="#000" stroke-width="0"/>
      </g>
      <g id="j" data-name="path341">
        <path d="M92.104,121.953c-1.786,0-3.255-.738-4.332-1.551-.23-.174-.276-.502-.103-.733.174-.23.502-.276.733-.103,2.275,1.718,4.73,1.787,7.297.208,3.688-2.27,5.054-5.419,6.374-8.465.985-2.273,1.916-4.421,3.759-5.839.451-.336.903-.682,1.36-1.031l.391-.298c.229-.176.559-.131.733.099.175.23.131.558-.099.733l-.39.298c-.461.352-.916.7-1.364,1.034-1.623,1.248-2.461,3.182-3.431,5.421-1.32,3.046-2.816,6.498-6.785,8.94-1.516.933-2.906,1.288-4.145,1.288Z" fill="#000" stroke-width="0"/>
      </g>
      <g id="k" data-name="path341">
        <path d="M130.265,84.226c-.066,0-.133-.012-.198-.039l-8.365-3.41c-.196-.08-.324-.27-.326-.482-.001-.211.125-.403.32-.485l3.973-1.675c-5.874-.18-21.315-.24-28.104,3.712-.249.146-.57.061-.715-.189s-.061-.57.189-.715c8.703-5.069,30.111-3.812,31.019-3.756.243.015.443.195.484.435.041.24-.089.476-.312.57l-4.962,2.092,7.196,2.933c.268.109.396.415.287.683-.083.203-.279.326-.485.326Z" fill="#000" stroke-width="0"/>
      </g>
      <g id="l" data-name="path341">
        <path d="M133.697,104.901c-.044,0-.089-.005-.133-.017-.067-.018-6.718-1.768-11.554-3.243-.276-.084-.432-.377-.348-.653.084-.277.375-.434.653-.348,3.607,1.1,8.232,2.355,10.355,2.923l-3.086-5.804c-.135-.255-.039-.572.217-.708.254-.135.572-.039.708.217l3.649,6.864c.097.184.077.407-.052.57-.101.127-.253.199-.411.199Z" fill="#000" stroke-width="0"/>
      </g>
      <g id="m" data-name="path340">
        <path d="M133.221,41.739c-.219,0-.423-.139-.497-.358-.091-.274.057-.571.331-.662.123-.041,12.249-4.081,14.2-4.911.957-.423,1.591-1.006,1.649-1.519.031-.274-.123-.54-.458-.79-.5-.373-2.157-.003-3.147.218-1.263.282-1.896.421-2.219-.051-.098-.144-.22-.449.07-.883.523-.785,1.696-1.101,3.054-1.466,1.147-.309,2.448-.659,3.414-1.331.741-.516,1.129-1.013,1.154-1.478.023-.418-.254-.882-.825-1.379-.371-.107-2.375.762-3.568,1.281-2.357,1.025-3.844,1.638-4.658,1.298-.239-.1-.413-.275-.503-.509-.486-1.25,1.27-2.038,3.492-3.036,1.347-.604,2.874-1.29,3.646-2.021.761-.72,1.133-1.308,1.107-1.747-.021-.355-.316-.728-.958-1.206-.586-.224-3.548,1.574-5.136,2.541-2.646,1.611-3.55,2.108-4.127,1.838-.207-.097-.344-.286-.378-.517-.168-1.155,1.609-2.427,4.339-4.237.493-.327.962-.638,1.359-.917.596-.42.824-.966.625-1.498-.227-.607-1.04-1.2-2.292-1.074-1.352.139-4.869,3.286-7.437,5.584-2.373,2.124-3.75,3.334-4.45,3.507-.378.117-.768.05-1.094-.204-1.206-.935-1.17-4.523-1.099-6.022.117-1.374-.124-2.363-.675-2.805-.447-.358-1.149-.389-2.087-.095-1.558.491-1.769,5.328-.537,12.322.05.285-.14.556-.425.606-.288.051-.556-.14-.606-.425-.998-5.665-1.59-12.605,1.253-13.502,1.291-.407,2.319-.313,3.056.276.845.676,1.213,1.953,1.065,3.691-.121,2.555.172,4.719.697,5.126.04.032.076.052.172.022.51-.127,2.462-1.874,4.031-3.278,3.711-3.322,6.459-5.685,8.028-5.846,1.539-.163,2.935.56,3.379,1.748.368.982-.016,2.024-1.002,2.72-.404.285-.882.602-1.384.935-.916.607-2.788,1.848-3.549,2.653.695-.348,1.752-.992,2.592-1.503,3.61-2.198,5.408-3.159,6.307-2.486.652.486,1.325,1.102,1.376,1.984.046.783-.409,1.6-1.433,2.568-.901.853-2.444,1.546-3.937,2.216-1.031.463-2.725,1.223-2.927,1.644.583.044,2.55-.791,3.75-1.312,2.505-1.09,3.958-1.681,4.656-1.126.845.736,1.242,1.485,1.201,2.241-.044.804-.583,1.571-1.602,2.28-1.115.776-2.509,1.151-3.739,1.483-.336.09-.667.179-.972.272,1.343-.292,2.769-.535,3.568.061.636.474.946,1.094.872,1.746-.102.907-.93,1.768-2.272,2.361-1.998.85-13.786,4.777-14.286,4.944-.055.018-.111.027-.166.027Z" fill="#000" stroke-width="0"/>
      </g>
      <g id="n" data-name="path299-6">
        <path d="M22.209,42.804c-.057,0-.114-.009-.17-.028-6.054-2.085-16.425-5.678-17.862-6.312-1.401-.586-2.271-1.448-2.376-2.359-.076-.653.246-1.275.904-1.751.795-.575,2.211-.353,3.484-.077-.292-.091-.604-.178-.92-.267-1.22-.342-2.602-.729-3.714-1.484C.558,29.818.039,29.056.002,28.256c-.035-.758.358-1.496,1.168-2.194.698-.601,2.169.001,4.708,1.116,1.165.511,3.084,1.336,3.66,1.303-.221-.417-1.891-1.178-2.91-1.643-1.495-.682-3.041-1.387-3.937-2.247-.994-.955-1.437-1.761-1.395-2.535.048-.874.716-1.5,1.364-1.998.875-.673,2.64.273,6.185,2.434.873.532,1.976,1.205,2.684,1.552-.733-.775-2.57-1.99-3.565-2.648-.502-.333-.982-.65-1.391-.937-1.001-.704-1.393-1.757-1.022-2.748.372-.994,1.553-1.915,3.369-1.725,1.513.112,4.219,2.448,7.876,5.734,1.613,1.45,3.62,3.254,4.125,3.366.076.02.124.017.198-.046.567-.479.9-2.782.741-5.132-.122-1.799.261-3.097,1.105-3.753.727-.563,1.738-.639,3.004-.221,3.047,1.004,1.733,7.348,1.028,10.757-.076.369-.143.691-.192.952-.256,1.361.883,2.748,1.584,3.454.204.205.203.537-.002.74-.204.204-.536.203-.74-.002-1.034-1.041-2.198-2.646-1.87-4.385.05-.267.118-.595.196-.971.547-2.645,1.83-8.839-.331-9.551-.916-.302-1.6-.284-2.035.054-.549.426-.799,1.44-.703,2.856.013.195.308,4.805-1.11,6.002-.322.272-.707.364-1.109.267-.729-.161-2.146-1.412-4.589-3.607-2.523-2.269-5.979-5.375-7.269-5.471-1.269-.131-2.072.453-2.295,1.049-.202.539.033,1.094.645,1.524.401.282.872.594,1.366.92,2.685,1.776,4.438,3.026,4.34,4.175-.042.27-.183.458-.391.555-.591.27-1.509-.232-4.189-1.867-1.547-.943-4.43-2.688-5.023-2.485-.629.487-.915.854-.935,1.213-.024.435.337,1.015,1.075,1.723.767.736,2.296,1.434,3.645,2.049,2.209,1.007,3.954,1.802,3.476,3.038-.089.231-.262.405-.499.504-.801.331-2.262-.274-4.581-1.291-1.202-.527-3.215-1.403-3.642-1.257-.517.454-.788.909-.769,1.329.021.462.393.953,1.103,1.458.961.653,2.256,1.016,3.399,1.336,1.369.384,2.552.715,3.069,1.493.287.431.165.734.067.876-.323.469-.944.328-2.18.049-.996-.225-2.661-.6-3.189-.218-.348.251-.508.515-.477.782.046.399.53,1.007,1.749,1.518,1.464.645,12.929,4.609,17.79,6.283.273.094.418.392.325.666-.075.217-.278.353-.495.353Z" fill="#000" stroke-width="0"/>
      </g>
      <g id="o" data-name="path81-35-8">
        <path d="M115.902,103.304c-.969,0-1.962-.11-2.97-.332-.282-.062-.461-.341-.399-.624s.336-.463.624-.399c1.667.365,3.282.405,4.805.118,2.174-.412,5.25-1.917,7.964-3.245,3.248-1.588,5.136-2.474,6.074-2.231.818.213,1.31.714,1.705,1.117.508.518.846.858,1.75.679.431-.084.56-.265.621-.394.249-.534-.153-1.579-.387-2.001-.13-.234-.061-.528.158-.682.219-.153.52-.116.696.085.011.013,1.132,1.287,1.906.652.673-.595-.188-1.606-.224-1.649-.169-.195-.171-.486-.003-.682.167-.198.452-.244.673-.107.007.005.979.582,1.514.093.291-.236-.055-1.247-.531-1.973-.097-.148-.112-.335-.041-.497.071-.162.22-.278.395-.307.32-.053.821-.244.927-.463.041-.083.016-.207-.072-.367-.151-.292-.291-.625-.442-.989-.591-1.419-1.326-3.185-3.479-4.022-.369-.132-.736-.27-1.092-.403-2.307-.864-3.975-1.49-5.542-.499-2.085,1.319-9.791,3.807-10.118,3.912-.274.09-.569-.062-.658-.338-.089-.275.062-.57.338-.658.079-.025,7.905-2.552,9.878-3.8,2.005-1.27,4.074-.494,6.469.404.352.131.714.268,1.091.403,2.582,1.003,3.447,3.082,4.079,4.601.139.333.265.64.399.896.321.582.227,1.041.09,1.321-.207.424-.629.683-1.002.836.385.77.837,2.058-.006,2.737-.417.383-.932.484-1.413.447.165.622.1,1.327-.549,1.901-.643.528-1.346.506-1.962.264.066.443.051.914-.141,1.327-.167.358-.54.818-1.367.979-1.462.293-2.147-.41-2.7-.973-.367-.374-.684-.697-1.221-.836-.622-.162-3.242,1.126-5.352,2.158-2.773,1.357-5.917,2.895-8.229,3.333-.733.139-1.486.208-2.253.208Z" fill="#000" stroke-width="0"/>
      </g>
      <g id="p" data-name="path335">
        <path d="M82.432,122.133c-2.635,0-5.836-.641-9.75-1.901-9.055-2.916-11.027-13.571-11.457-17.974l-.708,1.369c-.097.188-.293.305-.509.281-.211-.018-.39-.161-.454-.363-.015-.046-1.492-4.649-4.015-9.637-4.912-14.254-3.399-25.044-3.025-27.158-.849-.506-1.68-1.006-2.502-1.501-6.22-3.743-12.095-7.279-21.338-10.994-.238-.096-.372-.351-.315-.602.057-.251.289-.421.543-.407l6.347.404c-1.747-1.208-4.861-3.189-8.159-4.458-5.123-1.97-11.409-6.139-11.674-6.316-.187-.124-.273-.354-.216-.57.058-.216.247-.373.471-.388l6.186-.418-5.948-4.287c-.184-.133-.262-.37-.192-.585.07-.216.271-.363.498-.363h0l8.461.002-1.791-5.419c-.058-.176-.019-.371.104-.51.124-.14.311-.203.494-.167l4.232.832-1.315-4.788c-.06-.218.027-.45.215-.575.188-.126.436-.115.613.025l4.595,3.616c.227.179.267.508.087.735-.178.228-.506.268-.735.087l-3.345-2.633,1.118,4.07c.048.175.002.362-.122.495-.123.132-.308.19-.484.157l-4.182-.822,1.737,5.256c.053.159.025.334-.073.471-.099.136-.256.217-.424.217h0l-7.564-.002,5.81,4.188c.179.129.258.356.197.569-.061.212-.248.363-.468.378l-6.053.409c2.147,1.348,6.508,3.961,10.144,5.359,5.141,1.977,9.686,5.511,9.877,5.66.181.141.248.384.167.598-.081.214-.283.352-.522.336l-5.018-.319c7.697,3.31,13.002,6.502,18.583,9.861.922.555,1.855,1.116,2.812,1.687.194.116.292.343.243.563-.025.112-2.438,11.413,2.895,26.899,1.776,3.504,3.044,6.851,3.65,8.556l1.014-1.961c.11-.214.353-.328.588-.268.234.057.4.267.4.508,0,.154.133,15.448,10.85,18.899,11.632,3.745,15.158,1.099,17.235-2.32.75-1.192,1.406-2.79,2.101-4.48,1.667-4.056,3.557-8.653,7.472-9.054,4.181-.429,11.123,1.107,13.832,1.766l-2.056-4.063c-.065-.129-.074-.279-.025-.415s.152-.245.285-.302l6.241-2.694-4.375-3.039c-.155-.107-.239-.29-.222-.478.017-.188.134-.352.306-.43.051-.023,4.906-2.279,7.035-8.369-4.891,1.626-8.686.435-15.158-1.88-6.888-2.463-11.898-1.48-11.948-1.471-.138.027-.279,0-.395-.077-.116-.077-.197-.197-.224-.333l-2.559-12.759c-.043-.218.055-.439.246-.553.24-.143,24.036-14.307,26.581-15.803,2.059-1.209,8.812-4.66,11.585-6.071l-2.261-.643c-.212-.06-.363-.247-.379-.466-.016-.22.107-.426.309-.516l7.261-3.244-5.076-.352c-.198-.014-.372-.138-.448-.322-.076-.184-.041-.395.09-.544l2.592-2.969-4.635.79c-.216.033-.425-.062-.536-.245-.111-.184-.099-.417.031-.588l4.281-5.628-4.588.757c-.285.045-.554-.146-.602-.432-.047-.285.146-.554.432-.602l5.887-.971c.21-.035.422.063.533.247s.098.416-.032.587l-4.275,5.62,4.776-.813c.222-.034.437.067.544.26.108.193.083.434-.062.6l-2.866,3.282,6.117.423c.24.017.438.194.479.431.042.236-.083.471-.302.569l-7.861,3.512,2.161.615c.208.059.357.239.378.454.021.214-.092.419-.285.517-.102.051-10.19,5.158-12.72,6.644-2.381,1.399-23.403,13.912-26.257,15.61l2.387,11.901c1.494-.201,6.029-.537,11.992,1.596,7.363,2.633,10.601,3.446,15.429,1.523.186-.073.395-.036.544.097.148.133.208.338.154.53-1.621,5.789-5.473,8.627-7.142,9.619l4.446,3.089c.156.108.241.293.222.482-.019.189-.139.353-.313.428l-6.595,2.847,2.323,4.591c.093.184.069.406-.061.566-.13.161-.342.229-.541.176-.096-.025-9.59-2.53-14.576-2.019-3.292.337-4.979,4.442-6.61,8.411-.713,1.734-1.386,3.372-2.179,4.633-1.907,3.137-4.626,4.667-8.697,4.667Z" fill="#000" stroke-width="0"/>
      </g>
      <g id="q" data-name="path339">
        <path d="M75.949,95.293c-.122,0-.244-.042-.342-.127-.147-.127-3.614-3.172-5.432-8.654-1.01-3.047-1.69-4.96-2.088-6.04l-.956,2.085c-.084.184-.267.303-.47.305-.174-.007-.388-.112-.477-.295-.074-.152-1.811-3.785-2.204-9.59-.388-5.734-.16-10.943-.157-10.995.013-.289.276-.51.546-.5.289.013.513.258.5.546-.002.052-.228,5.205.156,10.877.256,3.785,1.121,6.649,1.658,8.114l.973-2.122c.087-.189.259-.307.486-.305.208.004.395.132.474.325.031.075.775,1.901,2.553,7.264,1.728,5.211,5.089,8.162,5.123,8.191.219.189.243.52.054.738-.104.12-.25.181-.396.181Z" fill="#000" stroke-width="0"/>
      </g>
      <g id="r" data-name="path339">
        <path d="M89.757,82.903c-.019,0-.039,0-.059-.003-.287-.032-.494-.291-.462-.578l.721-6.47c.023-.206.165-.379.363-.441.199-.062.414-.002.551.154l1.226,1.396-2.478-12.477c-.057-.284.127-.559.411-.615.286-.057.559.128.615.411l2.858,14.39c.046.232-.069.467-.282.571-.21.106-.468.055-.625-.124l-1.73-1.971-.59,5.292c-.03.268-.256.465-.52.465Z" fill="#000" stroke-width="0"/>
      </g>
      <path d="M113.188,50.228c-.234,0-.448-.158-.507-.396-.07-.28.1-.565.38-.635,5.9-1.48,10.203-5.981,11.511-12.04,1.199-5.556-.384-11.016-4.033-13.911-2.901-2.299-5.998-2.95-9.204-1.934-.275.089-.569-.065-.657-.341-.087-.275.065-.57.341-.657,3.557-1.127,6.979-.417,10.17,2.111,3.958,3.141,5.688,9.01,4.405,14.952-1.393,6.458-5.983,11.255-12.279,12.834-.043.011-.085.016-.128.016Z" fill="#000" stroke-width="0"/>
      <path d="M114.126,45.859c-.194,0-.38-.108-.471-.293-.127-.26-.02-.573.24-.7.885-.433,1.729-.985,2.507-1.64,3.099-2.602,4.83-6.059,4.749-9.485-.074-3.121-1.615-5.916-4.458-8.081-1.353-1.048-2.803-1.491-4.31-1.311-.288.039-.547-.172-.581-.459-.034-.287.172-.547.459-.581,1.792-.208,3.496.302,5.07,1.521,3.101,2.362,4.785,5.436,4.866,8.887.089,3.746-1.778,7.503-5.122,10.311-.843.71-1.759,1.309-2.721,1.779-.074.036-.152.053-.229.053Z" fill="#000" stroke-width="0"/>
      <g id="s" data-name="path310">
        <path d="M83.134,65.095c-9.734,0-18.46-2.287-22.075-3.381-6.961-2.109-12.342-8.157-14.042-15.783-.063-.282.115-.562.397-.625.279-.067.562.114.625.397,1.619,7.257,6.724,13.008,13.324,15.008,6.17,1.869,27.49,7.279,42.726-1.623,13.286-7.762,9.155-22.154,8.972-22.763-.017-.058-.024-.119-.021-.18.01-.173.853-17.464-9.471-27.643-5.654-5.575-13.625-8.041-23.679-7.338-14.499,1.018-24.438,6.729-28.742,16.517-.116.264-.424.385-.69.268-.264-.116-.385-.425-.268-.69C53.308,10.171,60.979,1.443,79.817.121c10.374-.729,18.613,1.843,24.492,7.642,10.268,10.129,9.835,26.968,9.78,28.353.352,1.296,3.978,16.02-9.472,23.878-6.613,3.863-14.322,5.102-21.483,5.102Z" fill="#000" stroke-width="0"/>
      </g>
      <path d="M84.884,32.822c.081-2.161-1.366-3.969-3.232-4.039-1.866-.07-3.445,1.625-3.525,3.786-.081,2.161,1.366,3.969,3.232,4.039,1.866.07,3.445-1.625,3.525-3.786Z" fill="#000" stroke-width="0"/>
      <path d="M104.381,33.541c.081-2.161-1.366-3.969-3.232-4.039-1.866-.07-3.445,1.625-3.525,3.786s1.366,3.969,3.232,4.039c1.866.07,3.445-1.625,3.525-3.786Z" fill="#000" stroke-width="0"/>
      <g id="t" data-name="path311">
        <path d="M107.206,24.465c-.204,0-.397-.119-.482-.317-.699-1.635-1.865-2.81-3.281-3.308-1.353-.475-2.846-.314-4.316.471-.255.134-.572.039-.708-.215-.136-.255-.04-.572.215-.708,1.733-.926,3.517-1.111,5.157-.534,1.696.596,3.08,1.975,3.896,3.883.113.266-.01.574-.275.688-.067.028-.137.042-.206.042Z" fill="#000" stroke-width="0"/>
      </g>
      <g id="u" data-name="path312">
        <path d="M76.071,24.343c-.076,0-.153-.017-.227-.052-.26-.125-.37-.438-.245-.699.886-1.841,2.312-3.136,4.015-3.647,1.659-.497,3.504-.214,5.199.8.248.148.329.47.18.718-.148.247-.469.329-.718.18-1.458-.873-2.965-1.112-4.36-.696-1.418.426-2.616,1.526-3.373,3.099-.09.187-.277.296-.472.296Z" fill="#000" stroke-width="0"/>
      </g>
      <path d="M86.755,45.182c-.411,0-.874-.087-1.376-.297-1.225-.459-1.992-2.341-1.658-4.101.242-1.276,1.416-4.242,7.265-4.139,4.344.03,6.241,1.776,6.985,2.815.757,1.057,1.001,2.315.652,3.365-.262.789-.776,1.349-1.488,1.621-1.09.416-2.331.042-2.759-.204-.158-.091-.246-.199-.294-.302-.419.302-.93.569-1.553.69-1.478.288-2.805-.575-3.885-1.307.13.241.145.534.023.826-.215.514-.909,1.033-1.912,1.033ZM90.728,37.691c-3.409,0-5.581,1.192-5.979,3.289-.276,1.454.417,2.708,1.015,2.932.891.373,1.452.177,1.653.077.124-.062.198-.128.24-.177-.615-.286-1.682-1.037-1.497-1.792.047-.194.242-.64,1.083-.568.58.049,1.184.46,1.884.935.986.67,2.105,1.427,3.201,1.216.895-.174,1.491-.771,1.97-1.251.414-.414.772-.77,1.25-.703.287.041.524.23.706.562.253.4.212.743.131.955-.067.174-.178.312-.313.423.229-.002.467-.035.689-.12.42-.16.704-.479.868-.973.244-.733.053-1.64-.51-2.426-.627-.876-2.261-2.351-6.146-2.377-.083-.001-.165-.002-.246-.002ZM94.896,43.335l-.26.454.26-.454h0ZM95.371,42.773c-.029.026-.062.055-.095.086.044-.02.083-.04.111-.06-.004-.006-.01-.015-.016-.026Z" fill="#000" stroke-width="0"/>
      <g id="v" data-name="path314">
        <path d="M92.117,53.223c-.07,0-.142-.014-.211-.044-.265-.117-.384-.426-.268-.69,1.511-3.422-.341-7.531-.36-7.572-.121-.263-.006-.574.257-.694.264-.121.574-.005.694.257.085.186,2.066,4.583.367,8.432-.086.196-.278.312-.479.312Z" fill="#000" stroke-width="0"/>
      </g>
      <path d="M88.757,64.141c-11.559,0-16.46-6.429-17.192-12.469-.477-3.94.792-7.527,2.962-8.777-3.36-2.553-8.358-7.339-9.406-13.795-.703-4.333.51-8.696,3.606-12.968,2.407-3.348,7.58-4.562,13.179-3.084,5.151,1.357,8.907,4.494,9.957,8.193,1.561-2.218,5.468-7.065,9.864-7.162,2.392-.07,4.578,1.324,6.435,4.095,4.178,6.195,3.495,13.883,1.463,19.013-1.174,2.966-2.783,5.093-4.42,5.903,1.978,2.487,2.956,7.401,1.194,11.858-1.344,3.399-5.399,9.113-17.463,9.191-.06,0-.12,0-.179,0ZM77.295,13.472c-3.364,0-6.192,1.147-7.719,3.273-2.928,4.039-4.078,8.139-3.421,12.187,1.069,6.587,6.561,11.392,9.738,13.669.167.119.249.325.209.526s-.192.361-.392.408c-2.147.515-3.569,4.183-3.105,8.011.33,2.729,2.496,11.611,16.325,11.547,8.484-.055,14.343-3.084,16.496-8.529,1.703-4.307.604-9.329-1.491-11.318-.14-.133-.195-.332-.145-.518.051-.186.201-.329.389-.372,1.517-.344,3.272-2.525,4.473-5.555,1.934-4.882,2.592-12.186-1.359-18.043h0c-1.644-2.455-3.506-3.671-5.54-3.633-5.01.109-9.663,7.66-9.709,7.736-.117.191-.341.29-.561.239-.219-.049-.382-.231-.407-.455-.502-4.635-5.397-7.522-9.436-8.586-1.503-.396-2.969-.588-4.345-.588Z" fill="#000" stroke-width="0"/>
      <path d="M46.693,46.743c-7.414,0-12.765-3.399-15.011-9.733-2.77-7.809.216-17.896,6.264-21.165,3.124-1.689,6.135-2.062,8.951-1.113,5.301,1.788,7.977,7.588,8.088,7.834.28.489,1.744,3.208.866,4.513-.196.292-.572.611-1.281.645-.203,2.314-.491,5.111-.836,8.13-.185,1.615-.388,3.311-.608,5.048.92.364,1.549,1.315,1.554,2.438.005,1.134-.684,2.567-2.643,2.874-1.879.354-3.665.529-5.344.529ZM43.797,15.27c-1.718,0-3.509.5-5.354,1.496-5.636,3.045-8.388,12.527-5.775,19.894,2.565,7.232,9.562,10.338,19.191,8.523,1.317-.207,1.777-1.085,1.774-1.838-.003-.66-.367-1.423-1.16-1.541-.282-.042-.479-.301-.442-.584.241-1.889.463-3.734.663-5.484.37-3.23.673-6.204.877-8.6.012-.143.082-.273.193-.363.111-.089.252-.129.396-.111.299.04.683.042.823-.166.381-.567-.33-2.396-.93-3.455-.047-.099-2.629-5.681-7.496-7.319-.896-.301-1.817-.452-2.76-.452Z" fill="#000" stroke-width="0"/>
      <g id="w" data-name="path319">
        <path d="M46.38,43.333c-2.402,0-5.116-.576-7.414-2.438-2.726-2.125-4.338-6.157-4.199-10.516.144-4.541,2.096-8.42,5.356-10.645,1.647-1.088,3.405-1.422,5.235-.987,5.025,1.188,8.838,7.727,8.998,8.004.144.25.058.57-.192.715-.252.144-.57.058-.715-.192-.037-.064-3.749-6.426-8.333-7.509-1.535-.363-3.02-.08-4.409.838-2.974,2.029-4.76,5.606-4.894,9.809-.128,4.03,1.33,7.733,3.805,9.663,4.776,3.868,11.716,1.576,12.46.983.091-.188.288-.305.51-.294.288.021.505.272.483.561-.027.361-.344.64-1.095.965-1.032.446-3.153,1.043-5.597,1.043Z" fill="#000" stroke-width="0"/>
      </g>
      <path d="M89.969,60.326c-1.18,0-2.481-.113-3.912-.376-6.523-1.198-10.728-7.37-11.153-10.342-.15-1.05.222-1.474.561-1.644.669-.335,1.621.12,2.908,1.396,3.179,3.152,5.146,2.887,7.64,2.552,1.761-.237,3.756-.505,6.45.367,5.937,1.92,8.525-.965,8.632-1.089.154-.177.409-.233.621-.131.212.101.333.33.292.562-.446,2.561-1.994,4.928-4.245,6.496-1.568,1.091-4.081,2.21-7.793,2.21ZM75.929,48.904c-.006,0-.009,0-.009,0-.012.048-.11.574.381,1.79.966,2.391,4.288,7.187,9.945,8.227,4.412.811,8.189.236,10.918-1.664,1.585-1.104,2.781-2.644,3.416-4.358-1.47.86-4.215,1.743-8.441.375-2.468-.799-4.258-.558-5.988-.325-2.557.343-4.973.667-8.517-2.847-1.16-1.15-1.637-1.198-1.706-1.198Z" fill="#000" stroke-width="0"/>
      <path d="M89.987,60.372c-1.196,0-2.473-.112-3.826-.338-3.822-.685-6.46-2.852-8.001-4.548-.117-.129-.162-.308-.121-.477.041-.169.164-.306.327-.367,1.724-.636,3.827-.97,5.748-.943,2.745.034,5.042.702,7.016,2.043,1.499.993,2.791,2.007,3.836,3.011.131.125.187.311.149.488s-.166.322-.337.383c-1.407.499-3.01.748-4.792.748ZM79.499,55.369c1.475,1.456,3.741,3.078,6.84,3.634,2.781.462,5.213.427,7.238-.104-.869-.762-1.884-1.529-3.029-2.288-1.805-1.226-3.913-1.834-6.449-1.866-1.521-.029-3.161.195-4.6.623Z" fill="#000" stroke-width="0"/>
      <g id="x" data-name="path338">
        <path d="M72.552,102.383l-.911-.516s4.302-7.606,5.739-10.112c1.417-2.473,5.361-9.65,5.401-9.722.118-.215.369-.317.604-.251.235.068.392.291.376.536l-.275,4.422c.911-1.18,2.245-2.802,3.333-3.697,1.971-1.451,6.597-2.218,6.793-2.25.284-.048.554.147.601.432.046.286-.147.555-.432.601-.046.007-4.573.758-6.319,2.042-1.678,1.38-4.156,4.864-4.181,4.899-.136.19-.382.268-.602.191-.221-.078-.363-.292-.348-.526l.239-3.85c-1.289,2.337-3.342,6.049-4.284,7.694-1.436,2.504-5.736,10.107-5.736,10.107Z" fill="#000" stroke-width="0"/>
      </g>
      <g id="y" data-name="path82-62-7">
        <path d="M136.245,96.434c-.23,0-.441-.153-.505-.386-.34-1.252-.83-2.047-1.497-2.428-1.138-.649-2.859-.176-5.04.422l-.904.246c-.278.071-.566-.091-.641-.371-.074-.279.092-.566.371-.641l.896-.244c2.318-.637,4.32-1.187,5.836-.322.922.526,1.572,1.528,1.989,3.063.076.279-.089.567-.368.643-.046.012-.092.018-.138.018Z" fill="#000" stroke-width="0"/>
      </g>
      <g id="z" data-name="path83-9-9">
        <path d="M138.802,94.655c-.176,0-.348-.089-.447-.25-.322-.524-.587-.989-.821-1.399-1.317-2.308-1.486-2.607-5.553-2.258-.232.016-.452.023-.668.03-.768.025-1.432.047-1.983.431-.237.165-.562.107-.729-.131-.165-.237-.106-.563.131-.729.805-.56,1.69-.589,2.546-.618.204-.007.412-.014.623-.028,4.568-.386,5.042.155,6.542,2.784.229.401.489.856.804,1.371.151.246.074.568-.173.72-.085.052-.18.077-.273.077Z" fill="#000" stroke-width="0"/>
      </g>
      <g id="aa" data-name="path84-1-2">
        <path d="M140.415,92.138c-.191,0-.375-.104-.467-.286-2.67-5.243-4.034-4.848-8.083-3.667-.606.176-1.264.368-1.982.556-.28.072-.565-.094-.639-.374s.094-.565.374-.639c.708-.186,1.356-.374,1.954-.548,4.159-1.21,6.246-1.817,9.308,4.198.131.257.029.573-.229.704-.076.039-.157.057-.237.057Z" fill="#000" stroke-width="0"/>
      </g>
    </g>
  </g>
</svg>