<?xml version="1.0" encoding="UTF-8"?>
<svg id="b" data-name="Layer 2" xmlns="http://www.w3.org/2000/svg" width="140.168" height="129.042" viewBox="0 0 140.168 129.042">
  <g id="c" data-name="OBJECTS">
    <g id="d" data-name="layer7">
      <path d="M24.538,83.045c-.037,0-.075-.004-.112-.013-.229-.053-.391-.259-.388-.493l.005-.274c.016-.662.031-1.287-.354-1.623-.807-.662-1.949-.427-3.413.13-.325.123-.65.256-.976.388-.453.185-.906.369-1.356.527-1.098.369-2.508.701-3.73.019-1.09-.609-1.857-1.916-2.343-3.997-.009-.038-.014-.078-.013-.118.006-.576.29-.988.759-1.103.575-.139,1.262.234,1.603.872.961,2.076,2.154,2.12,3.298,1.857.744-.166,1.565-.521,2.36-.864l.485-.208c1.715-.719,4.305-1.803,6.192.655.093.138.167.263.229.397.072.157.057.341-.039.484-.687,1.03-1.277,2.065-1.754,3.076-.084.179-.262.287-.452.287ZM12.86,77.546c.417,1.753,1.02,2.827,1.841,3.286.694.387,1.568.36,2.918-.092.428-.15.866-.328,1.304-.507.333-.136.667-.271.999-.396,1.546-.59,3.153-.993,4.414.041.292.255.466.558.57.879.26-.457.54-.916.838-1.374h0c-1.294-1.686-2.956-1.169-4.992-.317l-.478.205c-.837.361-1.703.735-2.537.922-2.011.459-3.458-.323-4.412-2.388-.131-.242-.368-.386-.463-.347.009.003.003.033,0,.088Z" fill="#000" stroke-width="0"/>
      <path d="M23.338,86.185c-2.063-.024-3.936-1.022-5.05-2.668-.478-.707-.813-1.441-.995-2.183-.062-.25.077-.506.32-.591.435-.153.873-.331,1.311-.51.333-.136.667-.271.999-.396.15-.058.319-.039.454.052.134.089.217.237.222.398.035.99.284,1.69.741,2.082.657.562,1.743.521,2.82.39.177-.023.354.053.46.197.107.144.129.333.059.497-.33.764-.62,1.562-.86,2.373-.063.213-.258.358-.479.358ZM18.39,81.523c.165.483.408.964.726,1.434.869,1.283,2.293,2.095,3.857,2.214.143-.453.3-.901.471-1.342-1.025.053-2.008-.06-2.755-.699-.559-.479-.899-1.174-1.031-2.114-.119.048-.237.097-.356.145-.304.124-.608.248-.911.363Z" fill="#000" stroke-width="0"/>
      <path d="M17.628,80.205c-.117,0-.231-.041-.322-.117-.119-.101-.185-.251-.177-.407.177-3.607,3.762-6.397,7.046-7.191,3.102-.752,5.737.156,7.046,2.426.136.236.058.539-.176.679-.839.502-1.677,1.06-2.491,1.655-.18.132-.426.129-.603-.009-.924-.72-2.305-.97-3.696-.671-1.454.313-2.67,1.161-3.254,2.27-.054.102-.141.182-.247.227l-.48.206c-.837.361-1.703.735-2.537.922-.036.008-.073.012-.109.012ZM26.221,73.233c-.573,0-1.18.075-1.812.228-2.705.654-5.637,2.78-6.194,5.558.543-.182,1.108-.427,1.662-.665l.326-.14c.748-1.288,2.169-2.262,3.841-2.622,1.559-.335,3.067-.102,4.21.639.603-.432,1.216-.842,1.833-1.224-.854-1.157-2.221-1.773-3.867-1.773Z" fill="#000" stroke-width="0"/>
      <path d="M40.105,124.124c-1.801,0-3.618-.236-5.292-.707-.199-.056-.343-.229-.362-.434-.02-.205.088-.401.273-.494,2.979-1.499,5.506-3.965,7.31-7.131.131-.232.421-.318.659-.199,2.972,1.496,6.102,2.75,9.301,3.728.173.054.304.195.343.372.038.178-.022.361-.158.481-1.598,1.412-3.98,2.666-7.079,3.728-1.554.438-3.267.656-4.996.656ZM36.315,122.751c2.809.569,5.897.492,8.488-.237,2.516-.862,4.537-1.854,6.007-2.95-2.793-.901-5.528-2.01-8.146-3.302-1.642,2.739-3.815,4.957-6.349,6.489Z" fill="#000" stroke-width="0"/>
      <path d="M112.203,125.232c-1.775,0-3.666-.671-5.402-1.418-.048-.021-.093-.049-.133-.083l-.23-.21c-.208-.183-.228-.498-.045-.706.182-.207.498-.227.706-.046l.174.159c2.488,1.064,5.287,1.953,7.323.66,2.552-2.723,5.856-8.555,4.094-12.898-2.302-1.503-4.662-2.836-6.945-4.125-4.719-2.665-9.176-5.183-13.293-9.119-.199-.19-.207-.507-.016-.707.19-.199.507-.208.707-.016,4.026,3.851,8.431,6.338,13.093,8.971,2.34,1.321,4.759,2.688,7.129,4.243.082.054.146.13.185.219,2.104,4.856-1.4,11.131-4.27,14.163-.027.028-.057.053-.089.074-.917.602-1.933.839-2.989.839Z" fill="#000" stroke-width="0"/>
      <path d="M96.357,129.042c-.266,0-.531-.009-.794-.027-6.311-.557-10.701-4.667-14.487-9.096-7.852,3.271-18.529,3.247-29.374-.075-3.253-.995-6.436-2.271-9.458-3.792-.247-.124-.346-.425-.222-.671.124-.247.425-.349.671-.222,2.972,1.496,6.102,2.75,9.301,3.728,10.78,3.304,21.359,3.294,29.025-.03.202-.086.438-.032.58.136,4.28,5.052,8.305,8.52,14.042,9.025,4.083.279,8.59-1.876,10.707-5.144.732-1.118,1.167-2.324,1.294-3.59-.867-3.994-4.698-6.885-8.753-9.943-1.274-.962-2.592-1.956-3.805-2.984-.183-.154-.23-.418-.112-.627,1.557-2.753,2.71-5.777,3.336-8.747,1.091-5.205.556-10.14-1.504-13.942-20.051,3.521-46.361-1.155-59.021-10.491-2.441.812-4.705,1.836-6.73,3.046-.021.012-.042.022-.064.032-.819.492-1.636,1.036-2.431,1.617-.649.782-1.244,1.58-1.816,2.438-.687,1.03-1.277,2.065-1.754,3.076l-.071.155c-.083.178-.164.354-.239.534-.333.77-.622,1.567-.862,2.379-.477,1.65-.719,3.329-.719,4.988,0,.276-.224.505-.5.505s-.5-.219-.5-.495v-.01c0-1.753.255-3.525.759-5.269.253-.854.556-1.689.902-2.489.078-.188.164-.374.252-.563l.072-.157c.5-1.06,1.114-2.139,1.829-3.209.602-.902,1.227-1.74,1.912-2.562.041-.049.091-.09.148-.12.83-.617,1.694-1.191,2.56-1.709.021-.013.043-.024.066-.033,2.141-1.272,4.535-2.344,7.116-3.184.152-.05.336-.021.465.075,12.458,9.35,38.837,14.014,58.801,10.398.21-.034.417.06.523.244,2.322,4.055,2.956,9.364,1.785,14.951-.619,2.938-1.737,5.928-3.242,8.67,1.104.917,2.293,1.814,3.446,2.684,4.048,3.054,8.233,6.211,9.146,10.612.01.049.013.098.008.146-.132,1.457-.624,2.843-1.46,4.119-2.165,3.341-6.619,5.622-10.829,5.622Z" fill="#000" stroke-width="0"/>
      <path d="M116.878,40.405c-.274,0-.498-.221-.5-.495-.002-.276.219-.502.495-.505,6.907-.065,12.237-6.753,13.4-13.181.829-5.242,3.403-9.85,5.892-14.305,1.081-1.934,2.103-3.762,2.994-5.645-.035-.201-.177-.358-.299-.46-.363-.303-.959-.466-1.417-.377-3.119.022-6.446-.357-9.971-.771-9.836-1.151-20.007-2.344-25.667,5.028-.167.218-.48.263-.701.092-.219-.168-.26-.481-.092-.701,6.005-7.822,16.934-6.544,26.576-5.412,3.494.408,6.791.812,9.761.771.663-.13,1.563.109,2.152.601.43.359.667.829.667,1.323,0,.073-.016.146-.047.213-.92,1.956-2.019,3.923-3.082,5.825-2.447,4.378-4.977,8.906-5.779,13.983-1.237,6.839-6.952,13.943-14.376,14.014h-.005Z" fill="#000" stroke-width="0"/>
      <path d="M111.896,21.351c-.097,0-.195-.028-.282-.087-.228-.156-.287-.467-.131-.695,4.354-6.373,9.707-10.709,15.481-12.539,3.498-1.076,7.158-1.352,10.698-1.617.274-.018.564.183.585.457.021.275-.136.512-.412.533l-.099.007c-3.485.262-7.089.532-10.475,1.574-5.554,1.762-10.727,5.963-14.953,12.149-.097.142-.254.218-.414.218Z" fill="#000" stroke-width="0"/>
      <path d="M98.968,58.451c-.147,0-.293-.014-.436-.042-1.022-.188-1.926-1.034-2.418-2.265-.483-1.086-.668-3.093-.047-4.64.352-.875.925-1.495,1.658-1.795.864-.365,1.729-.292,2.495.217,1.313.87,2.022,2.794,2.022,4.163,0,1.196-.253,2.133-.796,2.948-.583.874-1.554,1.413-2.477,1.413ZM98.799,50.481c-.222,0-.452.051-.69.152-.489.199-.862.617-1.114,1.244-.5,1.245-.373,2.949.041,3.878.288.721.875,1.524,1.68,1.67.003,0,.006,0,.009.002.644.129,1.438-.269,1.89-.944.429-.644.628-1.404.628-2.394,0-1.1-.602-2.686-1.575-3.33-.28-.186-.568-.278-.868-.278Z" fill="#000" stroke-width="0"/>
      <path d="M87.035,59.614c-.171,0-.344-.016-.518-.047-.982-.179-1.789-.992-2.334-2.354-.751-2.039-.386-5.549,1.885-6.438.954-.342,1.857-.219,2.623.348,1.255.93,1.863,2.877,1.798,4.236-.09.995-.271,2.024-.995,2.954-.655.844-1.531,1.301-2.459,1.301ZM87.104,51.584c-.218,0-.446.042-.686.128-1.727.676-1.827,3.715-1.301,5.143.229.572.747,1.578,1.579,1.729h0c1.007.184,1.691-.474,2.008-.883.534-.687.701-1.46.787-2.409.051-1.071-.468-2.677-1.396-3.365-.309-.229-.637-.342-.992-.342Z" fill="#000" stroke-width="0"/>
      <path d="M106.012,44.434c.072-1.867-1.145-3.43-2.717-3.49-1.572-.06-2.905,1.404-2.977,3.271-.072,1.867,1.145,3.43,2.717,3.49s2.905-1.404,2.977-3.271Z" fill="#000" stroke-width="0"/>
      <path d="M72.357,44.77c.072-1.867-1.145-3.43-2.717-3.49-1.572-.06-2.905,1.404-2.977,3.271-.072,1.867,1.145,3.43,2.717,3.49,1.572.06,2.905-1.404,2.977-3.271Z" fill="#000" stroke-width="0"/>
      <path d="M107.795,23.875c-.075,0-.151-.017-.223-.053-.23-.115-.333-.385-.246-.62-.008-.024-.029-.063-.062-.097-1.022-1.205-2.267-1.934-3.533-2.082-1.429-.171-2.815.379-3.541,1.396-.16.225-.473.276-.697.116-.225-.161-.277-.474-.116-.698.949-1.328,2.662-2.028,4.471-1.807,1.519.178,2.993,1.03,4.152,2.398.314.312.425.806.243,1.17-.088.175-.264.276-.448.276Z" fill="#000" stroke-width="0"/>
      <path d="M58.83,23.252c-.068,0-.138-.014-.205-.044-.252-.113-.364-.409-.251-.661.853-1.896,2.646-3.434,4.681-4.015,2.025-.579,4.338-.174,6.039,1.055.224.162.274.475.112.698-.162.223-.474.274-.698.112-1.458-1.053-3.442-1.399-5.179-.904-1.759.503-3.309,1.83-4.043,3.464-.083.186-.266.295-.457.295Z" fill="#000" stroke-width="0"/>
      <path d="M32.304,41.437c-1.244,0-2.49-.175-3.717-.525-4.985-1.423-9-5.566-10.479-10.813-1.045-2.171-1.466-4.749-1.873-7.243-.664-4.062-1.29-7.9-4.531-10.296-.032-.024-.061-.052-.087-.082-.533-.64-.973-1.626-.61-2.477.035-.081.09-.151.16-.204,6.397-4.796,21.668-6.79,32.035-4.188,5.815,1.461,9.807,4.207,11.542,7.939.116.251.008.548-.243.664-.252.118-.547.008-.665-.242-1.604-3.45-5.365-6.006-10.878-7.392-10.993-2.763-25.388-.211-31.066,3.926-.083.388.162.915.458,1.288,3.523,2.641,4.209,6.84,4.873,10.901.396,2.425.806,4.932,1.819,7.053,1.416,4.996,5.167,8.875,9.821,10.204,2.881.823,5.875.597,8.665-.651.252-.116.548,0,.661.252s0,.548-.252.66c-1.82.815-3.723,1.226-5.63,1.226Z" fill="#000" stroke-width="0"/>
      <path d="M46.075,23.338c-1.876,0-3.883-.562-5.831-1.666-2.228-1.222-4.076-2.913-5.862-4.549-.475-.436-.951-.871-1.434-1.299-2.301-2.062-5.105-4.328-8.47-5.511-2.502-.88-6.229-1.596-9.781-.015-.251.112-.547,0-.66-.254-.112-.252.001-.548.254-.66,3.853-1.711,7.847-.951,10.518-.015,3.53,1.24,6.432,3.581,8.804,5.708.485.429.965.868,1.444,1.307,1.823,1.67,3.545,3.247,5.674,4.414,2.929,1.659,6.084,1.984,8.451.876.25-.117.547-.009.665.241s.01.548-.241.665c-1.081.506-2.277.757-3.53.757Z" fill="#000" stroke-width="0"/>
      <path d="M73.964,55.658c-.069,0-.139-.015-.206-.045-.251-.113-.363-.409-.25-.661,1.763-3.897,4.781-7.143,8.499-9.138,3.791-1.942,8.173-2.559,12.352-1.741.271.053.448.315.395.586-.053.271-.315.449-.587.395-3.956-.772-8.11-.188-11.695,1.646-3.517,1.887-6.379,4.966-8.052,8.664-.083.185-.266.294-.456.294Z" fill="#000" stroke-width="0"/>
      <path d="M70.848,49.871c-.101,0-.203-.03-.291-.094-4.647-3.331-10.545-4.697-16.184-3.741-.272.046-.53-.138-.577-.41-.046-.271.137-.53.41-.576,5.898-.999,12.071.428,16.934,3.915.224.161.276.474.115.697-.098.137-.251.209-.407.209Z" fill="#000" stroke-width="0"/>
      <path d="M103.433,48.98c-.111,0-.222-.037-.315-.112-.214-.174-.247-.488-.073-.703,1.097-1.35,2.683-2.305,4.712-2.839,1.768-.465,3.546-.553,5.266-.639.266-.055.51.199.524.474.014.276-.199.511-.475.524-1.669.084-3.395.17-5.062.607-1.82.479-3.23,1.321-4.19,2.503-.099.121-.243.185-.389.185Z" fill="#000" stroke-width="0"/>
      <path d="M8.187,125.393c-1.833,0-3.617-.444-5.064-1.304-3.394-2.018-4.065-5.581-1.798-9.533.988-1.203,2.258-1.892,3.486-2.557,1.107-.6,2.154-1.167,2.957-2.027.396-.737.809-1.685,1.246-2.688,1.409-3.234,3.005-6.901,5.487-7.118,1.22-.096,2.452.634,3.735,2.255.487-4.002,1.441-8.661,3.968-11.904.169-.217.483-.258.702-.087.218.17.257.484.087.702-2.648,3.397-3.479,8.563-3.907,12.685-.022.21-.173.384-.378.434-.204.051-.419-.033-.536-.209-1.326-2.003-2.539-2.976-3.583-2.878-1.89.165-3.424,3.688-4.657,6.521-.457,1.048-.887,2.037-1.313,2.82-.019.035-.042.068-.07.098-.922,1.011-2.111,1.654-3.26,2.276-1.197.649-2.329,1.262-3.145,2.246-1.941,3.397-1.416,6.378,1.491,8.105,3.665,2.178,9.743,1.402,12.389-2.896.072-.118.19-.2.326-.229.134-.029.276,0,.389.082,6.042,4.273,12.429,5.091,17.987,2.301,2.978-1.498,5.506-3.964,7.31-7.13.136-.241.441-.323.682-.188.24.137.324.442.187.682-1.902,3.339-4.575,5.942-7.73,7.529-5.772,2.896-12.355,2.154-18.588-2.083-1.945,2.777-5.242,4.094-8.398,4.095Z" fill="#000" stroke-width="0"/>
      <path d="M42.468,116.105c-.073,0-.148-.017-.219-.051-.248-.121-.351-.42-.23-.669,3.408-6.982,3.045-11.473,2.871-13.63-.022-.275.183-.517.458-.538.288-.021.517.183.539.458.167,2.07.559,6.92-2.969,14.149-.086.177-.265.28-.45.28Z" fill="#000" stroke-width="0"/>
      <path d="M22.598,91.315c-.107,0-.215-.034-.306-.104-.218-.17-.258-.483-.088-.702,1.449-1.868,3.305-3.112,5.517-3.696.268-.071.541.089.611.355.07.268-.089.541-.355.611-1.995.527-3.671,1.651-4.983,3.343-.099.127-.246.193-.396.193Z" fill="#000" stroke-width="0"/>
      <path d="M11.466,124.566c-.262,0-.482-.204-.499-.469-.087-1.391-.17-2.312-.76-3.659-.502-1.089-1.26-2.015-2.061-2.994-1.375-1.65-2.472-2.902-4.084-4.005-.228-.156-.286-.468-.13-.695.155-.229.466-.286.695-.131,1.715,1.174,2.907,2.533,4.287,4.188.813.994,1.646,2.014,2.207,3.228.648,1.48.752,2.501.846,4.006.017.275-.192.513-.468.53-.011,0-.021,0-.032,0Z" fill="#000" stroke-width="0"/>
      <path d="M1.94,122.875c-.263,0-.483-.205-.499-.472-.016-.275.195-.512.47-.527,2.92-.168,4.772-1.746,7.118-3.744l.39.325.324.381c-2.455,2.092-4.519,3.85-7.774,4.036-.01,0-.02,0-.029,0Z" fill="#000" stroke-width="0"/>
      <path d="M16.275,120.827c-.166,0-.328-.082-.423-.232-1.78-2.81-2.321-6.231-1.486-9.388.071-.267.345-.429.611-.355.267.07.426.345.355.611-.765,2.889-.268,6.021,1.364,8.597.148.233.079.542-.155.69-.083.052-.176.077-.267.077Z" fill="#000" stroke-width="0"/>
      <path d="M95.408,106.475c-.115,0-.229-.039-.324-.119-2.152-1.827-3.597-3.448-4.549-5.101-.583-.701-1.208-1.498-1.838-2.301-3.346-4.265-6.805-8.674-11.821-9.832-.269-.062-.437-.331-.375-.6.062-.269.332-.436.6-.375,5.36,1.237,8.93,5.788,12.383,10.189.625.797,1.246,1.588,1.872,2.351.939,1.617,2.315,3.155,4.377,4.906.21.179.236.494.057.704-.099.117-.239.177-.381.177Z" fill="#000" stroke-width="0"/>
      <path d="M81.219,119.815c-.142,0-.283-.06-.382-.177-.768-.905-1.522-1.83-2.273-2.753-1.937-2.378-3.939-4.836-6.09-6.779-.382-.322-.8-.663-1.228-1.014-3.68-3.009-8.259-6.753-6.758-12.053.075-.268.354-.421.617-.346.266.075.42.352.345.617-1.322,4.67,2.796,8.037,6.429,11.007.433.354.854.698,1.252,1.035,2.221,2.005,4.248,4.494,6.208,6.9.747.918,1.497,1.838,2.261,2.738.179.21.153.525-.058.704-.094.08-.209.119-.323.119Z" fill="#000" stroke-width="0"/>
      <path d="M94.709,128.483c-.209,0-.404-.133-.474-.342-.603-1.809.021-3.843.631-5.414,1.198-2.94,2.788-5.083,4.729-6.378,2.66-1.772,5.472-2.014,7.523-.646.23.153.292.464.139.693s-.465.29-.693.139c-1.705-1.138-4.102-.895-6.414.646-1.771,1.182-3.237,3.172-4.355,5.916-.546,1.406-1.113,3.223-.612,4.728.087.262-.054.545-.316.633-.053.018-.106.025-.158.025Z" fill="#000" stroke-width="0"/>
      <path d="M102.453,123.943c-.086,0-.174-.022-.254-.07-.238-.141-.316-.447-.175-.685,1.458-2.461,2.365-5.003,2.694-7.556.036-.272.291-.464.56-.432.274.035.467.286.432.561-.347,2.688-1.298,5.358-2.826,7.937-.093.157-.26.245-.431.245Z" fill="#000" stroke-width="0"/>
      <path d="M88.922,126.792c-.032,0-.064-.003-.096-.009-.271-.054-.448-.316-.395-.587.704-3.604,1.676-7.364,4.01-10.444,2.608-3.444,6.542-5.23,10.02-4.552.271.054.448.316.395.587-.053.271-.319.443-.586.396-3.11-.607-6.652,1.03-9.032,4.173-2.21,2.918-3.145,6.546-3.825,10.032-.046.238-.256.404-.49.404Z" fill="#000" stroke-width="0"/>
      <path d="M104.857,115.663c-.112,0-.224-.037-.317-.114-1.673-1.377-3.312-2.432-4.873-3.135-.252-.113-.364-.409-.251-.661.114-.252.409-.365.661-.251,1.642.739,3.357,1.841,5.098,3.275.213.176.244.49.068.703-.099.12-.242.183-.386.183Z" fill="#000" stroke-width="0"/>
      <path d="M109.488,124.477c-.191,0-.374-.109-.457-.295-2.173-4.841.158-10.668,3.583-13.922.62-.621,1.309-1.079,2.038-1.353.732-.274,2.465-.456,3.315.15.225.161.277.474.116.698-.16.226-.472.276-.697.116-.419-.301-1.74-.27-2.383-.028-.594.223-1.164.604-1.691,1.132-3.18,3.021-5.352,8.38-3.369,12.796.113.252,0,.548-.251.661-.066.03-.136.044-.204.044Z" fill="#000" stroke-width="0"/>
      <path d="M104.234,113.348c-.05,0-.101-.008-.15-.023-.264-.083-.41-.364-.326-.627.635-2.013,1.55-3.582,2.718-4.667,1.235-1.148,3.479-2.362,5.379-2.462.281-.022.511.197.526.473.014.276-.198.511-.473.525-1.443.076-3.486,1.021-4.751,2.196-1.04.966-1.863,2.391-2.446,4.235-.067.214-.264.35-.477.35Z" fill="#000" stroke-width="0"/>
      <path d="M114.651,117.533c-.044,0-.088-.006-.132-.018-.267-.072-.424-.348-.351-.614.225-.825.386-1.719.541-2.582l.073-.403c.158-1.274.261-2.74-.589-3.668-.188-.187-.492-.43-.798-.634-1.308-.934-2.685-1.683-3.994-2.174-.258-.097-.389-.385-.292-.644.097-.259.386-.393.644-.292,1.39.521,2.846,1.312,4.21,2.286.158.105.597.41.953.766,1.1,1.198,1.06,2.875.855,4.512l-.076.428c-.159.885-.324,1.8-.561,2.669-.061.222-.262.368-.482.368Z" fill="#000" stroke-width="0"/>
      <path d="M83.315,71.721c-.398,0-.796-.014-1.192-.039-5.653-.371-11.081-3.239-14.518-7.671-.652-.93-1.311-1.871-1.601-2.935-.073-.267.084-.541.351-.614.269-.07.542.085.614.351.245.896.826,1.726,1.441,2.604,3.25,4.19,8.406,6.914,13.778,7.267,5.3.344,10.882-1.779,14.567-5.549.193-.195.511-.201.707-.008.197.193.201.51.008.707-3.607,3.69-8.939,5.887-14.155,5.887Z" fill="#000" stroke-width="0"/>
      <path d="M64.172,63.67c-.04,0-.081-.005-.122-.015-.268-.067-.431-.339-.364-.606.583-2.332,2.706-4.098,5.164-4.295.281-.023.516.183.539.458.022.275-.183.517-.458.538-2.036.164-3.793,1.62-4.274,3.541-.057.228-.26.379-.484.379Z" fill="#000" stroke-width="0"/>
      <g>
        <path d="M82.499,84.211c-17.017,0-35.103-4.481-44.869-11.778-.022-.011-.043-.024-.062-.039-1.663-1.25-3.056-2.571-4.14-3.927-6.285-6.456-7.798-15.629-4.593-28.007.069-.269.341-.43.609-.359.267.069.428.343.358.609-3.11,12.012-1.679,20.875,4.375,27.096,1.052,1.312,2.367,2.562,3.94,3.75.021.012.042.024.061.038,12.458,9.35,38.837,14.014,58.801,10.398,10.61-1.925,18.234-6.007,22.049-11.805,2.842-4.32,3.578-9.588,2.186-15.659-2.646-5.096-3.969-10.435-4.826-14.521-.466-2.222-.875-4.5-1.272-6.702-.38-2.114-.774-4.301-1.218-6.448-2.069-6.744-6.469-12.688-12.711-17.145C92.115,3.189,79.661.033,67.87,1.262c-6.761.812-13.268,3.367-18.809,7.387-.223.163-.536.113-.698-.11-.162-.224-.112-.536.111-.698,5.678-4.12,12.346-6.738,19.284-7.571,12.033-1.263,24.747,1.969,34.011,8.63,6.421,4.585,10.951,10.709,13.096,17.71.458,2.206.853,4.398,1.235,6.519.395,2.196.803,4.467,1.266,6.675.847,4.039,2.154,9.316,4.764,14.321.02.038.034.077.044.119,1.475,6.373.697,11.923-2.311,16.494-3.969,6.032-11.821,10.265-22.707,12.24-4.626.838-9.596,1.234-14.659,1.234Z" fill="#000" stroke-width="0"/>
        <path d="M86.845,64.365c-2.51,0-4.185-.84-5.161-1.563-2.243-1.661-3.298-4.483-2.82-7.55.714-4.581,4.479-8.454,10.073-10.36,4.852-1.879,9.803-.677,13.226,3.228,2.953,3.368,3.86,7.83,2.206,10.851-.916,1.672-3.432,4.296-10.067,3.427-.04.018-.082.032-.124.042-2.978,1.43-5.402,1.927-7.333,1.927ZM93.427,45.028c-1.36,0-2.757.265-4.148.803-5.254,1.791-8.771,5.368-9.427,9.575-.419,2.691.488,5.156,2.427,6.592,2.606,1.93,6.555,1.815,11.152-.313.027-.078.07-.149.125-.204.112-.11.273-.164.427-.139,4.731.719,8.107-.294,9.508-2.853,1.456-2.659.6-6.652-2.081-9.711-2.157-2.461-4.979-3.75-7.984-3.75Z" fill="#000" stroke-width="0"/>
      </g>
    </g>
  </g>
</svg>