<?xml version="1.0" encoding="UTF-8"?>
<svg id="b" data-name="Layer 2" xmlns="http://www.w3.org/2000/svg" width="153.744" height="130.627" viewBox="0 0 153.744 130.627">
  <g id="c" data-name="OBJECTS">
    <g id="d" data-name="layer7">
      <path d="M103.903,129.572c-2.834,0-5.52-1.403-6.906-3.686-.908-1.513-1.191-3.24-1.465-4.911-.147-.896-.299-1.824-.547-2.689-.617-2.059-1.574-3.692-2.587-5.422-.689-1.177-1.401-2.394-2.024-3.786-.113-.252,0-.548.252-.66.254-.116.548,0,.661.252.601,1.343,1.299,2.535,1.975,3.689,1.044,1.782,2.03,3.466,2.684,5.646.265.928.422,1.884.574,2.809.271,1.651.527,3.21,1.334,4.557,1.335,2.197,4.207,3.495,6.988,3.144,2.5-.312,5.008-1.836,6.883-4.179.085-.106.21-.173.345-.186.134-.01.27.03.373.12.416.361.879.242,1.194.077.733-.382,1.265-1.302,1.186-2.051-.187-1.239-1.033-2.215-1.93-3.247-.248-.285-.493-.568-.723-.855-1.81-2.229-2.855-6.773-3.695-10.426-.267-1.159-.518-2.254-.758-3.104-.075-.266.08-.542.346-.617.264-.072.542.079.617.346.247.874.501,1.98.77,3.152.816,3.551,1.833,7.971,3.499,10.021.224.28.461.553.7.828.951,1.095,1.934,2.228,2.167,3.775.125,1.182-.614,2.49-1.715,3.064-.651.339-1.315.363-1.885.078-2.002,2.345-4.622,3.865-7.249,4.194-.354.044-.709.066-1.062.066Z" fill="#000" stroke-width="0"/>
      <path d="M10.053,102.409c-2.949,0-5.792-1.344-7.241-3.572-2.673-3.783-.071-6.312,2.225-8.544,1.114-1.082,2.266-2.201,2.818-3.425.46-1.525-.057-3.045-1.442-4.108-1.604-1.231-3.829-1.405-5.408-.421-.219.135-.502.084-.658-.116-.405-.518-.458-1.08-.145-1.544.868-1.287,4.293-1.371,6.825-.646,3.055.878,4.866,2.795,4.98,5.266,1.143,3.766-.424,7.231-4.2,9.298-.459.504-.639,1.322-.447,2.062.084.323.314.893.909,1.064,1.482.282,2.122-.763,3.038-2.497l.051-.096c.111-.209.355-.313.58-.247.228.065.378.281.361.517-.148,2.044-.062,4.133.255,6.208.04.26-.127.505-.383.563-.7.16-1.413.237-2.119.237ZM3.314,80.708c1.296,0,2.623.426,3.708,1.259,1.708,1.312,2.369,3.275,1.767,5.253-.653,1.456-1.874,2.644-3.055,3.791-2.299,2.234-4.285,4.165-2.095,7.266,1.514,2.326,4.759,3.548,7.858,3.011-.181-1.321-.271-2.646-.269-3.961-.71.973-1.658,1.664-3.193,1.369-.826-.237-1.409-.884-1.643-1.785-.284-1.094.018-2.327.752-3.067.035-.035.074-.065.118-.089,3.394-1.827,4.803-4.901,3.77-8.222-.013-.043-.021-.087-.022-.132-.094-2.796-2.709-3.961-4.26-4.406-2.548-.733-5.088-.406-5.658.17.691-.306,1.451-.456,2.222-.456Z" fill="#000" stroke-width="0"/>
      <path d="M131.67,38.617c-.271,0-.494-.217-.5-.489-.006-.275.213-.505.489-.511,6.909-.155,12.076-7.061,13.08-13.647.578-5.081,2.864-9.646,5.075-14.062,1.017-2.031,2.068-4.13,2.915-6.22-.043-.162-.153-.311-.329-.444-.38-.288-.985-.433-1.469-.34-3.229.218-6.729-.037-10.436-.308-9.623-.701-19.571-1.428-24.896,5.956-.162.223-.475.275-.698.112-.224-.161-.274-.474-.113-.698,5.653-7.835,16.346-7.056,25.78-6.367,3.67.268,7.136.521,10.24.313.708-.13,1.592.075,2.197.535.438.333.693.767.738,1.253.007.078-.004.157-.034.231-.871,2.17-1.953,4.333-3,6.424-2.172,4.337-4.418,8.822-4.979,13.746-1.068,7.014-6.613,14.349-14.048,14.516h-.011Z" fill="#000" stroke-width="0"/>
      <path d="M126.023,19.795c-.093,0-.187-.025-.271-.08-.232-.149-.298-.459-.148-.691,4.203-6.509,9.221-10.878,14.914-12.986,3.449-1.271,7.186-1.723,10.718-2.076.285-.028.52.173.547.447s-.173.52-.448.547c-3.468.348-7.133.789-10.471,2.02-5.485,2.032-10.337,6.269-14.421,12.592-.096.147-.256.229-.42.229Z" fill="#000" stroke-width="0"/>
      <path d="M109.562,61.695c-.028,0-.056-.002-.083-.007-.215-.034-.383-.205-.415-.42-.032-.216.08-.427.275-.522l.198.399-.176-.41c.193-.1.458-.077.611.076s.206.417.107.609c-.087.17-.318.274-.518.274ZM109.839,61.614h.01-.01ZM109.56,61.195h.01-.01ZM109.555,61.184l.005.011-.005-.011Z" fill="#000" stroke-width="0"/>
      <path d="M93.093,87.081c-17.243,0-36.933-6.482-49.061-25.014-.033-.05-.057-.105-.069-.165-.024-.107-.047-.227-.059-.335-1.202-6.095-1.265-12.822-.176-19.414.009-.057.028-.11.055-.16L61.992,8.993c.031-.057.073-.106.124-.147,5.64-4.563,12.044-7.375,19.035-8.356,12.032-1.692,24.866,1.062,34.326,7.358,6.543,4.353,11.269,10.297,13.666,17.192.53,2.12.998,4.221,1.45,6.253.491,2.206,1,4.488,1.562,6.698,1.015,4.011,2.547,9.25,5.409,14.203,1.951,5.514,1.357,11.056-1.678,16.112-5.317,8.857-17.821,15.759-32.63,18.012h0c-3.229.492-6.645.763-10.163.763ZM44.92,61.599c14.351,21.845,39.458,26.586,58.185,23.731h0c14.523-2.209,26.755-8.929,31.923-17.538,2.918-4.861,3.467-9.969,1.631-15.182-2.884-4.976-4.442-10.3-5.473-14.373-.566-2.224-1.076-4.513-1.569-6.728-.451-2.025-.918-4.12-1.432-6.185-2.311-6.644-6.902-12.415-13.262-16.646C105.661,2.516,93.09-.179,81.289,1.48c-6.778.952-12.991,3.671-18.469,8.082l-18.121,32.839c-1.055,6.448-.989,13.021.191,19.017.009.072.019.13.029.182ZM102.09,63.845c-1.138,0-2.076-.178-2.821-.414-2.85-.876-4.775-3.215-5.145-6.256-.554-4.408,2.259-10.092,9.788-12.854,4.713-2.092,9.638-1.124,13.181,2.595,3.166,3.322,4.264,7.847,2.671,11.003-.861,1.706-3.29,4.41-9.927,3.716-.042.019-.087.033-.132.044-3.137,1.646-5.668,2.167-7.616,2.167ZM108.826,44.241c-1.49,0-3.018.329-4.522,1-.011.004-.021.009-.032.013-7.025,2.571-9.661,7.778-9.156,11.798.321,2.64,1.985,4.667,4.451,5.425,1.805.571,4.881.754,9.393-1.539.034-.097.093-.185.168-.245.106-.083.24-.124.374-.104,4.727.596,8.052-.514,9.369-3.121,1.383-2.74.331-6.889-2.503-9.862-2.111-2.216-4.76-3.363-7.542-3.363ZM104.1,44.784h.01-.01Z" fill="#000" stroke-width="0"/>
      <path d="M102.09,63.845c-1.138,0-2.076-.178-2.821-.414-2.85-.876-4.775-3.215-5.145-6.256-.554-4.408,2.259-10.092,9.788-12.854,4.713-2.092,9.638-1.124,13.181,2.595,3.166,3.322,4.264,7.847,2.671,11.003-.863,1.71-3.3,4.43-9.967,3.711-.004.003-.009.005-.013.008-3.174,1.678-5.73,2.208-7.694,2.208ZM108.826,44.241c-1.49,0-3.018.329-4.522,1-.011.004-.021.009-.032.013-7.025,2.571-9.661,7.778-9.156,11.798.321,2.64,1.985,4.667,4.451,5.425,1.805.571,4.881.754,9.393-1.539.034-.097.093-.185.168-.245.106-.083.24-.124.374-.104,4.727.596,8.052-.514,9.369-3.121,1.383-2.74.331-6.889-2.503-9.862-2.111-2.216-4.76-3.363-7.542-3.363ZM104.1,44.784h.01-.01Z" fill="#000" stroke-width="0"/>
      <path d="M109.562,61.695c-.028,0-.056-.002-.083-.007-.215-.034-.383-.205-.415-.42-.032-.216.08-.427.275-.522l.198.399-.176-.41c.193-.1.458-.077.611.076s.206.417.107.609c-.087.17-.318.274-.518.274ZM109.839,61.614h.01-.01ZM109.56,61.195h.01-.01ZM109.555,61.184l.005.011-.005-.011Z" fill="#000" stroke-width="0"/>
      <path d="M114.259,57.405c-.077,0-.154-.004-.232-.011-.015,0-.029-.004-.044-.006-1.01-.184-1.896-.942-2.495-2.138-.565-1.131-.839-3.097-.269-4.667.329-.904.907-1.559,1.674-1.892.874-.37,1.749-.304,2.535.19,1.324.833,2.106,2.72,2.17,4.073,0,1.016-.085,2.144-.723,2.994-.541.722-1.498,1.455-2.617,1.455ZM114.139,56.4c.806.063,1.524-.5,1.937-1.05.461-.615.523-1.544.523-2.371-.052-1.092-.704-2.621-1.703-3.25-.511-.32-1.037-.359-1.608-.117-.511.222-.892.664-1.128,1.312-.452,1.244-.242,2.949.223,3.879.261.521.834,1.417,1.757,1.597Z" fill="#000" stroke-width="0"/>
      <path d="M102.576,59.12c-.148,0-.294-.014-.438-.042-1.021-.188-1.925-1.033-2.418-2.264-.492-1.169-.66-3.148-.023-4.655.367-.867.965-1.483,1.73-1.783.861-.397,1.743-.338,2.52.183,1.319.888,1.964,2.838,1.901,4.223,0,1.175-.252,2.112-.795,2.926-.583.874-1.553,1.413-2.476,1.413ZM102.553,51.119c-.235,0-.479.059-.735.177-.543.213-.938.631-1.201,1.253-.523,1.238-.376,2.927.027,3.886.285.711.872,1.515,1.676,1.66.003,0,.006,0,.009.002.638.131,1.438-.268,1.889-.944.428-.643.628-1.402.628-2.394.051-1.127-.493-2.72-1.459-3.37-.268-.18-.545-.27-.835-.27Z" fill="#000" stroke-width="0"/>
      <path d="M121.016,43.186c0-1.868-1.276-3.383-2.849-3.383s-2.849,1.515-2.849,3.383,1.276,3.383,2.849,3.383,2.849-1.515,2.849-3.383Z" fill="#000" stroke-width="0"/>
      <path d="M83.001,43.72c0-1.868-1.276-3.383-2.849-3.383s-2.849,1.515-2.849,3.383,1.276,3.383,2.849,3.383,2.849-1.515,2.849-3.383Z" fill="#000" stroke-width="0"/>
      <path d="M121.995,22.586c-.075,0-.151-.017-.223-.053-.23-.115-.333-.385-.246-.62-.008-.025-.029-.064-.063-.099-1.177-1.177-2.396-1.848-3.622-1.993-1.421-.16-2.768.438-3.43,1.542-.142.236-.45.315-.686.172-.237-.142-.314-.449-.172-.686.863-1.44,2.594-2.23,4.404-2.021,1.455.172,2.872.939,4.213,2.28.342.344.453.838.271,1.201-.088.175-.264.276-.448.276Z" fill="#000" stroke-width="0"/>
      <path d="M73.03,23.832c-.059,0-.12-.011-.178-.033-.258-.098-.387-.387-.289-.645.742-1.948,2.422-3.523,4.494-4.214,2.065-.59,4.346-.269,6.123.853.233.147.303.456.156.689-.146.234-.455.303-.69.156-1.539-.973-3.517-1.25-5.293-.743-1.77.591-3.218,1.944-3.854,3.614-.076.2-.266.322-.467.322Z" fill="#000" stroke-width="0"/>
      <path d="M47.587,43.147c-.072,0-.143,0-.215,0-5.746-.088-12.807-3.91-14.607-10.821-1.088-2.144-1.603-4.67-2.1-7.114-.847-4.16-1.647-8.091-5.011-10.367-.704-.583-1.179-1.603-.803-2.481.033-.077.084-.144.149-.195,6.423-5.093,21.266-7.604,31.761-5.372,5.814,1.236,9.9,3.827,11.815,7.493.127.245.033.547-.212.675-.243.126-.547.033-.675-.212-1.772-3.393-5.624-5.806-11.137-6.978-10.937-2.327-25.215.759-30.817,5.087-.089.395.182.905.518,1.186,3.662,2.476,4.541,6.791,5.39,10.966.488,2.396.993,4.875,2.035,6.906.017.033.03.068.04.104,1.655,6.465,8.277,10.041,13.668,10.124,4.862.088,8.377-2.453,9.671-6.934.077-.265.354-.42.619-.342.265.077.418.354.342.619-1.389,4.808-5.28,7.657-10.432,7.657Z" fill="#000" stroke-width="0"/>
      <path d="M59.951,24.498c-1.762,0-3.643-.48-5.491-1.434-2.203-1.137-4.089-2.731-5.914-4.273-.517-.437-1.035-.874-1.562-1.304-2.277-1.822-5.333-4.059-8.741-5.164-3.467-1.125-7.03-1.005-9.777.33-.248.121-.547.018-.668-.231s-.017-.548.231-.669c2.977-1.443,6.812-1.584,10.522-.381,3.562,1.155,6.713,3.459,9.061,5.337.535.437,1.058.878,1.579,1.318,1.864,1.575,3.625,3.063,5.727,4.148,2.969,1.531,6.125,1.73,8.444.533.245-.128.546-.031.674.215.126.245.03.547-.215.674-1.166.602-2.481.9-3.871.9Z" fill="#000" stroke-width="0"/>
      <path d="M89.411,55.793c-.062,0-.124-.011-.184-.035-.256-.102-.382-.392-.281-.648,1.546-3.91,4.434-7.285,8.131-9.504,3.563-2.139,7.917-2.955,12.262-2.291.273.041.46.296.419.569-.042.272-.299.462-.569.419-4.116-.623-8.233.143-11.597,2.16-3.51,2.105-6.25,5.307-7.716,9.014-.078.196-.266.316-.465.316Z" fill="#000" stroke-width="0"/>
      <path d="M86.028,50.006c-.094,0-.189-.026-.273-.082-4.771-3.122-10.702-4.266-16.275-3.132-.27.056-.535-.119-.589-.391-.055-.271.12-.534.39-.59,5.826-1.184,12.031.01,17.022,3.276.231.15.296.461.145.691-.096.146-.256.227-.419.227Z" fill="#000" stroke-width="0"/>
      <path d="M118.523,47.781c-.104,0-.209-.032-.3-.1-.221-.166-.265-.479-.1-.7,1.024-1.364,2.575-2.383,4.612-3.025,1.483-.469,2.927-.603,4.456-.745l.809-.076c.281-.025.52.173.547.447.027.275-.173.52-.448.547l-.816.078c-1.474.137-2.866.267-4.248.702-1.833.579-3.217,1.479-4.113,2.672-.098.131-.249.2-.4.2Z" fill="#000" stroke-width="0"/>
      <path d="M83.91,114.935c-.154,0-.306-.07-.404-.204-.163-.223-.115-.535.107-.699,2.865-2.103,5.538-4.468,7.946-7.032.092-.115.232-.19.39-.19.276,0,.5.219.5.495v.011c0,.127-.048.249-.135.342-2.457,2.619-5.185,5.035-8.109,7.182-.089.065-.193.097-.295.097Z" fill="#000" stroke-width="0"/>
      <path d="M102.16,90.619c-.276,0-.5-.219-.5-.495,0-.05.007-.108.022-.155.422-1.383.76-2.806,1.005-4.229.047-.271.309-.452.578-.408.272.047.455.306.408.578-.251,1.46-.598,2.919-1.03,4.337-.058.214-.252.373-.482.373Z" fill="#000" stroke-width="0"/>
      <path d="M74.367,130.627c-1.496,0-2.89-.583-4.354-1.193-2.012-.84-4.092-1.709-6.551-1.012-4.715,1.333-6.812,1.21-10.317-2.213-11.477,4.401-22.294,2.996-30.492-3.966-2.613-2.218-4.933-5.136-6.897-8.67-2.181-3.928-3.591-7.901-4.189-11.812-.33-2.15-.418-4.314-.264-6.433.837-11.361,9.93-26.326,32.935-34.287.144-.05.302-.032.431.051.129.081.213.217.229.368.008.073.025.153.041.226.06.27-.109.536-.379.597-.172.037-.344-.018-.461-.133-22.205,7.84-30.991,22.284-31.799,33.242-.148,2.053-.062,4.142.255,6.217.581,3.794,1.952,7.656,4.075,11.479,1.905,3.43,4.149,6.254,6.67,8.395,7.977,6.772,18.554,8.081,29.783,3.679.187-.069.396-.028.536.112,3.341,3.341,5.043,3.469,9.57,2.187,2.796-.79,5.14.188,7.208,1.052,1.588.663,3.086,1.29,4.609,1.071,2.982-.488,8.139-5.77,8.356-9.311.087-1.428-.63-2.345-2.193-2.802-.184-.054-.321-.207-.353-.396-.032-.188.047-.379.203-.49,2.608-1.857,2.478-2.52,2.455-2.589-.318-.943-5.137-.788-8.326-.684-5.42.177-8.49.195-8.583-1.455.292-5.329-1.587-9.518-5.586-12.504-8.298-6.196-23.406-5.587-29.179-3.524-.26.092-.546-.042-.639-.303-.093-.26.042-.546.302-.639,5.949-2.127,21.533-2.743,30.114,3.664,4.285,3.2,6.299,7.677,5.986,13.305.043.7,5.114.536,7.553.457,5.444-.179,8.787-.173,9.305,1.362.285.845-.361,1.84-2.084,3.177,1.408.692,2.121,1.902,2.024,3.481-.25,4.09-5.782,9.679-9.203,10.238-.267.038-.531.056-.792.057Z" fill="#000" stroke-width="0"/>
      <path d="M68.578,128.797c-.123,0-.245-.045-.341-.135-.202-.188-.212-.505-.024-.707,2.687-2.872,4.814-5.944,6.324-9.132,1.151-2.533,1.285-4.35.405-5.543-.164-.223-.117-.535.105-.699.222-.165.536-.117.699.105,1.115,1.513,1.015,3.657-.303,6.558-1.557,3.288-3.743,6.446-6.5,9.395-.099.105-.232.158-.365.158Z" fill="#000" stroke-width="0"/>
      <path d="M76.145,117.312c-.24,0-.452-.173-.493-.418-.045-.272.139-.53.411-.575,1.662-.276,3.395-.275,5.146,0,.273.043.459.299.417.572-.043.272-.296.456-.572.416-1.646-.26-3.271-.259-4.826,0-.028.005-.055.007-.083.007Z" fill="#000" stroke-width="0"/>
      <path d="M98.139,69.787c-3.702,0-7.324-1.328-10.036-3.701-.208-.182-.229-.497-.047-.705.182-.209.498-.229.706-.047,2.698,2.36,6.373,3.614,10.063,3.438,3.655-.174,7.291-1.781,9.725-4.3.192-.198.509-.203.707-.012s.204.509.012.707c-2.646,2.737-6.435,4.415-10.396,4.603-.244.012-.489.018-.733.018Z" fill="#000" stroke-width="0"/>
      <path d="M116.306,110.502c-2.143,0-4.273-.47-5.705-1.368-.973-.781-1.517-1.746-1.997-2.598-.808-1.434-1.415-2.463-3.336-2.406-9.966,3.663-17.356,5.348-23.372,2.438-4.337-2.096-7.568-6.528-9.876-13.549-.086-.263.057-.545.319-.631.262-.09.544.057.631.318,2.219,6.749,5.281,10.989,9.361,12.961,5.713,2.762,12.907,1.088,22.665-2.503.048-.018.098-.028.148-.03,2.627-.135,3.489,1.417,4.331,2.91.458.812.93,1.65,1.706,2.276,2.146,1.342,6.367,1.585,9.168.498,1.106-.43,2.515-1.269,2.945-2.824.045-.163.169-.292.33-.344.162-.05.337-.018.468.089.564.459,1.247.277,1.603.129.837-.351,1.481-1.149,1.583-1.957-.757-4.909-4.559-9.423-7.914-13.407-.637-.757-1.261-1.498-1.851-2.224-3.345-2.927-7.654-.987-11.821.887-4.292,1.931-8.73,3.929-11.616-.203-.158-.226-.103-.538.123-.696.228-.157.538-.104.696.124,2.413,3.451,6.108,1.79,10.387-.137,4.248-1.911,9.062-4.078,12.949-.666.645.782,1.265,1.519,1.898,2.271,3.456,4.103,7.372,8.753,8.148,13.968.006.04.007.08.003.121-.114,1.196-.998,2.338-2.199,2.841-.714.299-1.426.318-2.037.071-.553,1.261-1.693,2.252-3.333,2.889-1.303.506-2.857.751-4.404.751Z" fill="#000" stroke-width="0"/>
      <path d="M108.196,105.027c-.259,0-.479-.2-.498-.463-.021-.275.187-.516.462-.536,5.874-.432,11.6-3.425,15.317-8.008.173-.213.488-.248.703-.073.214.175.248.489.073.704-3.888,4.792-9.876,7.923-16.021,8.375-.012,0-.025,0-.037,0Z" fill="#000" stroke-width="0"/>
      <path d="M123.331,106.362c-.17,0-.335-.087-.429-.243-.659-1.098-1.362-2.177-2.042-3.22-.422-.648-.84-1.291-1.247-1.935-.147-.233-.078-.542.156-.689.235-.147.542-.078.69.156.403.639.82,1.278,1.239,1.922.685,1.051,1.393,2.138,2.061,3.252.142.236.065.544-.171.686-.081.049-.169.071-.257.071Z" fill="#000" stroke-width="0"/>
      <path d="M97.797,119.37c-.65,0-1.298-.033-1.94-.103-.274-.029-.473-.275-.444-.551.029-.274.271-.476.55-.443,4.817.519,9.969-1.041,13.786-4.163.213-.176.528-.144.704.07.175.214.143.528-.071.703-3.511,2.873-8.098,4.486-12.585,4.486Z" fill="#000" stroke-width="0"/>
      <path d="M111.936,125.147c-.189,0-.37-.107-.455-.29-.266-.576-.554-1.175-.842-1.773-.291-.604-.581-1.207-.849-1.788-.802-1.692-1.633-3.447-1.911-5.392-.039-.273.151-.526.424-.565.27-.033.527.15.566.425.256,1.794,1.019,3.403,1.826,5.108.268.58.557,1.179.845,1.777.291.604.581,1.207.849,1.788.116.251.006.548-.245.664-.068.031-.139.046-.209.046Z" fill="#000" stroke-width="0"/>
    </g>
  </g>
</svg>