<?xml version="1.0" encoding="UTF-8"?>
<svg id="b" data-name="Layer 2" xmlns="http://www.w3.org/2000/svg" width="110.252" height="143.251" viewBox="0 0 110.252 143.251">
  <g id="c" data-name="OBJECTS">
    <g id="d" data-name="Quail Outline">
      <g id="e" data-name="path15">
        <path d="M37.869,139.823c-.414,0-.759-.093-1.014-.301-.365-.299-.546-.701-.524-1.164.043-.887.89-1.93,1.859-2.843-3.757,1.403-8.92,2.91-9.961,1.086-.229-.4-.25-.833-.061-1.25.515-1.135,2.72-2.075,4.815-2.734-1.132-.122-2.168-.395-2.622-.953-.274-.337-.348-.747-.213-1.185.23-.749,1.967-2.335,12.992-1.059l2.764-16.003c.047-.273.304-.454.578-.408.272.047.455.306.408.578l-2.845,16.47c-.046.262-.296.44-.552.412-6.428-.771-12.102-.631-12.389.305-.045.147-.009.209.033.26.578.711,3.755.762,5.824.567.258-.029.502.162.541.425.039.263-.135.51-.395.563-2.806.571-7.467,1.938-8.028,3.176-.057.125-.051.22.018.341.671,1.174,6.733-.554,11.965-2.829.238-.105.515-.008.638.219.124.227.054.512-.162.655-1.599,1.067-4.156,3.166-4.209,4.256-.007.145.039.243.158.34.924.761,6.006-2.135,10.184-5.25.12-.089.273-.121.417-.085,3.651.894,7.844,1.202,8.25.143.011-.029.024-.062-.024-.144-.655-1.105-6.079-2.292-9.721-2.781-.139-.019-.264-.095-.344-.209-.08-.115-.108-.258-.078-.395l3.499-15.672c.06-.27.331-.439.597-.379.27.06.439.327.379.597l-3.38,15.144c2.313.336,8.869,1.433,9.909,3.187.193.326.227.676.097,1.013-.888,2.303-7.373.953-9.192.524-2.066,1.528-7.546,5.383-10.212,5.383Z" fill="#000" stroke-width="0"/>
      </g>
      <path d="M105.552,116.425c-2.119,0-5.312-.639-10.929-1.763-3.06-.612-6.861-1.373-11.623-2.26-4.2,1.478-8.453,2.536-12.642,3.145l-.144-.989c4.167-.606,8.399-1.663,12.579-3.143l.126-.045.132.024c4.831.899,8.677,1.669,11.768,2.287,10.463,2.094,12.073,2.416,14.117.371.215-.216.318-.513.315-.907-.027-3.111-6.484-10.042-8.97-12.451l-.104-.101-.034-.142c-.079-.33-8.137-32.917-34.189-43.751-.891,2.57-2.026,4.497-3.222,5.456-12.427,9.959-32.343,10.618-42.849,7.905-1.668,4.113-4.384,13.942,1.828,24.613,9.055,15.587,28.687,21.454,44.111,20.359l.071.997c-9.853.703-19.415-1.095-27.665-5.191-7.507-3.727-13.68-9.29-17.382-15.663-6.65-11.424-3.417-21.923-1.718-25.907l.171-.401.42.115c10.183,2.787,30.064,2.269,42.386-7.607,1.123-.9,2.212-2.852,3.067-5.494l.165-.51.497.2c26.028,10.459,34.625,42.096,35.244,44.504,1.062,1.042,9.136,9.086,9.171,13.061.006.666-.198,1.212-.607,1.622-1.148,1.148-2.185,1.666-4.092,1.667Z" fill="#000" stroke-width="0"/>
      <g>
        <path d="M28.185,95.766c-.92,0-1.84-.37-2.477-1.048-.189-.201-.179-.518.022-.707.2-.188.518-.18.707.022.639.68,1.733.919,2.598.572.866-.349,1.487-1.279,1.477-2.213-.003-.276.219-.502.495-.505h.005c.274,0,.497.22.5.495.015,1.351-.851,2.647-2.104,3.151-.39.157-.807.233-1.223.233Z" fill="#000" stroke-width="0"/>
        <path d="M36.232,100.276c-.921,0-1.841-.37-2.478-1.048-.189-.201-.179-.518.022-.707.201-.188.518-.18.707.022.64.681,1.731.92,2.599.572.866-.349,1.487-1.28,1.477-2.213-.003-.276.218-.502.495-.505h.005c.273,0,.497.22.5.495.015,1.351-.85,2.647-2.103,3.152-.391.157-.807.232-1.223.232Z" fill="#000" stroke-width="0"/>
        <path d="M44.982,105.739c-.92,0-1.84-.37-2.477-1.048-.189-.201-.179-.518.022-.707.2-.188.517-.181.707.022.639.681,1.732.919,2.598.572.866-.349,1.487-1.279,1.477-2.213-.003-.276.219-.502.495-.505h.005c.274,0,.497.22.5.495.015,1.351-.851,2.647-2.104,3.151-.39.157-.807.233-1.223.233Z" fill="#000" stroke-width="0"/>
        <path d="M56.234,107.704c-.92,0-1.84-.37-2.477-1.048-.189-.201-.179-.518.022-.707.201-.188.519-.18.707.022.639.68,1.733.919,2.598.572.866-.349,1.487-1.28,1.477-2.213-.003-.276.218-.502.495-.505h.005c.273,0,.497.22.5.495.015,1.351-.85,2.647-2.103,3.152-.391.157-.807.233-1.224.233Z" fill="#000" stroke-width="0"/>
        <path d="M47.452,97.725c-.92,0-1.84-.37-2.477-1.048-.189-.201-.179-.518.022-.707s.518-.179.707.022c.639.679,1.73.92,2.599.572.866-.349,1.487-1.28,1.477-2.213-.003-.276.218-.502.495-.505h.005c.273,0,.497.22.5.495.015,1.351-.85,2.647-2.103,3.152-.391.157-.807.233-1.224.233Z" fill="#000" stroke-width="0"/>
        <path d="M56.494,100.276c-.921,0-1.841-.37-2.478-1.048-.189-.201-.179-.518.022-.707.201-.188.518-.18.707.022.64.681,1.731.92,2.599.572.866-.349,1.487-1.28,1.477-2.213-.003-.276.218-.502.495-.505h.005c.273,0,.497.22.5.495.015,1.351-.85,2.647-2.103,3.152-.391.157-.807.232-1.223.232Z" fill="#000" stroke-width="0"/>
        <path d="M65.649,105.739c-.92,0-1.84-.37-2.477-1.048-.189-.201-.179-.518.022-.707.201-.188.518-.18.707.022.639.681,1.733.919,2.598.572.866-.349,1.487-1.279,1.477-2.213-.003-.276.218-.502.495-.505h.005c.273,0,.497.22.5.495.015,1.351-.85,2.647-2.104,3.151-.39.157-.807.233-1.223.233Z" fill="#000" stroke-width="0"/>
        <path d="M47.71,91.296c-1.217,0-2.407-.692-2.985-1.772-.13-.244-.039-.546.205-.677.245-.129.547-.039.677.205.44.823,1.432,1.338,2.359,1.229.927-.111,1.769-.848,2.003-1.752.069-.268.341-.432.609-.359.268.069.428.341.359.609-.338,1.309-1.51,2.334-2.852,2.495-.125.015-.25.022-.375.022Z" fill="#000" stroke-width="0"/>
        <path d="M37.341,89.611c-1.18,0-2.34-.646-2.935-1.676-.138-.239-.056-.545.183-.683.238-.138.544-.057.683.183.467.809,1.473,1.293,2.399,1.151.923-.142,1.74-.906,1.943-1.817.06-.27.331-.438.597-.379.27.06.439.327.379.597-.294,1.318-1.432,2.382-2.768,2.587-.16.024-.321.037-.481.037Z" fill="#000" stroke-width="0"/>
      </g>
      <g id="f" data-name="path13">
        <path d="M87.285,101.92c-2.815,0-4.587-2.323-5.383-3.682-.26.382-.657.787-1.257,1.067-1.618.756-3.975.273-7.001-1.44-9.111-5.153-13.974-11.824-16.448-16.513-2.689-5.095-3.209-8.923-3.23-9.084-.036-.274.157-.524.431-.56.271-.04.525.157.561.431.02.151,2.184,15.243,19.179,24.856,3.383,1.913,5.168,1.824,6.07,1.411.974-.445,1.169-1.369,1.177-1.408.043-.216.223-.379.441-.401.215-.024.426.1.511.302.017.04,1.723,4.021,4.949,4.021.401,0,.685-.134.892-.422,1.055-1.464-.107-5.966-.644-7.577-.085-.254.045-.529.294-.625.25-.094.53.021.638.266.671,1.533,2.882,5.57,5.014,5.836.191.024.334-.037.479-.203,1.459-1.673.596-10.083-.698-14.935-.071-.267.087-.541.354-.612.266-.07.541.087.612.354,1.203,4.51,2.394,13.663.486,15.85-.365.417-.833.606-1.357.538-1.534-.191-2.933-1.679-3.974-3.176.302,1.79.387,3.785-.393,4.868-.395.547-.984.837-1.703.837Z" fill="#000" stroke-width="0"/>
      </g>
      <path d="M81.875,97.592c-.219,0-.42-.146-.482-.367-.007-.024-.722-2.513-3.934-6.881-.164-.223-.116-.536.106-.699.223-.165.535-.116.699.106,3.341,4.544,4.063,7.103,4.093,7.209.073.266-.084.54-.35.613-.044.012-.089.018-.133.018Z" fill="#000" stroke-width="0"/>
      <path d="M88.006,93.264c-.218,0-.418-.143-.48-.363-.762-2.675-2.59-6.769-5.438-10.233-.175-.213-.145-.528.069-.704.213-.176.529-.145.704.069,2.946,3.583,4.839,7.822,5.628,10.595.076.266-.079.542-.344.618-.045.013-.092.019-.137.019Z" fill="#000" stroke-width="0"/>
      <path d="M82.957,112.381c-.141,0-.282-.06-.38-.176-24.77-29.054-46.777-34.672-56.739-27.598-4.24,3.01-5.279,7.864-2.649,12.365.139.239.059.545-.179.684-.238.141-.545.06-.684-.179-2.866-4.905-1.688-10.405,2.933-13.686,5.199-3.691,13.352-3.847,22.366-.426,11.295,4.287,23.645,14.035,35.713,28.191.179.21.154.525-.056.705-.094.081-.209.12-.324.12Z" fill="#000" stroke-width="0"/>
      <path d="M32.087,71.435c-4.853,0-9.261-.566-12.629-1.488-2.039-.559-3.768-1.242-5.137-2.029-5.1-2.927-10.137-8.384-9.895-13.978.109-2.526,1.406-6.07,6.908-8.73-.94-12.788,5.055-23.674,15.704-28.466.251-.114.547-.001.661.251.113.252,0,.548-.251.661-10.346,4.656-16.128,15.314-15.09,27.816.018.209-.097.407-.288.495-4.205,1.95-6.502,4.722-6.645,8.015-.194,4.479,3.581,9.731,9.394,13.067,1.296.745,2.946,1.395,4.903,1.931,10.183,2.787,30.064,2.268,42.385-7.607,1.123-.9,2.212-2.852,3.067-5.494,1.549-4.835,2.477-12.798.436-20.64-1.556-5.978-5.428-13.874-15.039-17.549-6.89-2.636-13.787-3.059-19.943-1.218-.265.077-.543-.071-.622-.336s.071-.543.336-.622c6.37-1.903,13.489-1.474,20.586,1.243,10.008,3.827,14.034,12.026,15.649,18.231,2.095,8.049,1.141,16.228-.452,21.198-.915,2.828-2.12,4.946-3.393,5.968-8.511,6.821-20.537,9.279-30.646,9.28Z" fill="#000" stroke-width="0"/>
      <ellipse cx="39.75" cy="42.538" rx="2.279" ry="3.535" fill="#000" stroke-width="0"/>
      <ellipse cx="21.704" cy="42.538" rx="2.279" ry="3.535" fill="#000" stroke-width="0"/>
      <g id="g" data-name="path3">
        <path d="M29.357,22.5c-.744,0-1.473-.468-2.168-1.395-.065-.087-.1-.192-.1-.3,0-5.037-2.327-13.273-8.569-13.931-4.17-.436-6.51,1.072-7.25,2.499-.545,1.052-.376,2.206.465,3.167,1.431,1.635,1.616,4.28.44,6.288-1.309,2.236-3.88,3.134-7.052,2.466C1.949,20.626-.2,16.928.015,12.501.272,7.204,3.94,1.167,13.467.109c4.159-.459,7.739.539,10.648,2.973,6.727,5.629,7.548,16.854,7.58,17.329.005.081-.009.162-.042.236-.077.173-.789,1.694-2.095,1.842-.067.007-.135.011-.202.011ZM28.088,20.633c.36.451.861.912,1.356.862.569-.063,1.047-.771,1.243-1.146-.112-1.265-1.19-11.463-7.216-16.502-2.691-2.251-6.023-3.176-9.894-2.744C4.675,2.092,1.251,7.664,1.014,12.549c-.188,3.87,1.668,7.209,4.316,7.767,2.725.573,4.905-.153,5.983-1.993.949-1.621.807-3.824-.331-5.125-1.109-1.268-1.333-2.87-.6-4.285.927-1.788,3.583-3.527,8.242-3.033,6.822.718,9.41,9.354,9.464,14.753Z" fill="#000" stroke-width="0"/>
      </g>
      <g id="h" data-name="path4">
        <path d="M16.769,31.404c-.009,0-.018,0-.027,0-.276-.015-.487-.25-.473-.526.041-.755.717-1.498,1.903-2.093,1.8-.902,4.546-1.308,6.087-.28.23.153.292.463.139.693-.154.229-.464.291-.693.139-1.182-.788-3.514-.445-5.084.342-.975.489-1.338.98-1.353,1.252-.015.267-.235.473-.499.473Z" fill="#000" stroke-width="0"/>
      </g>
      <g id="i" data-name="path5">
        <path d="M45.444,33.208c-.184,0-.36-.101-.448-.276-.831-1.663-2.57-2.942-4.653-3.424-1.408-.325-2.724-.19-3.433.351-.219.168-.533.127-.701-.093-.168-.219-.126-.533.093-.701.954-.73,2.547-.93,4.266-.531,2.37.548,4.359,2.024,5.322,3.951.124.247.023.547-.224.671-.072.036-.148.053-.223.053Z" fill="#000" stroke-width="0"/>
      </g>
      <g id="j" data-name="path11">
        <path d="M26.199,61.277c-.297,0-.604-.008-.922-.025-5.141-.274-8.016-2.343-9.272-3.551-.124-.119-.178-.293-.143-.461.035-.168.153-.307.314-.367,2.148-.807,5.178-.868,8.385-.932,3.305-.066,6.722-.134,9.316-1.034.133-.047.28-.035.405.034.124.068.213.186.246.324.027.117.033.225.018.329-.147.979-1.227,5.683-8.347,5.683ZM17.357,57.549c1.294,1.012,3.855,2.484,7.974,2.704,5.957.33,7.615-2.671,8.074-4.153-2.606.717-5.762.78-8.823.841-2.71.054-5.291.106-7.225.608Z" fill="#000" stroke-width="0"/>
      </g>
      <g id="k" data-name="path10">
        <path d="M14.472,59.045c-.063,0-.126-.012-.188-.037-.196-.079-.321-.273-.312-.484.004-.094.497-9.457,8.93-11.433.449-.103.937-.145,1.43-.148,2.697.022,6.107,1.684,8.293,4.041,1.371,1.478,2.076,3.042,1.985,4.405-.013.199-.144.372-.332.438-2.754.976-6.284,1.046-9.698,1.114-4.195.083-8.158.163-9.734,1.936-.097.109-.234.168-.374.168ZM24.272,47.943c-.403,0-.788.041-1.144.122-6.041,1.416-7.615,6.875-8.019,9.319,2.138-1.297,5.707-1.368,9.451-1.442,3.195-.064,6.495-.129,9.054-.946-.055-1.015-.657-2.184-1.722-3.332-2.014-2.171-5.126-3.701-7.569-3.721h-.052ZM34.111,55.356h.01-.01Z" fill="#000" stroke-width="0"/>
      </g>
      <g id="l" data-name="path12">
        <path d="M30.456,28.896c-1.471,0-2.868-.431-4.095-1.491-4.196-3.624-1.959-8.998-1.937-9.051.108-.253.402-.37.656-.263.253.108.372.402.264.656-.082.193-1.965,4.762,1.67,7.901,3.702,3.197,9.548-.437,13.624-3.45,4.03-2.978,9.043-6.685,15.479-3.657.25.118.357.416.24.666-.118.25-.415.356-.666.24-5.894-2.776-10.444.589-14.458,3.556-3.093,2.286-7.16,4.894-10.777,4.894Z" fill="#000" stroke-width="0"/>
      </g>
      <g id="m" data-name="path14">
        <path d="M56.682,143.251c-.446,0-.819-.1-1.094-.324-.39-.319-.583-.748-.559-1.24.049-1.007,1.089-2.226,2.223-3.264-9.259,3.53-10.91,1.737-11.16,1.299-.244-.426-.266-.886-.064-1.331.575-1.268,3.176-2.331,5.537-3.058-1.34-.117-2.599-.41-3.127-1.06-.291-.358-.369-.793-.226-1.259.195-.636,1.808-2.575,14.313-1.126l3.346-19.371c.026-.15.119-.28.252-.353,1.632-.897,2.984-1.188,4.017-.867.839.262,1.147.837,1.18.901.051.103.066.22.041.333l-4.391,19.669c2.494.36,9.796,1.568,10.939,3.496.205.345.24.715.104,1.072-.966,2.511-8.13,1.006-10.095.542-2.259,1.671-8.317,5.942-11.236,5.942ZM60.413,136.088c.178,0,.349.095.439.261.124.227.054.512-.162.655-1.771,1.181-4.603,3.511-4.662,4.731-.009.175.049.3.192.417,1.038.852,6.667-2.341,11.288-5.785.12-.089.271-.121.418-.085,3.391.831,8.646,1.444,9.153.126.018-.046.03-.101-.03-.203-.772-1.302-7.004-2.586-10.751-3.09-.139-.019-.264-.095-.344-.209-.08-.115-.108-.258-.078-.395l4.461-19.985c-.363-.386-1.438-.688-3.522.4l-3.385,19.598c-.046.263-.295.441-.552.412-6.333-.76-13.353-.792-13.71.372-.052.167-.019.254.045.334.648.798,4.171.858,6.464.645.258-.026.502.162.541.425.039.263-.135.51-.395.563-3.103.632-8.259,2.148-8.885,3.529-.069.152-.062.274.022.422.753,1.318,7.466-.581,13.253-3.096.064-.028.132-.042.199-.042Z" fill="#000" stroke-width="0"/>
      </g>
    </g>
  </g>
</svg>