<?xml version="1.0" encoding="UTF-8"?>
<svg id="b" data-name="Layer 2" xmlns="http://www.w3.org/2000/svg" width="112.819" height="169.174" viewBox="0 0 112.819 169.174">
  <g id="c" data-name="OBJECTS">
    <g id="d" data-name="Rabbit Outline">
      <g id="e" data-name="path793">
        <path d="M54.505,158.584c-.457,0-.918-.02-1.384-.061-3.26-.287-5.82-1.641-7.61-4.024-.166-.221-.121-.534.1-.699.22-.167.535-.121.7.1,1.612,2.146,3.933,3.367,6.898,3.628,5.254.47,10.01-1.963,12.387-4.574.186-.204.504-.219.707-.033.204.187.219.503.033.707-2.332,2.561-6.79,4.957-11.831,4.957Z" fill="#000" stroke-width="0"/>
      </g>
      <g id="f" data-name="path792">
        <path d="M87.89,169.174c-8.4,0-19.899-1.823-21.663-2.264-.399-.1-.949-.291-1.114-.798-.198-.607.287-1.188.902-1.925.998-1.194,2.365-2.831,1.65-5.155-1.398-4.542-2.792-6.892-2.806-6.914-.142-.237-.065-.544.171-.687.237-.139.544-.066.687.171.059.099,1.466,2.464,2.903,7.135.875,2.844-.823,4.877-1.838,6.092-.284.339-.668.799-.71.983h0c.028,0,.136.062.396.127,2.989.748,24.831,3.879,29.006,1.108.322-.215.498-.443.537-.699.058-.375-.053-.723-.337-1.062-2.146-2.553-12.575-3.312-16.412-3.389-.206-.004-.388-.134-.459-.327-.071-.192-.018-.41.137-.547.126-.112,12.618-11.375,8.842-20.985-3.267-7.746-5.754-8.085-5.778-8.087-.268-.027-.476-.262-.458-.53.017-.268.225-.462.502-.469.31.008,3.123.32,6.661,8.709,3.461,8.808-5.312,18.416-8.223,21.277,3.515.152,13.541.835,15.954,3.704.474.564.662,1.189.56,1.857-.083.542-.41,1.006-.973,1.379-1.428.95-4.491,1.294-8.138,1.294Z" fill="#000" stroke-width="0"/>
      </g>
      <g id="g" data-name="path791">
        <path d="M24.36,169.173c-3.647,0-6.71-.343-8.139-1.293-.562-.373-.889-.837-.972-1.379-.103-.668.086-1.293.56-1.857,2.413-2.869,12.44-3.552,15.954-3.704-2.91-2.861-11.683-12.469-8.227-21.266,2.938-8.168,6.475-8.72,6.624-8.739.271-.036.525.157.561.432.036.271-.154.521-.424.56-.061.011-3.137.63-5.825,8.1-3.783,9.631,8.711,20.887,8.837,20.999.154.137.208.354.137.547s-.253.323-.459.327c-3.837.077-14.266.836-16.412,3.389-.285.339-.395.687-.337,1.062.04.256.215.484.538.699,4.172,2.771,26.017-.36,29.006-1.108.344-.086.421-.168.422-.169-.034-.103-.439-.587-.735-.941-1.015-1.215-2.713-3.248-1.839-6.092,1.438-4.67,2.773-6.939,2.829-7.034.142-.237.448-.314.685-.174.237.141.315.448.174.686-.013.021-1.335,2.275-2.732,6.817-.715,2.324.652,3.961,1.65,5.155.615.736,1.1,1.317.902,1.925-.165.507-.714.698-1.114.798-1.764.44-13.264,2.263-21.664,2.263Z" fill="#000" stroke-width="0"/>
      </g>
      <path d="M36.218,103.766c-.076,0-.153-.018-.225-.054-.247-.125-.345-.426-.221-.672.498-.984,1.027-1.954,1.572-2.882.14-.238.446-.317.685-.177.238.14.317.446.178.685-.535.909-1.054,1.859-1.542,2.825-.088.174-.264.274-.447.274Z" fill="#000" stroke-width="0"/>
      <path d="M56.005,153.273c-21.927,0-26.53-13.524-26.53-24.87,0-5.432,1.01-11.375,2.921-17.187.086-.262.37-.408.631-.318.262.086.405.368.319.631-1.878,5.712-2.872,11.547-2.872,16.874,0,19.729,13.883,23.87,25.53,23.87s25.53-4.142,25.53-23.87c0-5.264-.974-11.034-2.814-16.686-.085-.263.059-.545.32-.631.269-.084.545.059.631.32,1.873,5.751,2.863,11.628,2.863,16.996,0,11.346-4.603,24.87-26.53,24.87Z" fill="#000" stroke-width="0"/>
      <path d="M75.866,103.928c-.183,0-.359-.101-.447-.275-.546-1.089-1.126-2.15-1.724-3.154-.142-.237-.063-.545.174-.686.236-.143.544-.063.686.174.609,1.025,1.201,2.107,1.759,3.217.123.247.023.548-.223.672-.072.036-.148.053-.225.053Z" fill="#000" stroke-width="0"/>
      <path d="M76.896,57.053c-.116,0-.229-.041-.32-.116-.673-.561-1.405-1.107-2.24-1.67-.228-.154-.288-.463-.136-.692,4.715-7.073,19.958-30.776,18.168-38.834-.876-3.932-2.289-6.316-4.201-7.084-1.702-.685-3.838-.147-6.523,1.642-3.701,2.471-11.247,29.21-13.386,41.291-.025.144-.112.269-.237.343-.125.075-.277.09-.415.043-.818-.277-1.562-.499-2.272-.679-.248-.063-.408-.303-.372-.556C67.103,35.798,73.372.945,85.279.054c4.447-.338,7.786.914,9.91,3.714,3.664,4.833,2.903,13.722.646,19.935h0c-2.276,6.278-13.705,25.247-18.513,33.11-.076.124-.202.209-.345.232-.027.004-.055.007-.082.007ZM75.305,54.719c.521.363,1.006.723,1.462,1.085,4.95-8.108,15.928-26.375,18.129-32.441h0c2.167-5.967,2.935-14.455-.504-18.99-1.904-2.512-4.94-3.627-9.039-3.321-11.354.85-17.601,37.431-19.339,49.391.438.119.888.253,1.361.405,2.111-11.431,9.596-38.632,13.713-41.381,2.982-1.985,5.422-2.554,7.451-1.737,2.236.898,3.853,3.521,4.805,7.794,1.841,8.291-12.982,31.574-18.039,39.195Z" fill="#000" stroke-width="0"/>
      <path d="M34.075,57.422c-.026,0-.053-.002-.08-.006-.144-.023-.271-.108-.347-.233-6.056-9.914-16.542-27.446-18.733-33.479-2.257-6.213-3.018-15.102.646-19.936C17.684.969,21.019-.283,25.473.054c11.966.901,18.208,35.874,20.337,50.868.035.249-.119.485-.361.552-.805.224-1.542.458-2.252.718-.14.051-.293.038-.422-.037-.128-.074-.217-.201-.242-.347-2.051-11.806-9.721-39.031-13.425-41.51-2.687-1.789-4.821-2.325-6.523-1.641-1.912.768-3.325,3.152-4.201,7.084-1.435,6.465,8.552,24.465,18.377,39.154.151.226.094.532-.13.688-.75.523-1.501,1.102-2.232,1.721-.091.077-.206.119-.323.119ZM24.107,1.001c-3.447,0-6.049,1.131-7.748,3.371-3.438,4.535-2.671,13.022-.504,18.989,2.197,6.049,13.326,24.578,18.345,32.806.481-.393.97-.769,1.459-1.122-5.107-7.67-20.111-31.151-18.253-39.522h0c.952-4.274,2.568-6.896,4.804-7.795,2.032-.817,4.469-.249,7.451,1.737,4.195,2.808,11.666,30.114,13.752,41.589.433-.148.878-.288,1.344-.424-1.725-11.99-7.944-48.72-19.361-49.58-.442-.033-.873-.05-1.291-.05Z" fill="#000" stroke-width="0"/>
      <g id="h" data-name="path773">
        <path d="M49.492,103.449c-.016,0-.032,0-.047-.002-16.925-1.599-26.632-9.491-26.632-21.653,0-8.164,2.799-16.165,7.678-21.951,5.907-7.005,14.628-10.707,25.219-10.707s19.312,3.702,25.219,10.707c4.88,5.786,7.679,13.787,7.679,21.951,0,11.322-8.634,19.086-23.688,21.3-.266.033-.526-.148-.567-.423-.04-.272.149-.526.423-.567,19.866-2.921,22.833-13.979,22.833-20.31,0-21.751-16.535-31.658-31.898-31.658s-31.897,9.907-31.897,31.658c0,11.584,9.376,19.113,25.726,20.657.275.026.477.271.451.545-.024.259-.242.453-.497.453Z" fill="#000" stroke-width="0"/>
      </g>
      <g id="i" data-name="g774">
        <g id="j" data-name="ellipse773">
          <ellipse cx="41.949" cy="78.183" rx="3.049" ry="3.79" fill="#000" stroke-width="0"/>
        </g>
        <g id="k" data-name="ellipse774">
          <ellipse cx="69.472" cy="78.183" rx="3.049" ry="3.79" fill="#000" stroke-width="0"/>
        </g>
      </g>
      <g id="l" data-name="ellipse775">
        <ellipse cx="55.711" cy="84.874" rx="3.296" ry="2.307" fill="#000" stroke-width="0"/>
      </g>
      <g id="m" data-name="path775">
        <path d="M58.447,89.929c-1.422,0-2.268-.666-2.737-1.434-.49.803-1.397,1.468-2.935,1.43-2.562-.106-3.415-2.329-3.507-3.489-.022-.274.183-.515.457-.537.278-.037.516.182.54.455.009.102.242,2.476,2.553,2.571,2.209.128,2.381-1.864,2.393-2.088.014-.266.234-.475.5-.475h.002c.267,0,.485.211.497.478.011.221.152,2.212,2.394,2.085,2.311-.096,2.544-2.47,2.553-2.571.023-.273.249-.49.54-.455.274.022.479.263.456.537-.093,1.16-.945,3.383-3.508,3.489-.066.002-.133.004-.197.004Z" fill="#000" stroke-width="0"/>
      </g>
      <g id="n" data-name="path794">
        <path d="M17.749,168.173c-.017,0-.034,0-.051-.003-.275-.028-.475-.273-.447-.548.176-1.713,2.509-3.622,5.575-3.622.276,0,.5.224.5.5s-.224.5-.5.5c-2.625,0-4.466,1.613-4.58,2.724-.026.258-.244.449-.497.449Z" fill="#000" stroke-width="0"/>
      </g>
      <g id="o" data-name="path795">
        <path d="M93.783,168.173c-.253,0-.47-.191-.496-.449-.113-1.11-1.954-2.724-4.58-2.724-.276,0-.5-.224-.5-.5s.224-.5.5-.5c3.067,0,5.4,1.909,5.574,3.622.028.274-.172.521-.446.548-.018.002-.034.003-.052.003Z" fill="#000" stroke-width="0"/>
      </g>
      <g id="p" data-name="path801">
        <path d="M77.328,112.352c-.236,0-.446-.168-.49-.409-.051-.271.129-.532.4-.582.793-.147,19.482-3.601,25.192-3.957,3.685-.23,8.121-2.175,9.166-5.028.65-1.774-.094-3.704-2.211-5.736-2.678-2.568-9.618-1.941-20.071,1.82-8.012,2.883-15.273,6.619-15.346,6.656-.243.126-.547.031-.674-.215-.127-.245-.03-.547.215-.674,1.2-.621,29.484-15.108,36.568-8.309,3.026,2.904,3.007,5.301,2.458,6.801-1.187,3.238-6.038,5.432-10.043,5.683-5.649.353-24.88,3.906-25.073,3.941-.03.006-.062.009-.092.009Z" fill="#000" stroke-width="0"/>
      </g>
      <g id="q" data-name="circle802">
        <path d="M108.834,101.805c-1.142,0-2.07-.929-2.07-2.07s.929-2.071,2.07-2.071,2.071.929,2.071,2.071-.929,2.07-2.071,2.07ZM108.834,98.663c-.59,0-1.07.48-1.07,1.071s.48,1.07,1.07,1.07,1.071-.48,1.071-1.07-.48-1.071-1.071-1.071Z" fill="#000" stroke-width="0"/>
      </g>
      <g id="r" data-name="circle803">
        <path d="M105.244,99.337c-1.143,0-2.071-.929-2.071-2.071s.929-2.07,2.071-2.07,2.07.929,2.07,2.07-.929,2.071-2.07,2.071ZM105.244,96.196c-.591,0-1.071.48-1.071,1.07s.48,1.071,1.071,1.071,1.07-.48,1.07-1.071-.48-1.07-1.07-1.07Z" fill="#000" stroke-width="0"/>
      </g>
      <g id="s" data-name="circle804">
        <path d="M107.084,105.889c-1.142,0-2.07-.929-2.07-2.07s.929-2.071,2.07-2.071,2.071.929,2.071,2.071-.929,2.07-2.071,2.07ZM107.084,102.747c-.59,0-1.07.48-1.07,1.071s.48,1.07,1.07,1.07,1.071-.48,1.071-1.07-.48-1.071-1.071-1.071Z" fill="#000" stroke-width="0"/>
      </g>
      <g id="t" data-name="circle805">
        <path d="M102.013,104.947c-1.761,0-3.192-1.432-3.192-3.192s1.432-3.193,3.192-3.193,3.192,1.433,3.192,3.193-1.432,3.192-3.192,3.192ZM102.013,99.561c-1.209,0-2.192.984-2.192,2.193s.983,2.192,2.192,2.192,2.192-.983,2.192-2.192-.983-2.193-2.192-2.193Z" fill="#000" stroke-width="0"/>
      </g>
      <g id="u" data-name="path796">
        <path d="M35.49,112.352c-.03,0-.061-.003-.091-.009-.194-.035-19.424-3.589-25.073-3.941-4.005-.251-8.857-2.444-10.043-5.683-.549-1.5-.569-3.896,2.458-6.801,7.083-6.801,35.368,7.688,36.569,8.309.245.127.341.429.215.674s-.429.343-.674.215c-.288-.148-28.846-14.783-35.417-8.477-2.117,2.032-2.861,3.962-2.211,5.736,1.045,2.854,5.481,4.798,9.167,5.028,5.709.356,24.399,3.81,25.192,3.957.272.05.451.311.401.582-.044.241-.255.409-.491.409Z" fill="#000" stroke-width="0"/>
      </g>
      <g id="v" data-name="path799">
        <path d="M3.985,101.805c-1.142,0-2.071-.929-2.071-2.07s.929-2.071,2.071-2.071,2.071.929,2.071,2.071-.929,2.07-2.071,2.07ZM3.985,98.663c-.59,0-1.071.48-1.071,1.071s.48,1.07,1.071,1.07,1.071-.48,1.071-1.07-.48-1.071-1.071-1.071Z" fill="#000" stroke-width="0"/>
      </g>
      <g id="w" data-name="circle800">
        <path d="M7.575,99.337c-1.142,0-2.071-.929-2.071-2.071s.929-2.07,2.071-2.07,2.071.929,2.071,2.07-.929,2.071-2.071,2.071ZM7.575,96.196c-.59,0-1.071.48-1.071,1.07s.48,1.071,1.071,1.071,1.071-.48,1.071-1.071-.48-1.07-1.071-1.07Z" fill="#000" stroke-width="0"/>
      </g>
      <g id="x" data-name="circle801">
        <path d="M5.735,105.889c-1.142,0-2.071-.929-2.071-2.07s.929-2.071,2.071-2.071,2.071.929,2.071,2.071-.929,2.07-2.071,2.07ZM5.735,102.747c-.59,0-1.071.48-1.071,1.071s.48,1.07,1.071,1.07,1.071-.48,1.071-1.07-.48-1.071-1.071-1.071Z" fill="#000" stroke-width="0"/>
      </g>
      <g id="y" data-name="circle799">
        <path d="M10.806,104.947c-1.761,0-3.193-1.432-3.193-3.192s1.432-3.193,3.193-3.193,3.193,1.433,3.193,3.193-1.432,3.192-3.193,3.192ZM10.806,99.561c-1.209,0-2.193.984-2.193,2.193s.984,2.192,2.193,2.192,2.193-.983,2.193-2.192-.984-2.193-2.193-2.193Z" fill="#000" stroke-width="0"/>
      </g>
      <path d="M67.625,151.454c-.066,0-.134-.014-.199-.041-.253-.11-.369-.404-.26-.658,1.875-4.318,2.866-9.447,2.866-14.832,0-13.728-6.504-24.896-14.498-24.896s-14.498,11.169-14.498,24.896c0,5.222.937,10.224,2.709,14.464.106.254-.014.547-.269.653-.254.105-.548-.013-.654-.269-1.823-4.36-2.787-9.495-2.787-14.849,0-14.279,6.953-25.896,15.498-25.896s15.498,11.617,15.498,25.896c0,5.521-1.02,10.787-2.948,15.23-.082.188-.267.301-.459.301Z" fill="#000" stroke-width="0"/>
    </g>
  </g>
</svg>