<?xml version="1.0" encoding="UTF-8"?>
<svg id="b" data-name="Layer 2" xmlns="http://www.w3.org/2000/svg" width="141.075" height="98.659" viewBox="0 0 141.075 98.659">
  <g id="c" data-name="OBJECTS">
    <g id="d" data-name="Sheep Outline">
      <g id="e" data-name="path148">
        <path d="M55.17,89.709c-1.61,0-2.737-.355-3.927-.926-.249-.119-.354-.418-.234-.667.119-.25.416-.354.667-.235,1.541.738,2.893,1.06,5.629.647.27-.042.528.146.569.419.042.273-.146.528-.419.569-.869.132-1.618.192-2.284.192Z" fill="#000" stroke-width="0"/>
      </g>
      <g id="f" data-name="path148">
        <path d="M11.476,66.831c-2.663,0-7.479-.778-8.877-6.169-1.486-5.728,2.344-8.554,4.307-9.594-2.422-1.163-8.03-4.575-6.706-10.749,1.396-6.514,7.887-7.99,9.942-8.296-2.069-7.06,1.181-12.345,4.995-14.973,3.151-2.17,6.684-2.636,9.126-1.282.241-4.446,2.22-8.223,5.286-9.991,2.059-1.188,5.519-2.009,10.42.663.132-.311.226-.66.322-1.024.188-.706.383-1.438.896-2.054C43.071,1.104,45.887-.112,48.933.008c2.81.117,5.343,1.368,7.056,3.459C58.231.642,63.151-.015,67.102.848c4.244.925,7.113,3.353,7.842,6.576,3.027-1.817,8.326-1.466,12.321.929,3.807,2.283,5.604,5.879,4.979,9.921,1.648.538,7.32,2.805,9.22,8.976.195.63.362,1.245.498,1.829.062.27-.105.538-.374.601-.27.062-.538-.106-.601-.374-.13-.561-.291-1.153-.479-1.761-2.018-6.554-8.891-8.418-8.96-8.436-.256-.067-.416-.321-.364-.581,1.021-5.181-2.34-8.062-4.435-9.316-3.98-2.386-9.295-2.627-11.852-.539-.142.116-.336.146-.505.076-.17-.069-.288-.226-.309-.407-.354-3.176-3.045-5.611-7.196-6.517-4.438-.967-8.932.216-10.454,2.75-.087.146-.242.237-.411.243-.175-.009-.33-.075-.427-.213-1.522-2.172-3.966-3.483-6.706-3.598-2.721-.116-5.253.979-6.935,2.996-.373.446-.531,1.041-.698,1.671-.157.59-.319,1.199-.673,1.729-.147.219-.438.288-.667.155-3.741-2.164-7.154-2.479-9.87-.915-2.967,1.712-4.81,5.562-4.81,10.047,0,.193-.111.369-.285.451-.174.085-.38.059-.53-.063-2.041-1.661-5.627-1.336-8.719.796-3.62,2.494-6.686,7.592-4.432,14.417.049.147.026.309-.061.438-.086.128-.228.209-.382.219-.333.021-8.156.604-9.653,7.581-1.484,6.922,6.775,9.933,7.127,10.058.201.071.334.263.333.476-.002.214-.139.402-.341.471-.264.088-6.449,2.249-4.729,8.878,1.722,6.637,9.22,5.367,9.537,5.309.276-.044.531.131.581.403.049.271-.13.531-.402.581-.025.004-.745.128-1.807.128Z" fill="#000" stroke-width="0"/>
      </g>
      <g id="g" data-name="path149">
        <path d="M133.847,71.358c-2.027,0-4.215-.665-6.045-2.493-4.821-4.818-7.188-6.952-7.212-6.973-.206-.185-.223-.501-.038-.706s.501-.222.706-.038c.023.021,2.407,2.169,7.251,7.01,2.77,2.769,6.483,2.517,8.817,1.46,1.679-.758,2.808-1.973,2.746-2.955-.117-1.877-12.059-8.673-20.501-12.898-.247-.124-.347-.424-.224-.671.125-.246.428-.347.671-.224,19.842,9.933,21.018,13.181,21.052,13.73.09,1.433-1.218,2.975-3.332,3.93-1.092.492-2.451.828-3.892.828Z" fill="#000" stroke-width="0"/>
      </g>
      <g id="h" data-name="path150">
        <path d="M55.684,71.358c-1.44,0-2.8-.336-3.891-.828-2.114-.955-3.422-2.497-3.333-3.93.035-.551,1.283-3.821,22.544-14.124.249-.12.547-.017.668.232.12.248.017.547-.232.668-10.722,5.195-21.875,11.586-21.981,13.286-.062.982,1.067,2.197,2.746,2.955,2.335,1.056,6.049,1.306,8.817-1.46,4.891-4.888,7.443-7.435,7.443-7.435.195-.193.511-.194.708,0,.194.196.194.513,0,.708,0,0-2.553,2.546-7.443,7.433-1.829,1.828-4.018,2.493-6.045,2.493Z" fill="#000" stroke-width="0"/>
      </g>
      <path d="M118.873,81.466c-.107,0-.216-.034-.307-.105-.219-.169-.258-.483-.088-.701,1.887-2.427,2.844-5.51,2.844-9.163,0-5.03-.302-11.528-2.651-17.178-.105-.255.015-.548.27-.654.256-.102.548.015.654.27,2.418,5.813,2.728,12.439,2.728,17.562,0,3.881-1.027,7.171-3.055,9.776-.099.127-.246.193-.395.193Z" fill="#000" stroke-width="0"/>
      <path d="M68.182,74.706c-.243,0-.456-.178-.493-.425-.132-.873-.196-1.784-.196-2.785,0-5.56.373-12.719,3.279-18.786.119-.251.421-.354.667-.235.249.119.354.418.235.667-2.82,5.886-3.182,12.9-3.182,18.354,0,.95.061,1.812.185,2.635.042.273-.146.528-.419.569-.025.004-.051.006-.076.006Z" fill="#000" stroke-width="0"/>
      <g id="i" data-name="ellipse151">
        <ellipse cx="94.842" cy="70.493" rx="3.265" ry="1.727" fill="#000" stroke-width="0"/>
      </g>
      <g id="j" data-name="path152">
        <path d="M92.267,76.182c-.058,0-.115,0-.174-.004-1.931-.09-3.361-1.68-3.421-1.747-.183-.207-.164-.521.042-.705.204-.185.521-.166.705.041.013.013,1.221,1.346,2.727,1.413.701.022,1.382-.224,2.015-.762v-3.034c0-.276.224-.5.5-.5s.5.224.5.5v3.258c0,.139-.058.271-.158.365-.835.78-1.755,1.175-2.735,1.175Z" fill="#000" stroke-width="0"/>
      </g>
      <g id="k" data-name="path153">
        <path d="M97.312,76.433c-1.737,0-3.051-1.125-3.072-1.144-.207-.182-.228-.497-.046-.704.18-.207.496-.229.705-.049.106.094,2.657,2.249,5.092-.498.183-.207.499-.227.706-.042.206.183.226.499.042.706-1.169,1.318-2.375,1.73-3.427,1.73Z" fill="#000" stroke-width="0"/>
      </g>
      <path d="M98.693,58.293c-1.396,0-3.927-.516-6.065-3.749-1.095,1.139-3.097,2.149-5.353,2.16h-.037c-2.207,0-4.177-.975-5.616-2.765-1.182,1.52-2.82,2.383-4.678,2.45-2.298.082-4.589-1.101-6.123-3.166-.29-.385-.55-.8-.791-1.259-1.465-.11-2.829-.99-3.782-2.452-1.479-2.27-1.622-5.301-.383-8.108.819-1.869,1.907-3.004,3.233-3.372.705-.194,1.359-.139,1.886-.005-.002-.016-.003-.032-.005-.048-.14-1.589,1.015-3.672,3.433-6.19,1.688-1.755,3.481-2.644,5.332-2.644h.074c1.853.024,3.279.938,4.021,1.538,1.318-2.964,3.694-4.831,6.467-5.041,3.177-.222,6.274,1.67,8.437,5.14,1.549-2.103,4.266-3.171,7.312-2.819,3.085.358,6.822,2.33,8.297,6.771,2.431-.669,5.024.464,7.014,3.105,1.986,2.637,3.132,6.716,1.474,9.269,1.059,2.757-.398,5.924-3.482,7.466-1.819.916-3.967,1.155-6.23.703-.515,1.195-1.417,2.047-2.576,2.42-1.346.433-3.647.438-7.054-1.888-1.063,1.526-2.836,2.466-4.749,2.484h-.054ZM92.683,53.187h.015c.172.005.33.099.417.247,1.458,2.49,3.438,3.859,5.576,3.859h.048c1.717-.017,3.356-.975,4.178-2.44.07-.125.189-.213.329-.244.136-.032.284,0,.4.083,2.581,1.862,4.924,2.594,6.598,2.053.995-.32,1.72-1.083,2.095-2.206.083-.245.334-.394.59-.328,2.192.519,4.26.335,5.98-.53,2.695-1.349,3.945-4.112,2.908-6.43-.074-.166-.053-.358.056-.504,1.546-2.062.551-5.842-1.306-8.306-1.844-2.448-4.224-3.423-6.366-2.607-.131.052-.276.044-.402-.021-.125-.062-.219-.176-.257-.311-1.219-4.316-4.726-6.211-7.602-6.546-2.96-.343-5.555.815-6.779,3.022-.089.159-.256.258-.438.258h0c-.183,0-.35-.099-.438-.258-1.973-3.567-4.914-5.574-7.904-5.338-2.616.197-4.76,2.045-5.88,5.069-.061.163-.201.282-.372.316-.17.03-.347-.024-.465-.152-.016-.017-1.598-1.704-3.869-1.729-1.574-.005-3.154.771-4.662,2.337-2.844,2.962-3.201,4.623-3.161,5.349.029.54.276.752.287.761.206.172.246.481.083.694-.164.214-.46.262-.679.108-.009-.006-1.087-.74-2.308-.396-1.018.287-1.884,1.232-2.575,2.809-1.103,2.498-.988,5.174.306,7.159.832,1.277,2.02,2.01,3.257,2.01.19,0,.365.108.449.279.25.511.522.959.83,1.37,1.339,1.802,3.315,2.854,5.286,2.764,1.746-.062,3.267-.977,4.282-2.572.091-.142.246-.229.414-.231.169.019.326.079.421.219,1.639,2.41,3.773,2.938,5.245,2.899,2.261-.011,4.261-1.19,4.996-2.295.093-.14.249-.223.416-.223Z" fill="#000" stroke-width="0"/>
      <g id="l" data-name="path156">
        <path d="M86.805,67.556c-.017,0-.034,0-.051-.003l-9.018-.901c-.274-.027-.476-.272-.447-.547.027-.275.275-.484.547-.447l9.018.901c.274.027.476.272.447.547-.025.258-.243.45-.496.45Z" fill="#000" stroke-width="0"/>
      </g>
      <g id="m" data-name="path157">
        <path d="M102.673,67.556c-.253,0-.471-.192-.496-.45-.028-.274.173-.52.447-.547l9.018-.901c.271-.039.52.172.547.447.028.274-.173.52-.447.547l-9.018.901c-.017.002-.034.003-.051.003Z" fill="#000" stroke-width="0"/>
      </g>
      <path d="M79.266,98.659c-3.783,0-7.246-.209-8.949-.616-4.722-1.131-12.732-6.121-15.493-12.55-.969-2.266-.81-4.65.475-7.09,1.702-3.231,4.94-5.545,5.657-5.688,2.407-.9,4.955-.547,7.496,1.068,3.569,2.272,6.004,6.326,6.61,7.406,2.239.036,15.777.33,18.732,2.236,1.578,1.026,2.093,3.376,2.247,5.166.244,2.954-.384,6.948-1.822,8.254,0,0,0,0,0,0-1.353,1.224-8.604,1.812-14.952,1.812ZM63.59,73.242c-.796,0-1.584.145-2.363.434-.464.13-3.632,2.238-5.212,5.53-.98,2.042-1.072,4.025-.272,5.895,2.597,6.046,10.403,10.916,14.807,11.971,4.569,1.095,21.219.646,22.999-.965,1.045-.95,1.745-4.422,1.497-7.429-.19-2.216-.828-3.782-1.795-4.411-2.418-1.56-14.169-2.029-18.493-2.079-.184-.002-.352-.105-.437-.268-.025-.049-2.579-4.854-6.406-7.291-1.452-.924-2.899-1.387-4.324-1.387ZM93.883,96.477h.01-.01Z" fill="#000" stroke-width="0"/>
      <g id="n" data-name="path159">
        <path d="M85.945,98.418c-.276,0-.5-.224-.5-.5,0-1.61.212-3.24.418-4.815.471-3.611.915-7.021-.901-10.461-.129-.244-.035-.547.209-.676.242-.127.546-.037.676.209,1.964,3.721,1.478,7.45,1.008,11.057-.201,1.544-.409,3.141-.409,4.687,0,.276-.224.5-.5.5Z" fill="#000" stroke-width="0"/>
      </g>
      <g id="o" data-name="path160">
        <path d="M95.323,90.303c-.096,0-.192-.027-.277-.084-3.855-2.568-6.759-3.68-7.966-3.04-.242.128-.547.036-.676-.209-.129-.244-.035-.547.209-.676,1.609-.85,4.634.19,8.987,3.093.229.153.292.464.139.693-.097.145-.255.223-.416.223Z" fill="#000" stroke-width="0"/>
      </g>
      <path d="M107.841,96.728c-3.347,0-6.09-.158-6.153-.162-2.333-.169-3.799-4.289-3.705-8.032.034-1.991.521-3.746,1.373-4.938.026-.035.056-.067.09-.096,3.909-3.208,13.998-4.663,18.677-3.405.369.103.7.249,1.017.448,1.782,1.132,2.354,3.58,2.52,5.435.317,3.554-.62,7.791-2.007,9.067,0,0,0,0-.002,0-1.52,1.387-7.229,1.683-11.809,1.683ZM100.132,84.231c-.712,1.028-1.119,2.561-1.149,4.324-.088,3.497,1.261,6.903,2.776,7.013,4.179.297,15.436.358,17.215-1.26h0c1.036-.953,1.999-4.761,1.688-8.242-.206-2.305-.937-3.967-2.057-4.678-.233-.146-.479-.255-.748-.33-4.44-1.191-13.979.159-17.726,3.173ZM119.312,94.676h.01-.01Z" fill="#000" stroke-width="0"/>
      <g id="p" data-name="path162">
        <path d="M107.758,96.639c-.053,0-.105-.008-.158-.025-.262-.088-.403-.371-.316-.633,1.422-4.265-.633-12.416-2.168-13.892-.199-.191-.205-.508-.014-.707.19-.198.51-.205.707-.014,1.948,1.872,3.919,10.441,2.424,14.929-.07.209-.266.342-.475.342Z" fill="#000" stroke-width="0"/>
      </g>
      <g id="q" data-name="path163">
        <path d="M98.959,89.243c-.138,0-.275-.057-.374-.168-.184-.207-.164-.523.042-.706,1.083-.959,5.757-2.294,8.876-2.294.276,0,.5.224.5.5s-.224.5-.5.5c-2.988,0-7.366,1.292-8.212,2.042-.096.085-.214.126-.332.126Z" fill="#000" stroke-width="0"/>
      </g>
      <g id="r" data-name="path164">
        <path d="M45.225,94.988c-6.245,0-20.42-3.77-24.189-6.073-5.455-3.334-11.717-8.192-11.717-16.24,0-9.067,10.09-9.172,10.192-9.172.009,0,.019,0,.028,0,13.536.767,33.387,18.255,34.226,18.999.152.135.207.349.14.54-.138.392-3.399,9.61-6.051,11.466-.475.333-1.398.479-2.628.479ZM19.498,64.502c-.384.006-9.18.229-9.18,8.172,0,7.551,6.006,12.189,11.238,15.387,4.886,2.985,23.635,7.084,25.723,5.629,1.907-1.335,4.559-7.863,5.567-10.66-2.384-2.064-20.963-17.812-33.349-18.527Z" fill="#000" stroke-width="0"/>
      </g>
      <g id="s" data-name="path165">
        <path d="M40.297,94.471c-.276,0-.5-.224-.5-.5,0-4.867,3.973-14.754,7.882-15.91.265-.076.543.073.622.338s-.073.543-.337.621c-3.163.936-7.166,10.075-7.166,14.951,0,.276-.224.5-.5.5Z" fill="#000" stroke-width="0"/>
      </g>
      <g id="t" data-name="path166">
        <path d="M51.648,86.879c-.128,0-.256-.049-.354-.146-.244-.243-.48-.487-.714-.729-1.658-1.71-3.09-3.187-6.005-3.523-.274-.032-.471-.28-.439-.555s.284-.464.554-.439c3.27.378,4.891,2.051,6.608,3.821.23.237.463.478.703.718.195.195.195.512,0,.707-.098.098-.226.146-.354.146Z" fill="#000" stroke-width="0"/>
      </g>
      <path d="M96.666,88.806c-.289,0-.616-.028-.982-.099-.271-.053-.448-.314-.396-.586.052-.272.319-.447.586-.396,1.351.26,1.917-.188,1.941-.206.21-.172.522-.149.7.056s.164.51-.036.692c-.073.066-.636.539-1.812.539Z" fill="#000" stroke-width="0"/>
    </g>
  </g>
</svg>