<?xml version="1.0" encoding="UTF-8"?>
<svg id="b" data-name="Layer 2" xmlns="http://www.w3.org/2000/svg" width="162.913" height="104.677" viewBox="0 0 162.913 104.677">
  <g id="c" data-name="OBJECTS">
    <g id="d" data-name="Turtle Outline">
      <g id="e" data-name="path835">
        <path d="M11.971,91.779c-4.935,0-10.167-3.037-11.722-9.568-.516-2.169-.23-4.042.848-5.569,2.144-3.034,6.636-3.55,6.825-3.57.339-.031.624.202.66.532.036.329-.202.625-.531.661-.041.004-4.15.482-5.977,3.073-.868,1.232-1.09,2.778-.657,4.596,1.64,6.893,7.799,9.477,12.756,8.415,1.748-.374,4.7-2.058,9.026-5.146.271-.191.646-.129.837.14.192.27.13.645-.14.837-4.524,3.23-7.534,4.929-9.472,5.344-.797.171-1.622.257-2.454.257Z" fill="#000" stroke-width="0"/>
      </g>
      <g id="f" data-name="path834">
        <path d="M149.425,73.61c-5.138,0-17.995-3.552-25.365-5.721-.318-.093-.5-.427-.406-.744.093-.317.428-.501.744-.406,6.082,1.789,20.711,5.922,25.472,5.66,5.666-.315,11.642-4.03,11.836-9.703.186-5.435-2.968-9.784-8.033-11.08-2.467-.631-7.319-1.11-14.033-1.385-.331-.014-.589-.293-.575-.624s.273-.59.624-.575c4.739.194,11.064.599,14.281,1.422,5.634,1.441,9.142,6.263,8.936,12.283-.198,5.791-5.773,10.46-12.969,10.859-.16.01-.331.014-.511.014Z" fill="#000" stroke-width="0"/>
      </g>
      <g id="g" data-name="path828">
        <path d="M66.392,80.192c-.028,0-.056,0-.084-.006l-.65-.088c-.39-.051-.529-.069-1.233-.2-.325-.061-.54-.374-.479-.7s.373-.537.7-.479c.667.124.8.142,1.169.19l.66.09c.328.046.558.349.511.677-.042.3-.299.517-.593.517Z" fill="#000" stroke-width="0"/>
      </g>
      <g id="h" data-name="path828">
        <path d="M90.648,80.342c-.298,0-.556-.222-.595-.524-.041-.329.192-.629.521-.671,20.908-2.633,36.343-11.37,41.784-23.532-12.956,7.636-30.404,11.633-51.899,11.885-2.922.035-5.844-.014-8.68-.142-.331-.016-.587-.296-.572-.627.016-.33.286-.564.627-.572,2.812.129,5.707.175,8.611.142,22.144-.26,39.918-4.516,52.831-12.649.216-.136.497-.121.696.041.199.161.274.431.187.672-4.895,13.456-21.132,23.166-43.435,25.975-.025.003-.051.004-.076.004Z" fill="#000" stroke-width="0"/>
      </g>
      <g id="i" data-name="path827">
        <path d="M78.622,67.51c-2.308,0-4.602-.051-6.844-.152-.331-.016-.587-.296-.572-.627.016-.33.286-.564.627-.572,2.812.129,5.707.175,8.611.142,37.585-.441,52.814-12.263,58.547-16.713l.297-.23c2.61-2.021,2.799-5.45,1.474-7.597-1.498-2.429-4.452-2.891-7.9-1.237-.241.14-28.27,15.921-60.606,14.238-.331-.018-.585-.3-.568-.631.019-.331.315-.554.631-.568,31.987,1.687,59.71-13.943,59.986-14.101,4.819-2.313,8.049-.649,9.479,1.669,1.604,2.598,1.384,6.74-1.761,9.176l-.295.229c-5.82,4.519-21.28,16.52-59.27,16.965-.612.008-1.225.011-1.836.011Z" fill="#000" stroke-width="0"/>
      </g>
      <g id="j" data-name="path818">
        <path d="M77.157,54.888c-1.623,0-3.254-.041-4.902-.127-.331-.018-.585-.3-.568-.631.019-.331.315-.554.631-.568,29.958,1.59,56.214-12.051,59.616-13.896-.804-4.1-8.417-37.345-43.387-38.422-5.714-.173-11.092.193-15.994,1.096-14.031,2.584-24.731,9.485-32.714,21.1-.187.271-.559.344-.834.154-.273-.188-.343-.561-.154-.834C47.022,10.869,57.975,3.804,72.336,1.159,77.323.241,82.792-.137,88.584.044c38.088,1.173,44.55,39.458,44.61,39.845.039.245-.079.49-.295.613-.265.152-25.524,14.386-55.742,14.386Z" fill="#000" stroke-width="0"/>
      </g>
      <g id="k" data-name="path820">
        <path d="M80.514,54.247c-.283,0-.536-.203-.589-.492l-5.107-27.745-27.319-3.372-1.294,2.076c-.175.281-.545.367-.826.191-.281-.175-.367-.545-.191-.826l1.496-2.401c.123-.198.351-.306.582-.278l28.137,3.473c.261.032.47.229.517.487l5.187,28.179c.061.326-.155.639-.481.698-.036.007-.073.011-.109.011Z" fill="#000" stroke-width="0"/>
      </g>
      <g id="l" data-name="path821">
        <path d="M47.191,22.595c-.304,0-.565-.23-.596-.54l-.747-7.441c-.033-.329.207-.623.537-.656.306-.036.624.206.656.537l.747,7.441c.033.329-.207.623-.537.656-.02.002-.04.003-.061.003Z" fill="#000" stroke-width="0"/>
      </g>
      <g id="m" data-name="path822">
        <path d="M75.328,26.068c-.257,0-.495-.167-.574-.425-.097-.317.082-.652.398-.75l16.245-4.97-.554-11.281c-2.489-.744-16.186-4.641-27.577-3.673-.333.036-.621-.217-.648-.547-.028-.33.217-.621.547-.648,12.771-1.078,28.284,3.797,28.438,3.847.239.075.405.292.418.542l.598,12.169c.013.274-.161.522-.424.604l-16.691,5.106c-.059.018-.118.026-.176.026Z" fill="#000" stroke-width="0"/>
      </g>
      <g id="n" data-name="path823">
        <path d="M110.658,14.747c-.06,0-.119-.009-.178-.026l-19.236-5.955c-.316-.098-.493-.435-.396-.751.099-.316.429-.495.751-.396l18.367,5.687-.721-6.885c-.034-.33.205-.625.534-.659.325-.03.625.203.659.534l.815,7.789c.021.2-.061.398-.216.526-.108.089-.244.136-.381.136Z" fill="#000" stroke-width="0"/>
      </g>
      <g id="o" data-name="path824">
        <path d="M107.517,50.061c-.292,0-.548-.213-.593-.51-2.27-15.068-15.206-28.638-15.336-28.773-.23-.238-.224-.618.016-.848.237-.229.618-.225.848.015.133.139,13.332,13.976,15.66,29.427.049.328-.177.634-.504.684-.03.004-.061.006-.091.006Z" fill="#000" stroke-width="0"/>
      </g>
      <g id="p" data-name="path825">
        <path d="M124.766,44.121c-.293,0-.549-.215-.593-.513-1.032-7.063-6.992-19.289-14.172-29.071-.196-.268-.139-.644.128-.839.267-.197.642-.142.839.128,7.282,9.922,13.336,22.374,14.393,29.608.048.328-.179.633-.507.681-.029.004-.059.006-.088.006Z" fill="#000" stroke-width="0"/>
      </g>
      <g id="q" data-name="path829">
        <path d="M38.395,88.345c-21.245,0-34.972-11.368-34.972-28.962,0-19.56,16.342-36.716,34.972-36.716s34.972,17.156,34.972,36.716c0,17.594-13.727,28.962-34.972,28.962ZM38.395,23.866c-17.991,0-33.772,16.597-33.772,35.517,0,16.865,13.257,27.763,33.772,27.763s33.772-10.897,33.772-27.763c0-18.92-15.781-35.517-33.772-35.517Z" fill="#000" stroke-width="0"/>
      </g>
      <g id="r" data-name="path830">
        <path d="M22.962,64.746c-6.896,0-7.854-5.568-7.863-5.624-.052-.327.172-.635.499-.687.334-.05.634.172.687.498.032.198.838,4.613,6.678,4.613,2.228,0,3.887-.516,4.8-1.491.837-.895.795-1.9.794-1.91-.022-.331.229-.616.559-.639.324-.023.616.228.639.559.004.062.087,1.525-1.115,2.81-1.161,1.242-3.071,1.871-5.676,1.871Z" fill="#000" stroke-width="0"/>
      </g>
      <g id="s" data-name="path831">
        <path d="M47.464,65.823c-6.895,0-7.854-5.568-7.862-5.624-.052-.327.172-.635.499-.687.335-.046.634.172.687.497.032.195.836,4.614,6.677,4.614,2.228,0,3.888-.516,4.801-1.491.836-.895.795-1.899.794-1.909-.022-.331.229-.617.559-.639.331-.019.616.229.639.559.004.062.087,1.524-1.115,2.809-1.162,1.242-3.072,1.871-5.677,1.871Z" fill="#000" stroke-width="0"/>
      </g>
      <g id="t" data-name="path832">
        <path d="M41.773,73.37c-.12,0-.242-.036-.348-.111-2.342-1.673-6.316-1.407-9.019-.455-.313.111-.655-.053-.766-.365s.053-.655.365-.766c3.087-1.09,7.41-1.323,10.116.609.27.192.332.567.14.837-.117.164-.302.251-.489.251Z" fill="#000" stroke-width="0"/>
      </g>
      <g id="u" data-name="path833">
        <path d="M74.511,104.677c-1.682,0-3.333-.217-4.89-.672-5.181-1.516-8.303-5.383-8.791-10.889-.719-8.104,11.333-21.516,11.847-22.082.223-.246.604-.265.847-.042.246.222.265.602.042.847-.122.136-12.213,13.588-11.54,21.172.441,4.979,3.259,8.476,7.933,9.842,6.835,2.002,15.645-.904,20.052-6.611,1.836-2.378,2.107-6.843.763-12.572-1.092-4.655-3.085-9.231-4.305-10.801-.203-.262-.156-.639.105-.842.261-.203.638-.156.842.105,2.36,3.036,8.45,18.49,3.544,24.844-3.685,4.771-10.267,7.701-16.448,7.701Z" fill="#000" stroke-width="0"/>
      </g>
      <g id="v" data-name="path854">
        <path d="M89.79,97.4c-.2,0-.396-.1-.51-.281-.316-.505-.608-1.108-.918-1.748-.751-1.552-1.603-3.312-3.021-4.064-6.345-3.373-12.815-4.561-17.31-3.18-2.483.764-4.344,2.29-5.531,4.538-.154.291-.515.407-.811.25-.293-.154-.405-.518-.25-.811,1.341-2.54,3.44-4.264,6.239-5.124,4.792-1.472,11.606-.251,18.225,3.266,1.766.938,2.708,2.885,3.539,4.603.295.608.573,1.184.855,1.634.176.28.091.65-.19.827-.099.062-.209.091-.317.091Z" fill="#000" stroke-width="0"/>
      </g>
      <g id="w" data-name="path855">
        <path d="M86.952,91.907c-.331,0-.6-.268-.6-.6,0-.274.047-.7.106-1.239.226-2.022.694-6.229-1.191-6.498-2.179-.304-3.216,1.749-4.253,4.266l-.065.158c-.096.232-.306.372-.575.371-.251-.009-.47-.172-.549-.41-.308-.921-.374-1.921-.438-2.887-.055-.812-.105-1.577-.286-2.298-.202-.809-.582-.865-.707-.884-.947-.141-2.678,1.192-3.642,2.795-.17.282-.302.554-.396.804.054.494.081,1.02.081,1.574,0,.259-.166.488-.412.57-.244.078-.516-.005-.67-.214-.392-.529-.463-1.237-.222-2.057-.278-2.132-1.099-3.489-2.277-3.656-1.557-.221-3.771,1.665-4.946,5.706-.092.317-.421.502-.744.408-.317-.093-.501-.426-.408-.744,1.226-4.212,3.801-6.905,6.269-6.559,1.396.199,2.425,1.315,2.97,3.126,1.158-1.68,3.081-3.163,4.574-2.941.484.072,1.349.399,1.694,1.78.207.824.264,1.681.319,2.509.017.246.032.488.053.727.911-1.855,2.288-3.688,4.801-3.332,3.037.432,2.502,5.236,2.215,7.818-.055.488-.101.878-.101,1.106,0,.331-.268.6-.6.6h0Z" fill="#000" stroke-width="0"/>
      </g>
      <g id="x" data-name="path856">
        <path d="M12.892,91.414c-.331,0-.6-.268-.6-.6-.002-3.78-1.999-8.033-4.749-10.112-1.821-1.378-3.812-1.771-5.916-1.181-.323.09-.651-.096-.74-.414-.09-.319.096-.65.414-.74,2.452-.691,4.859-.217,6.967,1.378,3.073,2.325,5.222,6.877,5.224,11.069,0,.331-.268.6-.6.6h0Z" fill="#000" stroke-width="0"/>
      </g>
      <g id="y" data-name="path857">
        <path d="M6.685,79.718c-.146,0-.294-.054-.408-.16-.225-.209-.256-.554-.072-.799.735-.982.829-1.86.262-2.472-.641-.691-2.105-.984-3.187-.299-.28.178-.651.096-.828-.184-.179-.279-.096-.65.184-.828,1.477-.938,3.588-.716,4.712.495.536.579.757,1.292.667,2.059,1.066-.48,2.146-.555,3.266-.231.318.092.502.424.41.742-.092.317-.421.505-.742.41-1.324-.382-2.552-.024-3.869,1.12-.113.098-.253.146-.394.146Z" fill="#000" stroke-width="0"/>
      </g>
      <g id="z" data-name="path858">
        <path d="M13.422,89.464c-.182,0-.361-.082-.479-.239-.199-.265-.146-.641.119-.84,3.226-2.423,4.033-4.339,3.748-4.826-.196-.338-1.414-.584-4.599.705-.228.118-.482.227-.769.322-.307.098-.636-.055-.75-.354-.115-.3.025-.637.319-.766.241-.105.478-.205.707-.299.878-.474,1.126-1.114,1.349-1.691.166-.428.337-.871.765-1.112.289-.164.655-.061.817.228s.062.652-.226.816c-.063.052-.168.322-.237.502-.055.143-.117.304-.195.476,2.025-.538,3.318-.352,3.855.567.822,1.41-.773,3.918-4.064,6.391-.108.081-.234.12-.36.12Z" fill="#000" stroke-width="0"/>
      </g>
      <g id="aa" data-name="path859">
        <path d="M155.485,71.981c-.062,0-.127-.011-.189-.031-3.358-1.118-3.434-2.591-3.181-3.369.352-1.077,1.776-1.957,3.485-2.406-1.397-.47-2.706-1.145-3.374-2.233-.465-.758-.577-1.635-.335-2.607.359-1.44,2.052-1.765,3.5-1.829-1.042-.514-1.84-1.336-2.013-2.715-.172-1.367,1.447-2.454,2.258-2.766,1.077-.416,2.464-.521,3.712-.281.325.062.538.376.476.702-.062.326-.382.544-.702.476-1.021-.195-2.191-.108-3.054.223-.633.244-1.562.997-1.498,1.497.235,1.881,2.287,2.278,4.945,2.603.862.104,1.677.204,2.293.409.281.094.452.379.402.671-.05.288-.3.498-.592.498h-.012c-.629-.012-1.252-.034-1.875-.057-.905-.033-1.809-.066-2.725-.066h-.024l-.358-.003c-.987-.013-3.325-.045-3.569.93-.164.657-.101,1.209.193,1.688.851,1.386,3.461,1.985,5.367,2.423.667.152,1.242.285,1.692.435.313.104.483.441.381.755-.102.314-.439.488-.752.386-2.62-.835-6.294.454-6.681,1.641-.191.587.735,1.299,2.418,1.859.314.104.484.444.38.759-.084.252-.318.411-.569.411Z" fill="#000" stroke-width="0"/>
      </g>
    </g>
  </g>
</svg>