<?xml version="1.0" encoding="UTF-8"?>
<svg id="b" data-name="Layer 2" xmlns="http://www.w3.org/2000/svg" width="115.944" height="103.692" viewBox="0 0 115.944 103.692">
  <g id="c" data-name="OBJECTS">
    <g id="d" data-name="Turtle Outline">
      <path d="M33.636,91.15c-1.201,0-2.471-.051-3.807-.151-.329-.025-.575-.31-.554-.639.455-6.822,1.742-11.906,2.682-15.618.563-2.228,1.009-3.987.987-5.11-.004-.19.083-.371.233-.486.149-.116.348-.155.529-.103,3.119.884,6.636,1.543,10.453,1.96.162.018.311.102.41.231s.143.295.117.456c-.858,5.583-1.06,11.145-.614,17.004.019.243-.111.473-.329.582-2.479,1.246-5.87,1.874-10.108,1.874ZM30.515,89.844c5.32.346,9.458-.147,12.332-1.467-.397-5.587-.213-10.914.562-16.251-3.354-.393-6.476-.973-9.3-1.728-.115,1.185-.497,2.693-.989,4.639-.9,3.558-2.124,8.392-2.605,14.807Z" fill="#000" stroke-width="0"/>
      <g id="e" data-name="path977">
        <path d="M32.45,90.583c-.311,0-.57-.236-.598-.548-.005-.054-.047-.573-.012-1.301-.076-2.038-.463-5.2-1.732-6.312-.249-.218-.274-.598-.056-.847.218-.251.596-.273.847-.056.943.826,1.478,2.307,1.778,3.806.144-.261.31-.509.503-.734.638-.745,1.474-1.156,2.483-1.225.989-.065,1.852.23,2.549.882,1.83,1.711,1.853,5.327,1.853,5.48,0,.331-.268.6-.599.6h0c-.331,0-.6-.268-.6-.599,0-.032-.024-3.253-1.475-4.605-.451-.422-.981-.6-1.647-.561-.685.046-1.225.31-1.65.806-.768.896-.993,2.329-1.049,3.351.021.649.01,1.121.005,1.282-.01.317-.266.572-.583.581h-.017Z" fill="#000" stroke-width="0"/>
      </g>
      <path d="M85.925,91.15c-4.212,0-7.59-.627-10.07-1.874-.217-.109-.347-.339-.329-.581.495-6.531.197-12.683-.912-18.809-.057-.315.145-.619.457-.691,4.1-.94,7.946-2.148,11.435-3.59.243-.099.524-.03.691.172.168.202.185.49.041.711-.553.848-.904,1.587-1.016,2.14-.214,1.066.269,2.975.937,5.616.968,3.825,2.293,9.064,2.705,16.15.02.328-.229.611-.558.634-1.18.082-2.308.122-3.381.122ZM76.752,88.377c2.801,1.287,6.791,1.788,11.877,1.492-.443-6.673-1.705-11.661-2.634-15.331-.733-2.898-1.218-4.813-.949-6.146.064-.321.182-.673.35-1.054-2.959,1.132-6.146,2.104-9.502,2.897,1.023,5.913,1.305,11.858.858,18.142Z" fill="#000" stroke-width="0"/>
      <g id="f" data-name="path975">
        <path d="M87.153,90.583h-.017c-.317-.009-.573-.264-.583-.581-.002-.061-.015-.529.008-1.224-.05-1.024-.27-2.497-1.052-3.409-.426-.496-.966-.76-1.65-.806-.666-.041-1.196.139-1.647.561-1.45,1.353-1.475,4.573-1.475,4.605,0,.331-.269.599-.6.599h0c-.331,0-.6-.269-.599-.6,0-.153.022-3.77,1.853-5.48.698-.651,1.562-.947,2.549-.882,1.01.068,1.846.479,2.483,1.225.196.229.365.481.509.746.209-1.05.528-2.091,1.018-2.896.172-.282.539-.375.824-.201.283.172.373.541.201.824-.925,1.521-1.156,4.179-1.21,5.714.032.704-.009,1.204-.014,1.257-.027.312-.287.548-.598.548Z" fill="#000" stroke-width="0"/>
      </g>
      <path d="M53.969,72.725c-3.366,0-6.701-.175-9.939-.528-3.883-.425-7.466-1.098-10.648-1.999-.25-.07-.426-.293-.437-.552-.008-.19-.013-.356-.046-.506-.441-2.195-4.352-6.752-9.261-9.8-2.24-1.389-4.409-2.314-6.453-2.756-.231.541-.662,1.55-1.228,2.89-.076.18-.234.311-.424.353-.19.043-.39-.012-.533-.143-3.161-2.885-5.252-5.829-6.391-9-.085-.235-.015-.497.175-.659.19-.162.461-.19.678-.07,4.22,2.312,9.616,4.333,15.608,5.844,1.968.507,4.094.972,6.504,1.423.133.025.254.095.343.196,3.289,3.789,7.771,6.671,13.32,8.565,3.98,1.369,8.383,2.18,13.086,2.408,5.861.289,11.303-.354,16.157-1.912,6.477-2.091,11.602-5.811,14.821-10.756.081-.124.204-.214.348-.252,1.416-.38,2.829-.798,4.2-1.242,4.435-1.419,8.562-3.16,12.268-5.176.23-.125.513-.087.701.093s.239.46.127.695c-1.058,2.194-2.44,4.269-4.111,6.166-.137.156-.344.232-.546.195-.108-.017-.208-.063-.289-.132-2.003.427-4.118,1.312-6.293,2.633-3.407,2.069-6.731,5.125-8.47,7.785-.065.102-.161.181-.272.227-3.55,1.467-7.461,2.695-11.626,3.65-6.832,1.56-14.171,2.359-21.369,2.359ZM34.114,69.156c3.017.826,6.394,1.447,10.046,1.847,10.031,1.095,21.009.453,30.91-1.808,4.033-.925,7.822-2.109,11.266-3.52,1.854-2.761,5.265-5.883,8.747-7.998,2.447-1.486,4.837-2.451,7.103-2.867.035-.007.07-.01.104-.01,1.015-1.199,1.91-2.468,2.678-3.791-3.313,1.672-6.921,3.136-10.751,4.361-1.316.427-2.674.83-4.036,1.199-3.378,5.082-8.674,8.901-15.332,11.051-4.993,1.604-10.578,2.266-16.584,1.969-4.816-.234-9.33-1.066-13.416-2.473-5.675-1.937-10.283-4.882-13.699-8.755-2.354-.444-4.44-.903-6.375-1.401-5.41-1.364-10.354-3.143-14.41-5.179,1.053,2.219,2.644,4.339,4.822,6.433.675-1.594,1.087-2.552,1.087-2.552.11-.256.377-.401.658-.354,2.329.424,4.798,1.437,7.339,3.011,4.837,3.003,9.234,7.745,9.802,10.571.019.082.032.171.042.265Z" fill="#000" stroke-width="0"/>
      <path d="M31.464,58.41c-.036,0-.072-.003-.109-.01C13.182,55.041,3.591,48.766.9,44.412c-.818-1.324-1.086-2.6-.771-3.688,1.409-4.851,6.012-5.979,7.925-6.238.704-.094,1.153-.095,1.172-.095.125,0,.246.039.348.111,4.925,3.502,10.342,6.368,16.102,8.516.215.08.365.276.388.505.52,5.356,2.49,10.031,5.854,13.894.168.192.195.471.069.691-.108.189-.309.303-.521.303ZM9.042,35.596c-.173.009-.461.029-.828.079-2.087.283-5.765,1.359-6.934,5.382-.217.754.004,1.696.64,2.724,2.675,4.326,12.342,9.978,28.034,13.128-2.817-3.694-4.514-8.024-5.049-12.897-5.663-2.146-10.998-4.975-15.863-8.415Z" fill="#000" stroke-width="0"/>
      <path d="M89.805,56.649c-.189,0-.371-.09-.486-.248-.146-.201-.152-.472-.016-.68,2.472-3.785,3.855-8.295,4.112-13.402.01-.18.02-.359.02-.529,0-.258.164-.487.409-.569,7.655-2.564,12.438-4.906,12.486-4.929,4.852-2.007,7.815-.366,8.984,1.831,1.269,2.383.699,6.097-2.448,8.188l-.292.194c-3.309,2.207-10.194,6.8-22.614,10.125-.052.014-.104.02-.155.02ZM94.622,42.226c-.003.052-.006.104-.008.155-.239,4.747-1.418,9.007-3.508,12.687,11.314-3.232,17.678-7.477,20.802-9.561l.294-.195h0c2.58-1.715,3.07-4.715,2.054-6.625-1.195-2.245-3.972-2.732-7.432-1.302-.012.007-4.695,2.3-12.202,4.841Z" fill="#000" stroke-width="0"/>
      <path d="M25.464,44.18c-.07,0-.142-.012-.21-.037-5.857-2.186-11.367-5.1-16.377-8.664-.186-.132-.28-.357-.245-.582C10.91,20.402,27.984,0,58.811,0h.044c30.36.01,47.607,23.96,48.339,36.796.014.241-.117.466-.333.572-.049.024-4.896,2.398-12.636,4.991-.187.062-.392.029-.549-.088s-.248-.305-.241-.501c.622-18.947-13.959-35.695-31.84-36.571-8.886-.428-17.577,2.984-24.453,9.635-6.674,6.453-10.751,15.264-11.188,24.175-.077,1.538-.041,3.055.106,4.51.021.206-.065.409-.229.535-.107.083-.236.125-.367.125ZM9.878,34.717c4.588,3.225,9.597,5.901,14.907,7.962-.083-1.217-.093-2.467-.03-3.729.452-9.212,4.662-18.317,11.553-24.979,7.118-6.882,16.145-10.421,25.346-9.97,18.248.894,33.179,17.717,32.999,36.946,6.018-2.057,10.117-3.919,11.314-4.482C104.928,24.254,87.723,1.209,58.855,1.2h-.044C28.947,1.2,12.317,20.667,9.878,34.717Z" fill="#000" stroke-width="0"/>
      <g id="g" data-name="path969">
        <path d="M82.794,14.812c-.144,0-.287-.051-.401-.154-.246-.222-.267-.601-.044-.847,2.105-2.338,3.725-5.024,3.74-5.051.17-.283.539-.375.823-.206.284.17.376.539.206.823-.068.113-1.691,2.81-3.879,5.237-.118.132-.281.199-.445.199Z" fill="#000" stroke-width="0"/>
      </g>
      <g id="h" data-name="path969">
        <path d="M35.937,15.37c-.154,0-.308-.059-.425-.177-3.034-3.048-5.644-7.018-5.753-7.185-.182-.277-.104-.649.174-.831.275-.183.648-.104.83.173.026.04,2.653,4.037,5.599,6.996.234.235.233.615-.002.849-.116.117-.27.175-.423.175Z" fill="#000" stroke-width="0"/>
      </g>
      <g id="i" data-name="path957">
        <path d="M61.073,69.663c-.922,0-1.855-.023-2.806-.069-21.22-1.041-34.374-13.067-33.515-30.64.452-9.214,4.663-18.321,11.554-24.984,7.118-6.883,16.133-10.425,25.349-9.972,18.839.923,33.933,18.499,32.96,38.379h0c-.823,16.785-13.881,27.286-33.542,27.286ZM60.085,5.159c-8.362,0-16.457,3.401-22.944,9.673-6.674,6.454-10.752,15.267-11.188,24.18-.825,16.844,11.883,28.377,32.374,29.382,20.482,1.018,34.265-9.231,35.09-26.076.941-19.231-13.63-36.231-31.819-37.123-.504-.024-1.009-.037-1.512-.037ZM94.016,42.348h.01-.01Z" fill="#000" stroke-width="0"/>
      </g>
      <path d="M20.109,103.692c-7.62,0-15.347-2.055-15.821-2.184-.251-.067-.43-.289-.443-.549-.003-.071-.351-7.229.707-13.943.846-5.364,7.484-21.376,10.3-28.011.871-2.062,1.422-3.343,1.422-3.343.11-.256.377-.401.658-.354,2.329.424,4.798,1.437,7.339,3.011,4.837,3.003,9.234,7.745,9.802,10.571.045.2.06.433.071.703.025,1.299-.414,3.036-1.023,5.442-.928,3.667-2.199,8.689-2.647,15.403-.228,3.506-.201,7.138.08,10.794.019.243-.112.474-.33.583-2.798,1.398-6.443,1.875-10.113,1.875ZM5.026,100.459c2.625.653,16.736,3.91,24.299.457-.256-3.574-.273-7.122-.05-10.555.455-6.823,1.742-11.907,2.682-15.619.563-2.228,1.009-3.987.987-5.11-.008-.177-.013-.343-.046-.492-.441-2.195-4.352-6.752-9.261-9.8-2.24-1.389-4.409-2.314-6.453-2.756-.231.541-.662,1.55-1.228,2.89-2.184,5.146-9.372,22.351-10.22,27.73-.889,5.64-.767,11.611-.711,13.255Z" fill="#000" stroke-width="0"/>
      <g id="j" data-name="path971">
        <path d="M18.926,103.12c-.311,0-.57-.236-.598-.548-.005-.054-.047-.57-.012-1.294-.093-2.434-.633-6.401-2.492-6.688-.355-.053-.653.033-.941.273-1.293,1.075-1.755,4.607-1.854,6.294-.007.223-.016.365-.019.403-.022.326-.284.571-.628.559-.327-.017-.58-.291-.57-.618.002-.081.009-.249.022-.482.062-2.109-.276-6.355-2.519-6.675-.506-.071-.9.042-1.247.354-1.208,1.089-1.364,4.194-1.323,5.299.013.331-.246.609-.577.622h-.022c-.321,0-.588-.254-.6-.577-.018-.464-.117-4.58,1.72-6.234.605-.546,1.369-.772,2.22-.65,1.729.246,2.627,1.782,3.087,3.476.341-1.092.832-2.1,1.543-2.691.548-.455,1.201-.645,1.891-.536,1.84.282,2.727,2.35,3.149,4.454.143-.26.309-.506.501-.731.638-.744,1.474-1.156,2.484-1.225.99-.064,1.85.23,2.548.882,1.83,1.71,1.853,5.327,1.853,5.48,0,.331-.268.6-.599.6h0c-.331,0-.6-.268-.6-.599,0-.032-.024-3.253-1.475-4.606-.45-.42-.982-.596-1.646-.56-.685.046-1.226.31-1.651.807-.765.891-.991,2.317-1.049,3.337.021.642.011,1.114.005,1.295-.01.317-.266.572-.583.581h-.017Z" fill="#000" stroke-width="0"/>
      </g>
      <path d="M99.023,103.189c-3.678,0-7.331-.479-10.137-1.883-.218-.108-.349-.339-.33-.582.266-3.48.303-6.933.11-10.26-.406-6.973-1.715-12.148-2.671-15.927-.733-2.898-1.218-4.813-.949-6.146.143-.711.542-1.571,1.186-2.56,1.829-2.799,5.303-5.999,8.852-8.154,2.447-1.486,4.837-2.451,7.103-2.867.271-.05.547.094.658.35l.093.216c.43.992,10.583,24.465,11.631,31.142,1.057,6.713.709,13.871.706,13.942-.014.26-.192.481-.443.549-.474.128-8.19,2.181-15.808,2.181ZM89.783,100.406c7.567,3.463,21.683.207,24.309-.447.056-1.644.178-7.615-.71-13.255-.812-5.175-7.782-22.148-11.446-30.62-1.984.433-4.077,1.312-6.229,2.619-3.407,2.069-6.731,5.125-8.47,7.785-.552.848-.903,1.587-1.015,2.14-.214,1.066.269,2.975.937,5.616.968,3.825,2.293,9.064,2.705,16.15.188,3.251.161,6.617-.08,10.012ZM114.674,100.43h.01-.01Z" fill="#000" stroke-width="0"/>
      <g id="k" data-name="path973">
        <path d="M100.188,102.618h-.017c-.318-.009-.573-.264-.583-.581-.006-.182-.016-.654.005-1.295-.058-1.021-.283-2.446-1.048-3.337-.426-.496-.966-.76-1.651-.806-.651-.04-1.195.139-1.647.56-1.45,1.354-1.475,4.574-1.475,4.606,0,.331-.269.599-.6.599h0c-.331,0-.6-.269-.599-.6,0-.153.023-3.771,1.854-5.48.697-.651,1.56-.945,2.548-.882,1.011.067,1.846.479,2.483,1.225.193.225.358.471.501.73.424-2.104,1.311-4.171,3.15-4.453.685-.109,1.342.08,1.891.536.711.591,1.202,1.599,1.543,2.691.46-1.693,1.357-3.229,3.087-3.476.854-.124,1.613.104,2.219.649,1.837,1.654,1.737,5.771,1.72,6.235-.013.33-.268.562-.622.577-.331-.013-.589-.291-.577-.622.04-1.106-.119-4.215-1.324-5.3-.346-.312-.745-.422-1.245-.353-2.242.319-2.581,4.565-2.519,6.675.014.233.021.401.022.482.01.327-.243.602-.57.618-.33.013-.605-.232-.628-.559-.003-.038-.012-.181-.019-.403-.1-1.687-.562-5.219-1.854-6.295-.289-.24-.59-.323-.941-.272-1.859.286-2.399,4.253-2.493,6.687.035.724-.007,1.24-.012,1.295-.027.311-.287.547-.598.547Z" fill="#000" stroke-width="0"/>
      </g>
      <g id="l" data-name="path992">
        <path d="M57.787,52.306c-.033,0-.067,0-.101,0-2.049-.041-3.779-1.298-4.519-3.281-.115-.311.043-.655.354-.771.31-.114.656.042.771.354.562,1.511,1.872,2.469,3.417,2.499.025,0,.051,0,.075,0,1.507,0,2.813-.896,3.423-2.353.128-.307.481-.448.785-.322.306.128.45.479.322.785-.801,1.913-2.529,3.09-4.528,3.09Z" fill="#000" stroke-width="0"/>
      </g>
      <g id="m" data-name="ellipse992">
        <ellipse cx="45.529" cy="43.089" rx="4.653" ry="4.606" transform="translate(1.484 87.693) rotate(-88.784)" fill="#000" stroke-width="0"/>
      </g>
      <g id="n" data-name="ellipse993">
        <ellipse cx="70.203" cy="43.973" rx="4.653" ry="4.606" transform="translate(24.751 113.228) rotate(-88.784)" fill="#000" stroke-width="0"/>
      </g>
      <g id="o" data-name="path993">
        <path d="M50.942,27.972c-.256,0-.493-.165-.573-.422-.917-2.955-3.767-4.217-6.216-4.213-2.437.032-4.359,1.288-4.898,3.2-.09.318-.417.504-.74.415-.318-.09-.504-.421-.414-.74.687-2.436,3.056-4.036,6.037-4.075,2.852-.066,6.276,1.512,7.378,5.058.098.316-.079.652-.396.751-.06.018-.119.027-.178.027Z" fill="#000" stroke-width="0"/>
      </g>
      <g id="p" data-name="path994">
        <path d="M76.9,29.723c-.258,0-.496-.167-.574-.426-.857-2.831-2.779-4.729-5.016-4.956-2.213-.229-4.285,1.151-5.701,3.769-.157.29-.519.399-.812.242-.292-.158-.4-.522-.242-.813,1.634-3.02,4.198-4.653,6.877-4.392,2.727.276,5.042,2.499,6.043,5.802.096.317-.083.652-.4.748-.058.018-.116.026-.174.026Z" fill="#000" stroke-width="0"/>
      </g>
    </g>
  </g>
</svg>