<?xml version="1.0" encoding="UTF-8"?>
<svg id="b" data-name="Layer 2" xmlns="http://www.w3.org/2000/svg" width="182.965" height="145.797" viewBox="0 0 182.965 145.797">
  <g id="c" data-name="OBJECTS">
    <g id="d" data-name="Turtle Outline">
      <g id="e" data-name="path1042">
        <path d="M79.541,145.797c-8.848,0-16.938-1.917-23.52-5.757-5.264-3.071-9.441-6.957-12.418-11.548-.18-.278-.101-.649.178-.83.279-.182.649-.1.83.177,2.873,4.432,6.915,8.188,12.016,11.164,13.11,7.651,32.441,7.448,51.708-.544,21.559-8.945,34.54-25.651,33.071-42.56-.028-.33.216-.621.546-.649.328-.025.62.216.649.546,1.516,17.441-11.755,34.623-33.808,43.772-10.003,4.15-20.039,6.229-29.253,6.229Z" fill="#000" stroke-width="0"/>
      </g>
      <g>
        <path d="M134.767,75.848c-.142,0-.284-.05-.398-.152-2.312-2.056-4.903-3.788-7.704-5.148-.299-.145-.423-.503-.278-.802.146-.298.509-.42.802-.277,2.9,1.408,5.585,3.202,7.978,5.331.248.22.271.6.05.847-.118.133-.283.201-.448.201Z" fill="#000" stroke-width="0"/>
        <path d="M69.338,136.739c-2.823,0-5.502-.19-7.977-.589-15.285-2.478-26.066-12.477-25.635-23.775.014-.331.271-.606.622-.577.332.013.59.292.577.623-.408,10.685,9.949,20.166,24.627,22.545,17.312,2.79,44.901-4.791,60.238-16.554,9.214-7.064,16.101-15.341,18.896-22.707.118-.31.466-.464.773-.348.31.118.466.464.348.774-2.871,7.568-9.9,16.037-19.286,23.233-13.371,10.256-35.937,17.376-53.184,17.376Z" fill="#000" stroke-width="0"/>
        <path d="M46.946,97.587c-.16,0-.319-.063-.438-.189l-.458-.489c-.343-.367-.712-.761-1.108-1.178-.221-.232-.221-.597,0-.828,9.973-10.44,24.382-18.022,24.526-18.097.819-.416,1.623-.817,2.417-1.199.18-.086.391-.078.562.022.94.55,1.826.921,2.709,1.135,3.66.919,7.823-.735,13.51-5.362.022-.018.045-.034.069-.048l.251-.206c.101-.082.202-.165.303-.248-.186-.266-.451-.645-.784-1.116-.111-.157-.14-.358-.077-.541.062-.182.208-.323.393-.379,6.243-1.908,12.191-3.002,17.678-3.253.317.012.612.242.627.572.015.331-.241.612-.572.627-5.153.235-10.73,1.232-16.588,2.962.402.573.624.894.624.894.174.252.13.596-.104.796-.247.213-.495.415-.739.615l-.31.253c-.023.019-.048.037-.074.052-5.978,4.852-10.448,6.562-14.494,5.547-.903-.219-1.806-.582-2.747-1.104-.693.336-1.396.688-2.104,1.047-.135.07-13.997,7.367-23.812,17.449.252.267.491.523.721.768l.456.487c.227.241.215.621-.026.848-.116.108-.264.163-.411.163Z" fill="#000" stroke-width="0"/>
      </g>
      <path d="M125.63,74.604c-.045,0-.091-.005-.137-.016-.322-.075-.523-.397-.449-.72.625-2.7,1.745-5.206,3.264-7.322-5.605.156-11.737-1.021-17.841-3.42-1.522-.6-3.006-1.261-4.428-1.973,1.051,2.899,1.372,5.437.953,7.56-.064.326-.387.534-.705.473-.325-.064-.536-.38-.473-.705.437-2.211-.075-5.104-1.479-8.366-.102-.235-.043-.508.146-.68.189-.173.466-.206.69-.085,1.807.977,3.735,1.872,5.734,2.66,6.418,2.523,12.859,3.656,18.631,3.279.249-.014.465.113.574.327.108.214.079.472-.074.656-2.29,2.744-3.344,5.793-3.823,7.868-.064.277-.312.465-.584.465Z" fill="#000" stroke-width="0"/>
      <path d="M68.704,127.415c-5.726,0-10.706-1.023-14.861-3.06-5.217-2.562-9.101-6.728-10.655-11.43-.054-.161-.036-.337.048-.484.083-.147.226-.253.391-.29,4.479-.999,6.156-5.05,5.123-12.383-.428-.458-1.202-1.279-2.237-2.368-.212-.223-.222-.568-.022-.802,4.491-5.28,14.974-13.447,28.269-19.792.126-.06.267-.076.405-.041,3.65.918,7.818-.736,13.505-5.363.077-.062.167-.104.263-.124,5.994-1.798,11.645-2.767,16.792-2.881,10.662-.232,19.611,3.024,24.594,8.964.116.139.164.323.129.501-.035.178-.148.331-.309.415l-.304.157c-3.743,2.305-5.583,6.361-4.873,10.821.588,3.689,2.87,6.813,5.428,7.428.183.044.334.171.409.344s.065.37-.027.534c-1.386,2.459-3.2,4.9-5.247,7.059-4.527,4.778-17.149,12.642-31.625,17.802-.233.087-.499.013-.661-.179-.161-.192-.186-.464-.062-.683,6.172-10.844,6.195-36.566.037-41.079-5.655-4.584-14.022-2.796-19.035,1.205-4.944,3.946-6.422,9.298-3.952,14.316,6.313,11.364,6.01,14.743,5.507,20.343-.225,2.495-.478,5.32-.242,9.524.032.064.064.113.104.16.144.168.183.402.102.608-.081.206-.269.351-.488.376-2.263.268-4.432.402-6.503.402ZM44.541,113.153c1.58,4.151,5.128,7.816,9.83,10.125,5.276,2.585,11.976,3.468,19.918,2.63-.237-4.279.031-7.266.247-9.671.499-5.553.773-8.611-5.374-19.679-2.71-5.504-1.07-11.552,4.267-15.811,1.254-1,2.706-1.871,4.273-2.554-.896.053-1.768-.021-2.618-.214-12.706,6.093-22.76,13.825-27.327,18.989.958,1.009,1.652,1.747,1.999,2.12.083.089.137.201.154.322,1.128,7.728-.679,12.347-5.369,13.742ZM85.2,76.575c3.104,0,6.179.876,8.744,2.956,6.364,4.664,6.779,29.158.998,41.234,13.686-5.091,25.428-12.451,29.709-16.97,1.803-1.901,3.418-4.026,4.702-6.183-2.724-1.076-4.964-4.303-5.578-8.167-.769-4.827,1.153-9.229,5.15-11.852-4.832-5.318-13.236-8.221-23.176-7.997-5.026.111-10.551,1.059-16.423,2.816-2.394,1.939-4.547,3.375-6.526,4.332.796-.111,1.599-.169,2.399-.169Z" fill="#000" stroke-width="0"/>
      <g id="f" data-name="path1043">
        <path d="M50.189,120.504c-.114,0-.229-.033-.332-.101-.275-.184-.35-.556-.166-.832,4.829-7.246,11.901-15.432,19.915-23.052.238-.229.619-.219.848.021s.219.62-.021.848c-7.95,7.561-14.962,15.675-19.743,22.849-.115.173-.306.267-.5.267Z" fill="#000" stroke-width="0"/>
      </g>
      <g id="g" data-name="path1043">
        <path d="M92.588,79.696c-.199,0-.395-.099-.509-.28-.177-.28-.093-.651.188-.828,8.311-5.237,15.695-8.336,21.951-9.211.322-.047.631.182.677.511.047.328-.183.631-.511.677-6.086.852-13.312,3.893-21.477,9.039-.1.062-.21.092-.319.092Z" fill="#000" stroke-width="0"/>
      </g>
      <path d="M127.333,66.559c-5.334,0-11.114-1.172-16.866-3.434-2.044-.806-4.018-1.721-5.865-2.721-15.822-8.567-21.835-22.409-16.084-37.027,3.383-8.616,10.055-15.864,18.306-19.885,8.571-4.177,18.015-4.624,26.593-1.254,17.786,7,27.226,28.831,20.199,46.718h0c-4.158,10.561-12.681,16.786-24,17.529-.75.049-1.512.074-2.282.074ZM121.64,1.202c-4.829,0-9.689,1.128-14.29,3.37-7.984,3.891-14.44,10.905-17.715,19.245-5.508,14,.301,27.283,15.538,35.533,1.806.977,3.734,1.872,5.733,2.66,6.418,2.523,12.859,3.656,18.631,3.279,10.828-.711,18.983-6.668,22.961-16.771h0c6.793-17.292-2.329-38.396-19.521-45.163-3.662-1.438-7.489-2.154-11.337-2.154ZM153.057,48.737h.01-.01Z" fill="#000" stroke-width="0"/>
      <g id="h" data-name="path992-4">
        <path d="M120.988,49.703c-2.819,0-5.905-.807-7.041-2.111-.218-.25-.191-.629.059-.847.248-.217.629-.191.846.059,1.245,1.43,6.669,2.32,9.353,1.18.302-.131.656.012.786.317.13.305-.012.657-.317.787-.991.422-2.307.615-3.685.615Z" fill="#000" stroke-width="0"/>
      </g>
      <g id="i" data-name="path993-9">
        <path d="M110.019,33.178c-1.206,0-2.384-.288-3.387-.766-2.573-1.228-3.99-3.567-3.61-5.96.052-.328.363-.549.687-.499.327.052.551.359.499.687-.295,1.855.86,3.695,2.942,4.689,2.082.994,5.061,1.02,7.02-1.157.224-.248.603-.267.848-.044.246.222.267.601.045.847-1.418,1.574-3.26,2.203-5.043,2.204Z" fill="#000" stroke-width="0"/>
      </g>
      <g id="j" data-name="path994-8">
        <path d="M132.444,42.723c-.616,0-1.225-.098-1.81-.299-2.43-.836-4.005-3.29-4.213-6.565-.021-.331.229-.616.561-.637.305-.03.615.229.637.561.18,2.816,1.421,4.823,3.406,5.507,2.012.689,4.419-.18,6.282-2.276.22-.247.6-.27.847-.05.248.22.271.6.05.847-1.673,1.884-3.762,2.913-5.76,2.913Z" fill="#000" stroke-width="0"/>
      </g>
      <g id="k" data-name="path1044">
        <path d="M124.177,88.695c-.113,0-.229-.033-.331-.101-14.273-9.497-29.711-13.266-43.48-10.609-.321.059-.641-.149-.702-.476-.063-.326.149-.64.476-.703,14.071-2.714,29.834,1.116,44.371,10.789.276.184.351.556.168.832-.116.173-.307.268-.501.268Z" fill="#000" stroke-width="0"/>
      </g>
      <g id="l" data-name="path1045">
        <path d="M101.108,119.499c-.253,0-.488-.161-.57-.415-.731-2.251-2.026-4.434-3.847-6.49-.22-.248-.196-.627.052-.847.248-.221.627-.197.847.051,1.931,2.18,3.307,4.506,4.089,6.915.103.315-.069.654-.385.756-.062.02-.124.029-.186.029Z" fill="#000" stroke-width="0"/>
      </g>
      <g id="m" data-name="path1045">
        <path d="M64.832,100.152c-.526,0-1.044-.063-1.543-.233-1.628-.557-3.14-1.102-4.53-1.604-4.387-1.583-7.853-2.832-9.361-2.304-.312.111-.655-.054-.766-.367-.109-.312.055-.655.367-.765,1.915-.672,5.197.513,10.167,2.307,1.385.5,2.891,1.043,4.512,1.597.937.32,2.075.125,3.282-.081,1.294-.222,2.76-.471,4.209-.1.321.082.515.409.433.73-.082.32-.409.516-.729.432-1.202-.307-2.477-.089-3.71.121-.772.132-1.561.267-2.33.267Z" fill="#000" stroke-width="0"/>
      </g>
      <g id="n" data-name="path1046">
        <path d="M69.288,126.364c-.194,0-.384-.094-.5-.267-5.492-8.222-19.247-14.639-24.793-12.954-.314.095-.651-.083-.748-.4-.096-.317.083-.652.4-.749,5.966-1.813,20.251,4.622,26.139,13.436.184.276.109.648-.166.833-.103.068-.218.101-.332.101Z" fill="#000" stroke-width="0"/>
      </g>
      <path d="M41.157,113.6c-1.48,0-3.141-.206-4.963-.618-7.705-1.702-17.31-6.74-24.322-10.418-2.726-1.43-5.079-2.664-6.862-3.471-8.645-4.597-4.31-15.787-.3-23.805,2.035-4.073,4.979-6.587,8.514-7.271,4.213-.816,8.203,1.098,10.531,3.161,2.56,3.068,13.118,14.255,20.105,21.658l1.953,2.069c.397.418.769.814,1.114,1.184l.456.487c1.15,1.21,1.982,2.092,2.372,2.513.083.089.137.201.154.322,1.179,8.077-.848,12.758-6.022,13.912h0c-.826.185-1.738.278-2.73.278ZM15.258,69.024c-.594,0-1.197.054-1.806.172-3.155.61-5.807,2.903-7.668,6.63-6.016,12.029-6.094,19.081-.245,22.192,1.78.804,4.148,2.046,6.891,3.485,6.953,3.647,16.475,8.642,24.026,10.309,2.872.648,5.283.763,7.17.34h0c4.479-.999,6.156-5.05,5.123-12.383-.428-.458-1.202-1.279-2.237-2.368l-.461-.492c-.343-.367-.712-.761-1.108-1.178l-1.954-2.071c-6.998-7.414-17.572-18.617-20.093-21.649-1.721-1.518-4.537-2.987-7.638-2.987Z" fill="#000" stroke-width="0"/>
      <g id="o" data-name="path1048">
        <path d="M7.061,99.045c-.385,0-.769-.024-1.151-.075-.328-.043-.56-.344-.517-.673.042-.329.349-.562.673-.517,5.405.71,11.222-4.439,14.589-9.857,3.767-6.06,4.631-12.325,2.202-15.961-.184-.276-.109-.648.166-.833.276-.186.647-.109.832.166,3.265,4.888,1.014,12.122-2.181,17.262-3.341,5.374-9.034,10.488-14.613,10.488Z" fill="#000" stroke-width="0"/>
      </g>
      <path d="M81.042,129.098c-3.054,0-5.433-.966-6.396-2.335-.139-.161-.235-.358-.3-.507-.028-.064-.044-.133-.048-.203-.252-4.355.02-7.382.238-9.814.499-5.553.773-8.611-5.374-19.679-2.71-5.504-1.07-11.552,4.267-15.811,5.378-4.292,14.397-6.176,20.516-1.217,6.619,4.85,6.802,31.15.274,42.622-1.209,2.154-2.615,3.632-4.18,4.394-3.185,1.823-6.346,2.551-8.997,2.551ZM75.489,125.869c.032.064.064.113.104.16,1.317,1.869,7.204,3.28,13.885-.542,1.376-.671,2.607-1.984,3.694-3.922,0,0,0-.002.002-.003,6.172-10.844,6.195-36.566.037-41.079-5.655-4.584-14.022-2.796-19.035,1.205-4.944,3.946-6.422,9.298-3.952,14.316,6.313,11.364,6.01,14.743,5.507,20.343-.225,2.495-.478,5.32-.242,9.524Z" fill="#000" stroke-width="0"/>
      <g id="p" data-name="path1050">
        <path d="M78.281,96.296c-3.471,0-7.098-1.278-10.075-4.462-.227-.242-.213-.622.028-.848.244-.226.623-.213.849.029,4.789,5.122,11.429,4.848,15.883,2.302.562-.321,1.115-.628,1.655-.929,4.071-2.264,7.287-4.052,8.443-8.396.085-.319.414-.511.734-.425.32.085.511.414.426.734-1.288,4.836-4.871,6.829-9.021,9.136-.536.298-1.085.604-1.643.922-2.1,1.2-4.645,1.938-7.28,1.938Z" fill="#000" stroke-width="0"/>
      </g>
      <path d="M131.712,98.008c-.64,0-1.165-.049-1.582-.146h0c-.023-.007-.047-.014-.07-.022-3.037-.759-5.617-4.201-6.284-8.394-.789-4.957,1.259-9.464,5.477-12.059l.652-.338c.827-.427,2.458-1.269,4.594-2.337,10.128-5.092,27.902-13.609,32.829-13.343,6.425.332,14.325,3.381,15.453,10.88,1.153,7.674-3.213,14.513-10.155,15.908h0c-2.095.417-6.356,1.628-11.292,3.031-6.14,1.745-13.781,3.917-19.952,5.315-4.435,1.007-7.627,1.505-9.668,1.505ZM130.455,96.704c1.572.34,5.158-.123,10.659-1.372,6.139-1.392,13.764-3.559,19.89-5.3,4.96-1.41,9.243-2.627,11.385-3.054h0c6.304-1.266,10.261-7.522,9.204-14.552-1.02-6.784-8.354-9.551-14.327-9.86-.062-.003-.129-.005-.197-.005-5.168,0-24.067,9.218-32.032,13.222-2.131,1.065-3.757,1.905-4.582,2.331l-.621.321c-3.743,2.305-5.583,6.361-4.873,10.821.588,3.689,2.87,6.813,5.428,7.428.022.006.045.013.067.021ZM172.507,87.567h.01-.01Z" fill="#000" stroke-width="0"/>
      <g id="q" data-name="path1052">
        <path d="M175.984,86.876c-.017,0-.033,0-.051-.002-8.597-.711-14.079-11.073-14.079-16.254-.004-5.069,3.858-8.288,4.023-8.423.257-.21.634-.17.844.084.21.256.173.634-.083.844-.036.029-3.587,3.006-3.585,7.494,0,4.272,4.903,14.391,12.979,15.059.33.027.575.317.548.647-.025.313-.288.551-.597.551Z" fill="#000" stroke-width="0"/>
      </g>
      <path d="M77.149,78.211c-.778,0-1.535-.095-2.278-.281-.992-.241-1.984-.655-3.026-1.264-2.893-1.699-5.617-4.629-9.067-8.338-1.203-1.293-2.486-2.674-3.884-4.113-4.956-3.566-6.929-8.815-5.024-13.385,1.962-4.708,7.251-7.065,13.469-6.003,4.556.456,15.835,15.397,22.148,24.263.703.995,1.105,1.577,1.105,1.577.174.252.13.596-.104.796-.247.213-.495.415-.739.615l-.28.229c-.035.033-.074.062-.116.086-4.874,3.954-8.747,5.818-12.203,5.818ZM64.47,45.779c-4.462,0-8.039,2.021-9.493,5.512-1.688,4.048.142,8.75,4.658,11.979.029.021.057.044.082.07,1.418,1.46,2.72,2.86,3.938,4.17,3.383,3.638,6.056,6.511,8.795,8.12.939.549,1.825.92,2.708,1.135,3.66.919,7.823-.735,13.51-5.362.022-.018.046-.034.069-.049l.251-.206c.101-.082.202-.165.303-.248-.186-.266-.451-.645-.784-1.116-8.02-11.26-17.835-23.418-21.33-23.769-.931-.159-1.836-.236-2.707-.236Z" fill="#000" stroke-width="0"/>
      <path d="M55.473,56.513c-.296,0-.554-.22-.594-.521-.043-.329.188-.63.517-.673,4.961-.654,8.759-4.063,11.287-10.132.127-.306.479-.452.784-.323.307.127.451.479.323.785-2.666,6.4-6.898,10.155-12.238,10.859-.026.003-.053.005-.079.005Z" fill="#000" stroke-width="0"/>
      <g id="r" data-name="path1055">
        <path d="M109.522,138.702c-.028,0-.057-.002-.086-.006-.328-.047-.556-.351-.509-.679.258-1.813-2.608-7.071-3.734-8.944-.17-.284-.078-.652.205-.823.289-.171.653-.078.824.205.437.727,4.257,7.173,3.893,9.731-.042.299-.299.516-.593.516Z" fill="#000" stroke-width="0"/>
      </g>
      <g id="s" data-name="path1056">
        <path d="M133.054,121.394c-.017,0-.033,0-.051-.002-.33-.027-.575-.317-.548-.647.327-3.958-1.676-9.016-1.695-9.067-.123-.308.026-.657.334-.78.304-.123.656.027.779.334.087.217,2.129,5.368,1.777,9.612-.025.313-.288.551-.597.551Z" fill="#000" stroke-width="0"/>
      </g>
      <g id="t" data-name="path1057">
        <path d="M75.943,145.639c-.153,0-.307-.059-.424-.176-.234-.234-.234-.614,0-.849,2.931-2.932,3.624-8.923,3.63-8.983.037-.33.335-.569.663-.53.329.036.566.333.53.662-.029.263-.749,6.474-3.976,9.7-.116.117-.271.176-.424.176Z" fill="#000" stroke-width="0"/>
      </g>
    </g>
  </g>
</svg>