<?xml version="1.0" encoding="UTF-8"?>
<svg id="_Слой_1" data-name="Слой_1" xmlns="http://www.w3.org/2000/svg" version="1.1" viewBox="50 485 150 130">
  <!-- Generator: Adobe Illustrator 29.0.0, SVG Export Plug-In . SVG Version: 2.1.0 Build 186)  -->
  <defs>
    <style>
      .st1 {
        fill: #1d1d1b;
      }
    </style>
  </defs>
  <path class="st1" d="M131.59,488.48c-23.62,0-44.53,13.97-53.6,35.67-1.02-.14-2.05-.24-3.09-.24-12.5,0-22.68,10.17-22.68,22.68s10.17,22.68,22.68,22.68c1.04,0,2.07-.1,3.09-.24,9.08,21.71,29.99,35.68,53.6,35.68,32.05,0,58.12-26.07,58.12-58.12s-26.07-58.11-58.12-58.11ZM55.06,546.59c0-10.94,8.9-19.84,19.84-19.84,1.25,0,2.5.12,3.71.36,9.35,1.76,16.13,9.95,16.13,19.49,0,1.19-.11,2.36-.31,3.5-1.43,7.98-7.64,14.45-15.83,15.99h0c-1.2.24-2.44.35-3.7.35-10.94,0-19.84-8.9-19.84-19.84ZM131.59,601.87c-22.27,0-42.02-13.05-50.77-33.39.05-.01.1-.03.15-.05.26-.07.51-.16.76-.24.37-.11.73-.23,1.09-.36.26-.1.51-.21.76-.31.34-.14.68-.28,1.01-.43.25-.12.5-.25.75-.38.32-.16.63-.33.94-.51.25-.14.48-.29.72-.45.3-.19.59-.37.87-.57.23-.16.46-.33.69-.51.27-.21.55-.42.81-.64.22-.18.43-.37.65-.56.26-.23.51-.46.75-.7.2-.2.4-.4.6-.61.23-.25.46-.5.69-.76.19-.22.37-.43.55-.66.21-.27.42-.54.62-.82.17-.23.33-.46.49-.69.19-.29.37-.58.55-.87.15-.24.29-.48.43-.73.17-.3.33-.62.48-.93.13-.25.25-.5.37-.76.15-.32.28-.65.41-.98.1-.26.21-.51.3-.77.12-.34.23-.7.33-1.05.08-.26.16-.51.23-.78.1-.37.17-.75.25-1.13.05-.25.11-.5.16-.75.07-.42.12-.86.17-1.29.02-.21.06-.43.08-.64.06-.65.09-1.31.09-1.97s-.03-1.32-.09-1.97c-.02-.22-.06-.43-.08-.65-.05-.43-.1-.86-.17-1.28-.04-.25-.11-.5-.16-.75-.08-.38-.16-.76-.25-1.13-.07-.26-.15-.52-.23-.78-.11-.35-.21-.7-.33-1.04-.09-.26-.2-.52-.3-.78-.13-.33-.26-.66-.41-.98-.12-.26-.25-.51-.37-.76-.15-.31-.31-.62-.48-.92-.14-.25-.29-.5-.44-.74-.18-.29-.35-.58-.54-.86-.16-.24-.33-.48-.5-.71-.2-.27-.4-.54-.6-.8-.18-.23-.37-.46-.57-.68-.22-.25-.44-.49-.66-.73-.2-.22-.41-.43-.63-.64-.23-.23-.47-.45-.71-.67-.22-.2-.45-.4-.68-.59-.25-.21-.51-.41-.77-.6-.24-.18-.48-.37-.73-.54-.27-.19-.54-.36-.82-.54-.26-.16-.51-.33-.78-.48-.28-.16-.58-.32-.87-.47-.27-.14-.54-.28-.82-.41-.31-.14-.62-.27-.93-.4-.28-.12-.55-.24-.83-.34-.34-.12-.68-.23-1.02-.34-.27-.09-.54-.18-.82-.26-.05-.01-.1-.03-.14-.05,8.75-20.33,28.5-33.38,50.77-33.38,30.48,0,55.28,24.79,55.28,55.27s-24.8,55.28-55.28,55.28Z"/>
</svg>
