<?xml version="1.0" encoding="UTF-8"?>
<svg id="_Слой_1" data-name="Слой_1" xmlns="http://www.w3.org/2000/svg" version="1.1" viewBox="250 485 130 150">
  <!-- Generator: Adobe Illustrator 29.0.0, SVG Export Plug-In . SVG Version: 2.1.0 Build 186)  -->
  <defs>
    <style>
      .st1 {
        fill: #1d1d1b;
      }
    </style>
  </defs>
  <path class="st1" d="M369.51,546.59c0-32.04-26.07-58.11-58.11-58.11s-58.12,26.07-58.12,58.11c0,23.61,13.97,44.53,35.67,53.62-.14,1.03-.23,2.06-.23,3.08,0,12.5,10.17,22.68,22.68,22.68s22.68-10.17,22.68-22.68c0-1.04-.1-2.07-.24-3.09,21.7-9.08,35.67-30,35.67-53.61ZM311.4,623.13c-10.94,0-19.84-8.9-19.84-19.84,0-1.23.12-2.48.34-3.71,1.77-9.35,9.97-16.14,19.5-16.14,1.19,0,2.36.11,3.5.31,7.98,1.43,14.45,7.65,15.99,15.83.24,1.21.35,2.46.35,3.7,0,10.94-8.9,19.84-19.84,19.84ZM333.29,597.37c-.01-.05-.03-.1-.05-.15-.07-.25-.16-.5-.23-.75-.12-.37-.23-.74-.36-1.1-.1-.26-.2-.51-.31-.76-.14-.34-.28-.68-.44-1.01-.12-.25-.25-.5-.38-.74-.16-.32-.33-.64-.51-.94-.14-.24-.29-.48-.44-.71-.19-.3-.38-.59-.58-.88-.16-.23-.33-.46-.5-.68-.21-.28-.42-.55-.64-.82-.18-.22-.37-.43-.55-.64-.23-.26-.47-.51-.71-.76-.2-.2-.4-.4-.6-.59-.25-.24-.51-.47-.77-.69-.21-.18-.43-.37-.65-.54-.27-.22-.54-.42-.82-.63-.23-.17-.46-.33-.69-.49-.29-.19-.58-.38-.88-.56-.24-.15-.48-.29-.72-.43-.31-.17-.62-.33-.93-.48-.25-.12-.5-.25-.75-.37-.32-.15-.66-.28-.99-.41-.26-.1-.51-.21-.77-.3-.35-.12-.7-.23-1.05-.33-.26-.08-.51-.16-.77-.23-.37-.1-.76-.18-1.14-.25-.25-.05-.49-.11-.74-.16-.42-.07-.86-.12-1.29-.17-.21-.02-.43-.06-.64-.08-.65-.06-1.31-.09-1.97-.09s-1.32.03-1.97.09c-.22.02-.43.06-.64.08-.43.05-.86.1-1.29.17-.25.04-.5.11-.75.16-.38.08-.76.16-1.13.25-.26.07-.51.15-.77.23-.35.11-.71.21-1.05.33-.26.09-.51.2-.77.3-.33.13-.67.26-.99.41-.25.11-.5.24-.75.37-.32.16-.63.32-.94.49-.24.14-.48.28-.72.43-.3.18-.59.37-.88.56-.23.16-.46.32-.68.48-.28.21-.56.41-.83.63-.22.17-.43.35-.64.53-.26.23-.52.46-.78.7-.2.19-.4.38-.59.58-.25.25-.48.51-.72.77-.19.21-.37.41-.55.63-.23.27-.44.55-.65.83-.17.22-.33.44-.49.67-.2.29-.4.59-.59.89-.15.23-.3.46-.43.7-.18.31-.35.63-.52.96-.13.24-.26.48-.37.73-.16.33-.3.68-.44,1.02-.1.25-.21.5-.31.76-.13.35-.24.72-.36,1.08-.08.26-.17.51-.24.77-.01.05-.03.09-.04.14-20.34-8.76-33.39-28.52-33.39-50.78,0-30.48,24.8-55.27,55.28-55.27s55.27,24.79,55.27,55.27c0,22.27-13.05,42.02-33.38,50.78Z"/>
</svg>
