<?xml version="1.0" encoding="UTF-8"?>
<svg id="_Слой_1" data-name="Слой_1" xmlns="http://www.w3.org/2000/svg" version="1.1" viewBox="410 465 130 140">
  <!-- Generator: Adobe Illustrator 29.0.0, SVG Export Plug-In . SVG Version: 2.1.0 Build 186)  -->
  <defs>
    <style>
      .st1 {
        fill: #1d1d1b;
      }
    </style>
  </defs>
  <path class="st1" d="M499.47,492.99c.14-1.02.24-2.05.24-3.09,0-12.5-10.17-22.68-22.68-22.68s-22.68,10.17-22.68,22.68c0,1.03.09,2.06.23,3.08-21.71,9.09-35.67,30-35.67,53.61,0,32.05,26.07,58.12,58.12,58.12s58.11-26.07,58.11-58.12c0-23.62-13.97-44.53-35.67-53.6ZM477.03,470.06c10.94,0,19.84,8.9,19.84,19.84,0,1.25-.12,2.5-.36,3.71-1.76,9.35-9.95,16.13-19.49,16.13-1.79,0-3.53-.24-5.19-.69-.78-.21-1.54-.49-2.28-.79-4.51-1.84-8.24-5.28-10.39-9.7-.75-1.54-1.31-3.21-1.64-4.96-.23-1.23-.35-2.48-.35-3.71,0-10.94,8.9-19.84,19.84-19.84ZM477.03,601.87c-30.48,0-55.28-24.8-55.28-55.28,0-22.26,13.05-42.01,33.39-50.77.01.05.03.09.05.14.07.27.16.52.25.78.11.36.22.72.35,1.07.1.26.21.52.32.78.14.33.28.67.43.99.12.26.25.5.38.75.16.31.33.63.5.93.14.25.29.48.45.72.19.3.38.59.57.87.16.23.33.46.5.69.21.28.42.55.64.81.18.22.37.43.56.64.23.26.46.51.7.75.2.2.4.4.61.6.25.24.5.47.76.69.21.19.43.37.65.54.27.21.54.42.82.62.23.17.46.33.69.49.29.19.58.37.87.55.24.15.48.29.73.43.3.17.62.33.93.48.25.12.5.25.75.37.32.15.66.28.99.41.26.1.51.21.77.3.35.12.7.23,1.05.33.26.08.51.16.77.23.37.1.76.18,1.14.25.25.05.49.11.74.16.42.07.86.12,1.29.17.21.02.43.06.64.08.65.06,1.31.09,1.97.09s1.32-.03,1.97-.09c.22-.02.43-.06.65-.08.43-.05.86-.1,1.28-.17.25-.04.5-.11.75-.16.38-.08.75-.15,1.13-.25.27-.07.52-.16.79-.24.35-.11.7-.21,1.04-.33.27-.09.53-.2.79-.31.32-.13.65-.26.97-.4.26-.12.52-.25.78-.38.3-.15.61-.3.9-.47.26-.14.5-.29.75-.45.29-.17.57-.35.85-.54.25-.17.49-.34.72-.51.27-.19.53-.39.78-.6.23-.19.46-.38.69-.58.25-.21.49-.43.72-.65.22-.21.44-.42.65-.64.23-.23.44-.47.66-.7.2-.23.41-.46.6-.69.2-.25.4-.5.59-.76.19-.24.37-.49.55-.74.18-.26.36-.54.53-.81.17-.26.33-.52.48-.79.16-.28.31-.57.47-.86.14-.27.29-.54.42-.82.14-.31.27-.62.4-.93.12-.28.24-.55.34-.83.12-.34.23-.68.34-1.03.09-.27.18-.54.25-.81.01-.05.03-.1.05-.15,20.33,8.75,33.38,28.5,33.38,50.77,0,30.48-24.79,55.28-55.27,55.28Z"/>
</svg>
